<svg xmlns="http://www.w3.org/2000/svg" width="34.67" height="34.592" viewBox="0 0 34.67 34.592">
  <path id="União_17" data-name="União 17" d="M28.5,33.592A11.753,11.753,0,0,0,18.087,23.177v-5.09a16.822,16.822,0,0,1,15.5,15.5Zm-28.5,0a16.822,16.822,0,0,1,15.5-15.5V23.18A11.753,11.753,0,0,0,5.114,33.592ZM0,0H5.114A11.753,11.753,0,0,0,15.5,10.411V15.5A16.822,16.822,0,0,1,0,0ZM18.085,10.414A11.753,11.753,0,0,0,28.5,0h5.09a16.822,16.822,0,0,1-15.5,15.5Z" transform="translate(0.539 0.5)" fill="#ff7c10" stroke="rgba(0,0,0,0)" stroke-miterlimit="10" stroke-width="1"/>
</svg>
