<svg xmlns="http://www.w3.org/2000/svg" xmlns:xlink="http://www.w3.org/1999/xlink" width="33.6" height="28.95" viewBox="0 0 33.6 28.95">
  <defs>
    <clipPath id="clip-path">
      <rect id="Retângulo_843" data-name="Retângulo 843" width="28.95" height="33.6" fill="none"/>
    </clipPath>
  </defs>
  <g id="Grupo_346" data-name="Grupo 346" transform="translate(33.6) rotate(90)">
    <g id="Grupo_346-2" data-name="Grupo 346" clip-path="url(#clip-path)">
      <path id="Caminho_719" data-name="Caminho 719" d="M15.106,147.579V142.45A16.636,16.636,0,0,0,0,158H4.963a11.622,11.622,0,0,1,10.144-10.421" transform="translate(0 -124.399)" fill="#ff7c10"/>
      <path id="Caminho_720" data-name="Caminho 720" d="M15.106,10.421A11.622,11.622,0,0,1,4.962,0H0A16.636,16.636,0,0,0,15.106,15.549Z" fill="#ff7c10"/>
      <path id="Caminho_721" data-name="Caminho 721" d="M127.556,147.554v-5.105A16.636,16.636,0,0,0,112.45,158h4.96a11.623,11.623,0,0,1,10.147-10.444" transform="translate(-98.606 -124.398)" fill="#ff7c10"/>
      <path id="Caminho_722" data-name="Caminho 722" d="M117.41,0h-4.96a16.636,16.636,0,0,0,15.106,15.549v-5.1A11.623,11.623,0,0,1,117.41,0" transform="translate(-98.606)" fill="#ff7c10"/>
    </g>
  </g>
</svg>
