<svg id="Grupo_349" data-name="Grupo 349" xmlns="http://www.w3.org/2000/svg" xmlns:xlink="http://www.w3.org/1999/xlink" width="33.53" height="33.6" viewBox="0 0 33.53 33.6">
  <defs>
    <clipPath id="clip-path">
      <rect id="Retângulo_844" data-name="Retângulo 844" width="33.53" height="33.6" fill="none"/>
    </clipPath>
  </defs>
  <g id="Grupo_348" data-name="Grupo 348" clip-path="url(#clip-path)">
    <path id="Caminho_723" data-name="Caminho 723" d="M10.4,158h5.118A16.853,16.853,0,0,0,0,142.45v5.108A11.774,11.774,0,0,1,10.4,158" transform="translate(0 -124.399)" fill="#ff7c10"/>
    <path id="Caminho_724" data-name="Caminho 724" d="M5.118,15.549a11.774,11.774,0,0,1,10.4-10.441V0A16.853,16.853,0,0,0,0,15.549Z" fill="#ff7c10"/>
    <path id="Caminho_725" data-name="Caminho 725" d="M142.45,152.893V158a16.853,16.853,0,0,0,15.517-15.549h-5.094a11.775,11.775,0,0,1-10.422,10.444" transform="translate(-124.437 -124.398)" fill="#ff7c10"/>
    <path id="Caminho_726" data-name="Caminho 726" d="M147.544,0H142.45a16.853,16.853,0,0,0,15.517,15.549v-5.1A11.774,11.774,0,0,1,147.544,0" transform="translate(-124.437)" fill="#ff7c10"/>
  </g>
</svg>
