<svg xmlns="http://www.w3.org/2000/svg" width="34.521" height="34.67" viewBox="0 0 34.521 34.67">
  <g id="Grupo_350" data-name="Grupo 350" transform="translate(-10885.146 -13776.462)">
    <path id="Caminho_650" data-name="Caminho 650" d="M1191,15.5h5.1A16.8,16.8,0,0,0,1180.626,0V5.093A11.741,11.741,0,0,1,1191,15.5" transform="translate(9705.02 13777.002)" fill="#ff7c10" stroke="rgba(0,0,0,0)" stroke-miterlimit="10" stroke-width="1"/>
    <path id="Caminho_651" data-name="Caminho 651" d="M1191,142.771a11.741,11.741,0,0,1-10.369,10.411v5.093a16.8,16.8,0,0,0,15.472-15.5Z" transform="translate(9705.02 13652.317)" fill="#ff7c10" stroke="rgba(0,0,0,0)" stroke-miterlimit="10" stroke-width="1"/>
    <path id="Caminho_652" data-name="Caminho 652" d="M1338.85,5.09V0a16.8,16.8,0,0,0-15.472,15.5h5.08A11.74,11.74,0,0,1,1338.85,5.09" transform="translate(9580.314 13777.001)" fill="#ff7c10" stroke="rgba(0,0,0,0)" stroke-miterlimit="10" stroke-width="1"/>
    <path id="Caminho_653" data-name="Caminho 653" d="M1328.477,142.771h-5.08a16.8,16.8,0,0,0,15.472,15.5v-5.09a11.74,11.74,0,0,1-10.392-10.414" transform="translate(9580.298 13652.317)" fill="#ff7c10" stroke="rgba(0,0,0,0)" stroke-miterlimit="10" stroke-width="1"/>
  </g>
</svg>
