<svg xmlns="http://www.w3.org/2000/svg" width="29.992" height="34.599" viewBox="0 0 29.992 34.599">
  <path id="União_14" data-name="União 14" d="M23.86,33.6A11.774,11.774,0,0,0,13.439,23.155v-5.1A16.852,16.852,0,0,1,28.954,33.6ZM10.4,33.6A11.774,11.774,0,0,0,0,23.158V18.05A16.852,16.852,0,0,1,15.516,33.6Zm3.04-23.155A11.774,11.774,0,0,0,23.86,0h5.094A16.852,16.852,0,0,1,13.439,15.549ZM0,10.441A11.774,11.774,0,0,0,10.4,0h5.118A16.852,16.852,0,0,1,0,15.549Z" transform="translate(0.5 0.5)" fill="#ff7c10" stroke="rgba(0,0,0,0)" stroke-miterlimit="10" stroke-width="1"/>
</svg>
