<svg xmlns="http://www.w3.org/2000/svg" width="34.604" height="34.676" viewBox="0 0 34.604 34.676">
  <path id="União_15" data-name="União 15" d="M18.012,33.6A16.852,16.852,0,0,1,33.528,18.05v5.1A11.774,11.774,0,0,0,23.106,33.6ZM0,18.05H5.118a11.774,11.774,0,0,0,10.4,10.441V33.6A16.852,16.852,0,0,1,0,18.05Zm28.434-2.5A11.774,11.774,0,0,0,18.012,5.1V0A16.852,16.852,0,0,1,33.528,15.549ZM0,10.441A11.774,11.774,0,0,0,10.4,0h5.118A16.852,16.852,0,0,1,0,15.549Z" transform="translate(0.538 0.539)" fill="#ff7c10" stroke="rgba(0,0,0,0)" stroke-miterlimit="10" stroke-width="1"/>
</svg>
