<svg xmlns="http://www.w3.org/2000/svg" width="34.6" height="34.669" viewBox="0 0 34.6 34.669">
  <path id="União_16" data-name="União 16" d="M18.049,28.5A11.741,11.741,0,0,0,28.418,18.087h5.1a16.8,16.8,0,0,1-15.472,15.5ZM0,18.087H5.08A11.741,11.741,0,0,0,15.472,28.5v5.09A16.8,16.8,0,0,1,0,18.087ZM0,15.5A16.8,16.8,0,0,1,15.472,0V5.091A11.74,11.74,0,0,0,5.08,15.5Zm28.418,0A11.741,11.741,0,0,0,18.049,5.093V0A16.8,16.8,0,0,1,33.521,15.5Z" transform="translate(0.539 0.539)" fill="#ff7c10" stroke="rgba(0,0,0,0)" stroke-miterlimit="10" stroke-width="1"/>
</svg>
