<svg xmlns="http://www.w3.org/2000/svg" xmlns:xlink="http://www.w3.org/1999/xlink" width="628" height="636" viewBox="0 0 628 636">
  <defs>
    <filter id="Elipse_28" x="308" y="558" width="80" height="78" filterUnits="userSpaceOnUse">
      <feOffset dy="10" input="SourceAlpha"/>
      <feGaussianBlur stdDeviation="8" result="blur"/>
      <feFlood flood-opacity="0.102"/>
      <feComposite operator="in" in2="blur"/>
      <feComposite in="SourceGraphic"/>
    </filter>
    <filter id="Caminho_716" x="94" y="129" width="428" height="428" filterUnits="userSpaceOnUse">
      <feOffset dy="10" input="SourceAlpha"/>
      <feGaussianBlur stdDeviation="8" result="blur-2"/>
      <feFlood flood-opacity="0.102"/>
      <feComposite operator="in" in2="blur-2"/>
      <feComposite in="SourceGraphic"/>
    </filter>
    <filter id="Elipse_18" x="0" y="58" width="190" height="190" filterUnits="userSpaceOnUse">
      <feOffset dy="10" input="SourceAlpha"/>
      <feGaussianBlur stdDeviation="8" result="blur-3"/>
      <feFlood flood-opacity="0.102"/>
      <feComposite operator="in" in2="blur-3"/>
      <feComposite in="SourceGraphic"/>
    </filter>
    <filter id="Elipse_20" x="344" y="13" width="151" height="150" filterUnits="userSpaceOnUse">
      <feOffset dy="10" input="SourceAlpha"/>
      <feGaussianBlur stdDeviation="8" result="blur-4"/>
      <feFlood flood-opacity="0.102"/>
      <feComposite operator="in" in2="blur-4"/>
      <feComposite in="SourceGraphic"/>
    </filter>
    <filter id="Elipse_21" x="451" y="115" width="147" height="147" filterUnits="userSpaceOnUse">
      <feOffset dy="10" input="SourceAlpha"/>
      <feGaussianBlur stdDeviation="8" result="blur-5"/>
      <feFlood flood-opacity="0.153"/>
      <feComposite operator="in" in2="blur-5"/>
      <feComposite in="SourceGraphic"/>
    </filter>
    <filter id="Elipse_27" x="417" y="512" width="102" height="101" filterUnits="userSpaceOnUse">
      <feOffset dy="10" input="SourceAlpha"/>
      <feGaussianBlur stdDeviation="8" result="blur-6"/>
      <feFlood flood-opacity="0.102"/>
      <feComposite operator="in" in2="blur-6"/>
      <feComposite in="SourceGraphic"/>
    </filter>
    <filter id="Elipse_26" x="483" y="383" width="128" height="127" filterUnits="userSpaceOnUse">
      <feOffset dy="10" input="SourceAlpha"/>
      <feGaussianBlur stdDeviation="8" result="blur-7"/>
      <feFlood flood-opacity="0.102"/>
      <feComposite operator="in" in2="blur-7"/>
      <feComposite in="SourceGraphic"/>
    </filter>
    <filter id="Elipse_22" x="501" y="259" width="127" height="127" filterUnits="userSpaceOnUse">
      <feOffset dy="10" input="SourceAlpha"/>
      <feGaussianBlur stdDeviation="8" result="blur-8"/>
      <feFlood flood-opacity="0.102"/>
      <feComposite operator="in" in2="blur-8"/>
      <feComposite in="SourceGraphic"/>
    </filter>
    <filter id="Elipse_19" x="183" y="0" width="162" height="162" filterUnits="userSpaceOnUse">
      <feOffset dy="10" input="SourceAlpha"/>
      <feGaussianBlur stdDeviation="8" result="blur-9"/>
      <feFlood flood-opacity="0.102"/>
      <feComposite operator="in" in2="blur-9"/>
      <feComposite in="SourceGraphic"/>
    </filter>
  </defs>
  <g id="Grupo_435" data-name="Grupo 435" transform="translate(-14453 -1518)">
    <g transform="matrix(1, 0, 0, 1, 14453, 1518)" filter="url(#Elipse_28)">
      <ellipse id="Elipse_28-2" data-name="Elipse 28" cx="16" cy="15" rx="16" ry="15" transform="translate(332 572)" fill="#fff"/>
    </g>
    <path id="Caminho_871" data-name="Caminho 871" d="M-14.616,0V-10.908h-.324l-1.692,4h-2.412L-16.47-12.6h4.158V0ZM-9.7,2.646V1.422H-9A.732.732,0,0,0-8.172.594V.018h-.306a1.716,1.716,0,0,1-1.2-.432,1.416,1.416,0,0,1-.477-1.1,1.535,1.535,0,0,1,.477-1.17,1.676,1.676,0,0,1,1.2-.45,1.65,1.65,0,0,1,1.206.459A1.648,1.648,0,0,1-6.8-1.44V.63A1.782,1.782,0,0,1-8.82,2.646ZM-.216.252A5.105,5.105,0,0,1-3.8-.981a4.813,4.813,0,0,1-1.35-3.735V-7.884a4.834,4.834,0,0,1,1.35-3.7A5.017,5.017,0,0,1-.216-12.852a5.01,5.01,0,0,1,3.591,1.269,4.852,4.852,0,0,1,1.341,3.7v3.168A4.831,4.831,0,0,1,3.375-.981,5.1,5.1,0,0,1-.216.252Zm0-2.052a2.493,2.493,0,0,0,1.989-.738,3.122,3.122,0,0,0,.639-2.106V-7.992a2.844,2.844,0,0,0-.711-2.1A2.59,2.59,0,0,0-.216-10.8a2.525,2.525,0,0,0-1.935.738,2.907,2.907,0,0,0-.693,2.07v3.348a3.047,3.047,0,0,0,.657,2.133A2.555,2.555,0,0,0-.216-1.8ZM8.28.234,6.912-.864,16.6-12.834l1.368,1.1Zm7.6-.054a3,3,0,0,1-2.142-.729,2.6,2.6,0,0,1-.774-1.989v-.126a2.624,2.624,0,0,1,.774-2.007A3,3,0,0,1,15.876-5.4,3.014,3.014,0,0,1,18-4.671a2.592,2.592,0,0,1,.792,2.007v.126a2.6,2.6,0,0,1-.774,1.989A3,3,0,0,1,15.876.18Zm0-1.476a1.056,1.056,0,0,0,.819-.324,1.2,1.2,0,0,0,.3-.846v-.288a1.2,1.2,0,0,0-.3-.846,1.056,1.056,0,0,0-.819-.324,1.056,1.056,0,0,0-.819.324,1.2,1.2,0,0,0-.3.846v.288a1.2,1.2,0,0,0,.3.846A1.056,1.056,0,0,0,15.876-1.3ZM9-7.2a3,3,0,0,1-2.142-.729,2.6,2.6,0,0,1-.774-1.989v-.126a2.624,2.624,0,0,1,.774-2.007A3,3,0,0,1,9-12.78a3.014,3.014,0,0,1,2.124.729,2.592,2.592,0,0,1,.792,2.007v.126a2.6,2.6,0,0,1-.774,1.989A3,3,0,0,1,9-7.2ZM9-8.676A1.056,1.056,0,0,0,9.819-9a1.2,1.2,0,0,0,.3-.846v-.288a1.2,1.2,0,0,0-.3-.846A1.056,1.056,0,0,0,9-11.3a1.056,1.056,0,0,0-.819.324,1.2,1.2,0,0,0-.3.846v.288a1.2,1.2,0,0,0,.3.846A1.056,1.056,0,0,0,9-8.676Z" transform="translate(14801 2110)" fill="#ff7c10"/>
    <g transform="matrix(1, 0, 0, 1, 14453, 1518)" filter="url(#Caminho_716)">
      <path id="Caminho_716-2" data-name="Caminho 716" d="M190,0C294.934,0,380,85.066,380,190S294.934,380,190,380,0,294.934,0,190,85.066,0,190,0Z" transform="translate(118 143)" fill="#fff"/>
    </g>
    <g id="Grupo_276" data-name="Grupo 276" transform="translate(14012 -3088)">
      <g transform="matrix(1, 0, 0, 1, 441, 4606)" filter="url(#Elipse_18)">
        <circle id="Elipse_18-2" data-name="Elipse 18" cx="71" cy="71" r="71" transform="translate(24 72)" fill="#fff" opacity="0.999"/>
      </g>
    </g>
    <g transform="matrix(1, 0, 0, 1, 14453, 1518)" filter="url(#Elipse_20)">
      <ellipse id="Elipse_20-2" data-name="Elipse 20" cx="51.5" cy="51" rx="51.5" ry="51" transform="translate(368 27)" fill="#fff"/>
    </g>
    <path id="Caminho_861" data-name="Caminho 861" d="M-38.9,0V-1.7h1.5V-9.5h-1.5v-1.7h5.728a4.251,4.251,0,0,1,1.768.344,2.753,2.753,0,0,1,1.184.976,2.65,2.65,0,0,1,.424,1.512v.144A2.491,2.491,0,0,1-30.08-6.96a2.307,2.307,0,0,1-.688.768,2.869,2.869,0,0,1-.768.384v.272a2.919,2.919,0,0,1,.792.36,2.18,2.18,0,0,1,.72.768,2.552,2.552,0,0,1,.3,1.3v.16a2.787,2.787,0,0,1-.44,1.576,2.834,2.834,0,0,1-1.2,1.016A4.127,4.127,0,0,1-33.12,0Zm3.424-1.744h2.128A1.865,1.865,0,0,0-32.12-2.12a1.3,1.3,0,0,0,.456-1.064v-.144a1.312,1.312,0,0,0-.448-1.064,1.858,1.858,0,0,0-1.232-.376h-2.128Zm0-4.768h2.112a1.839,1.839,0,0,0,1.192-.368A1.243,1.243,0,0,0-31.712-7.9v-.16a1.243,1.243,0,0,0-.456-1.024,1.839,1.839,0,0,0-1.192-.368h-2.112ZM-27.92,0V-11.2h1.936V0Zm8.432.224a4.664,4.664,0,0,1-3.32-1.16,4.346,4.346,0,0,1-1.24-3.336V-6.928a4.346,4.346,0,0,1,1.24-3.336,4.664,4.664,0,0,1,3.32-1.16,4.658,4.658,0,0,1,3.328,1.16,4.362,4.362,0,0,1,1.232,3.336v2.656A4.362,4.362,0,0,1-16.16-.936,4.658,4.658,0,0,1-19.488.224Zm0-1.728a2.562,2.562,0,0,0,1.944-.728,2.741,2.741,0,0,0,.7-1.976V-6.992a2.741,2.741,0,0,0-.7-1.976A2.562,2.562,0,0,0-19.488-9.7a2.541,2.541,0,0,0-1.928.728,2.741,2.741,0,0,0-.7,1.976v2.784a2.741,2.741,0,0,0,.7,1.976A2.541,2.541,0,0,0-19.488-1.5Zm6.5,1.5V-11.2h3.6l2.176,9.9h.272l2.192-9.9h3.584V0H-3.024V-9.808H-3.3L-5.472,0h-3.2l-2.176-9.808h-.272V0ZM.272,0,3.344-11.2H6.688L9.76,0H7.776L7.1-2.56H2.928L2.256,0Zm3.1-4.32h3.28L5.152-10H4.88ZM15.024.224A5.329,5.329,0,0,1,12.76-.232a3.6,3.6,0,0,1-1.544-1.32,3.8,3.8,0,0,1-.56-2.112V-4.08h1.9v.416a1.994,1.994,0,0,0,.672,1.648,2.763,2.763,0,0,0,1.792.544,2.686,2.686,0,0,0,1.712-.464,1.47,1.47,0,0,0,.576-1.2,1.185,1.185,0,0,0-.272-.808,1.9,1.9,0,0,0-.792-.5,11.2,11.2,0,0,0-1.256-.368l-.48-.1A9.1,9.1,0,0,1,12.6-5.56a3.122,3.122,0,0,1-1.24-1.016,2.811,2.811,0,0,1-.432-1.632,3.043,3.043,0,0,1,.48-1.728,3.053,3.053,0,0,1,1.36-1.1,5.127,5.127,0,0,1,2.064-.384,5.289,5.289,0,0,1,2.112.4,3.281,3.281,0,0,1,1.464,1.2,3.516,3.516,0,0,1,.536,2V-7.3h-1.9v-.528a1.99,1.99,0,0,0-.272-1.1A1.563,1.563,0,0,0,16-9.536a3.229,3.229,0,0,0-1.168-.192,2.483,2.483,0,0,0-1.5.384,1.28,1.28,0,0,0-.512,1.088,1.238,1.238,0,0,0,.232.76,1.666,1.666,0,0,0,.688.512,5.9,5.9,0,0,0,1.144.344l.48.112a10.3,10.3,0,0,1,2.016.648,3.448,3.448,0,0,1,1.352,1.032,2.67,2.67,0,0,1,.488,1.664,3.092,3.092,0,0,1-.52,1.776,3.461,3.461,0,0,1-1.456,1.2A5.248,5.248,0,0,1,15.024.224Zm9.728,0a5.329,5.329,0,0,1-2.264-.456,3.6,3.6,0,0,1-1.544-1.32,3.8,3.8,0,0,1-.56-2.112V-4.08h1.9v.416a1.994,1.994,0,0,0,.672,1.648,2.763,2.763,0,0,0,1.792.544,2.686,2.686,0,0,0,1.712-.464,1.47,1.47,0,0,0,.576-1.2,1.185,1.185,0,0,0-.272-.808,1.9,1.9,0,0,0-.792-.5,11.2,11.2,0,0,0-1.256-.368l-.48-.1a9.1,9.1,0,0,1-1.912-.648,3.122,3.122,0,0,1-1.24-1.016,2.811,2.811,0,0,1-.432-1.632,3.043,3.043,0,0,1,.48-1.728,3.053,3.053,0,0,1,1.36-1.1,5.127,5.127,0,0,1,2.064-.384,5.289,5.289,0,0,1,2.112.4,3.281,3.281,0,0,1,1.464,1.2,3.516,3.516,0,0,1,.536,2V-7.3h-1.9v-.528a1.99,1.99,0,0,0-.272-1.1,1.563,1.563,0,0,0-.768-.608,3.229,3.229,0,0,0-1.168-.192,2.483,2.483,0,0,0-1.5.384,1.28,1.28,0,0,0-.512,1.088,1.238,1.238,0,0,0,.232.76,1.666,1.666,0,0,0,.688.512,5.9,5.9,0,0,0,1.144.344l.48.112A10.3,10.3,0,0,1,27.1-5.88a3.448,3.448,0,0,1,1.352,1.032,2.67,2.67,0,0,1,.488,1.664,3.092,3.092,0,0,1-.52,1.776,3.461,3.461,0,0,1-1.456,1.2A5.248,5.248,0,0,1,24.752.224ZM29.824,0,32.9-11.2H36.24L39.312,0H37.328l-.672-2.56H32.48L31.808,0Zm3.1-4.32h3.28L34.7-10h-.272Z" transform="translate(14873 1589)"/>
    <path id="Caminho_862" data-name="Caminho 862" d="M-22.7,0V-.624a7.6,7.6,0,0,1,.144-1.6,5.459,5.459,0,0,1,.624-1.5l5.64-9.96v-.384h-8.928V-16.8h12.1v3.648L-19.08-2.52a4.509,4.509,0,0,0-.432.984,4,4,0,0,0-.12,1.056V0Zm10.416,3.528V1.9h.936a.976.976,0,0,0,1.1-1.1V.024h-.408a2.288,2.288,0,0,1-1.6-.576,1.888,1.888,0,0,1-.636-1.464,2.047,2.047,0,0,1,.636-1.56,2.234,2.234,0,0,1,1.6-.6,2.2,2.2,0,0,1,1.608.612A2.2,2.2,0,0,1-8.424-1.92V.84a2.376,2.376,0,0,1-2.688,2.688ZM.024.336A7.836,7.836,0,0,1-3.228-.288a4.834,4.834,0,0,1-2.136-1.8A5.081,5.081,0,0,1-6.12-4.9H-3a2.458,2.458,0,0,0,.708,1.752A3.085,3.085,0,0,0,.024-2.4a3.408,3.408,0,0,0,2.5-.852,3.1,3.1,0,0,0,.864-2.316V-7.3H2.952a4.092,4.092,0,0,1-1.236.912,5.485,5.485,0,0,1-2.46.432,5.927,5.927,0,0,1-2.688-.624A5.055,5.055,0,0,1-5.448-8.388a5.169,5.169,0,0,1-.768-2.868v-.288a5.347,5.347,0,0,1,.792-2.928,5.387,5.387,0,0,1,2.232-1.956,7.529,7.529,0,0,1,3.36-.708,7.272,7.272,0,0,1,3.336.72,5.277,5.277,0,0,1,2.184,1.992A5.553,5.553,0,0,1,6.456-11.5V-5.76a6.415,6.415,0,0,1-.828,3.4A5.144,5.144,0,0,1,3.348-.336,7.831,7.831,0,0,1,.024.336ZM.12-8.4a3.9,3.9,0,0,0,1.74-.36A2.662,2.662,0,0,0,2.988-9.768a2.888,2.888,0,0,0,.4-1.536V-11.5a2.7,2.7,0,0,0-.876-2.124A3.462,3.462,0,0,0,.12-14.4a3.462,3.462,0,0,0-2.388.78A2.7,2.7,0,0,0-3.144-11.5v.192a2.888,2.888,0,0,0,.4,1.536A2.649,2.649,0,0,0-1.608-8.76,3.923,3.923,0,0,0,.12-8.4ZM11.208.312,9.384-1.152,22.3-17.112l1.824,1.464ZM21.336.24A4,4,0,0,1,18.48-.732a3.468,3.468,0,0,1-1.032-2.652v-.168A3.5,3.5,0,0,1,18.48-6.228,4,4,0,0,1,21.336-7.2a4.018,4.018,0,0,1,2.832.972,3.456,3.456,0,0,1,1.056,2.676v.168A3.468,3.468,0,0,1,24.192-.732,4,4,0,0,1,21.336.24Zm0-1.968a1.407,1.407,0,0,0,1.092-.432,1.6,1.6,0,0,0,.4-1.128v-.384a1.6,1.6,0,0,0-.4-1.128,1.407,1.407,0,0,0-1.092-.432,1.407,1.407,0,0,0-1.092.432,1.6,1.6,0,0,0-.4,1.128v.384a1.6,1.6,0,0,0,.4,1.128A1.407,1.407,0,0,0,21.336-1.728ZM12.168-9.6a4,4,0,0,1-2.856-.972A3.468,3.468,0,0,1,8.28-13.224v-.168a3.5,3.5,0,0,1,1.032-2.676,4,4,0,0,1,2.856-.972A4.018,4.018,0,0,1,15-16.068a3.456,3.456,0,0,1,1.056,2.676v.168a3.468,3.468,0,0,1-1.032,2.652A4,4,0,0,1,12.168-9.6Zm0-1.968A1.407,1.407,0,0,0,13.26-12a1.6,1.6,0,0,0,.4-1.128v-.384a1.6,1.6,0,0,0-.4-1.128,1.407,1.407,0,0,0-1.092-.432,1.407,1.407,0,0,0-1.092.432,1.6,1.6,0,0,0-.4,1.128v.384a1.6,1.6,0,0,0,.4,1.128A1.407,1.407,0,0,0,12.168-11.568Z" transform="translate(14873 1613)" fill="#ff7c10"/>
    <g transform="matrix(1, 0, 0, 1, 14453, 1518)" filter="url(#Elipse_21)">
      <circle id="Elipse_21-2" data-name="Elipse 21" cx="49.5" cy="49.5" r="49.5" transform="translate(475 129)" fill="#ff7c10"/>
    </g>
    <path id="Caminho_863" data-name="Caminho 863" d="M-19.76.224a5.329,5.329,0,0,1-2.264-.456,3.6,3.6,0,0,1-1.544-1.32,3.8,3.8,0,0,1-.56-2.112V-4.08h1.9v.416a1.994,1.994,0,0,0,.672,1.648,2.763,2.763,0,0,0,1.792.544,2.686,2.686,0,0,0,1.712-.464,1.47,1.47,0,0,0,.576-1.2,1.185,1.185,0,0,0-.272-.808,1.9,1.9,0,0,0-.792-.5,11.2,11.2,0,0,0-1.256-.368l-.48-.1a9.1,9.1,0,0,1-1.912-.648,3.122,3.122,0,0,1-1.24-1.016,2.811,2.811,0,0,1-.432-1.632,3.043,3.043,0,0,1,.48-1.728,3.053,3.053,0,0,1,1.36-1.1,5.127,5.127,0,0,1,2.064-.384,5.289,5.289,0,0,1,2.112.4,3.281,3.281,0,0,1,1.464,1.2,3.516,3.516,0,0,1,.536,2V-7.3h-1.9v-.528a1.99,1.99,0,0,0-.272-1.1,1.563,1.563,0,0,0-.768-.608,3.229,3.229,0,0,0-1.168-.192,2.483,2.483,0,0,0-1.5.384,1.28,1.28,0,0,0-.512,1.088,1.238,1.238,0,0,0,.232.76,1.666,1.666,0,0,0,.688.512A5.9,5.9,0,0,0-19.9-6.64l.48.112a10.3,10.3,0,0,1,2.016.648,3.448,3.448,0,0,1,1.352,1.032,2.67,2.67,0,0,1,.488,1.664,3.092,3.092,0,0,1-.52,1.776,3.461,3.461,0,0,1-1.456,1.2A5.248,5.248,0,0,1-19.76.224Zm10.16,0a4.664,4.664,0,0,1-3.32-1.16,4.346,4.346,0,0,1-1.24-3.336V-6.928a4.346,4.346,0,0,1,1.24-3.336,4.664,4.664,0,0,1,3.32-1.16,4.658,4.658,0,0,1,3.328,1.16A4.362,4.362,0,0,1-5.04-6.928v2.656A4.362,4.362,0,0,1-6.272-.936,4.658,4.658,0,0,1-9.6.224Zm0-1.728a2.562,2.562,0,0,0,1.944-.728,2.741,2.741,0,0,0,.7-1.976V-6.992a2.741,2.741,0,0,0-.7-1.976A2.562,2.562,0,0,0-9.6-9.7a2.541,2.541,0,0,0-1.928.728,2.741,2.741,0,0,0-.7,1.976v2.784a2.741,2.741,0,0,0,.7,1.976A2.541,2.541,0,0,0-9.6-1.5ZM-3.1,0V-11.2h1.936v9.456H4.08V0ZM4.8,0,7.872-11.2h3.344L14.288,0H12.3l-.672-2.56H7.456L6.784,0ZM7.9-4.32h3.28L9.68-10H9.408ZM15.712,0V-11.2H20.5a4.291,4.291,0,0,1,1.84.368A2.915,2.915,0,0,1,23.56-9.8,2.816,2.816,0,0,1,24-8.208v.176a2.6,2.6,0,0,1-.5,1.664,2.936,2.936,0,0,1-1.2.912V-5.2a1.356,1.356,0,0,1,.984.432,1.542,1.542,0,0,1,.36,1.072V0h-1.92V-3.424a.951.951,0,0,0-.216-.648.878.878,0,0,0-.7-.248H17.648V0Zm1.936-6.064H20.3a1.838,1.838,0,0,0,1.3-.44A1.531,1.531,0,0,0,22.08-7.68v-.144a1.565,1.565,0,0,0-.464-1.192,1.832,1.832,0,0,0-1.312-.44H17.648Z" transform="translate(14978 1689)" fill="#fff"/>
    <path id="Caminho_864" data-name="Caminho 864" d="M-22.608,0V-.624a7.6,7.6,0,0,1,.144-1.6,5.459,5.459,0,0,1,.624-1.5l5.64-9.96v-.384h-8.928V-16.8h12.1v3.648L-18.984-2.52a4.509,4.509,0,0,0-.432.984,4,4,0,0,0-.12,1.056V0Zm10.416,3.528V1.9h.936a.976.976,0,0,0,1.1-1.1V.024h-.408a2.288,2.288,0,0,1-1.6-.576,1.888,1.888,0,0,1-.636-1.464,2.047,2.047,0,0,1,.636-1.56,2.234,2.234,0,0,1,1.6-.6,2.2,2.2,0,0,1,1.608.612A2.2,2.2,0,0,1-8.328-1.92V.84a2.376,2.376,0,0,1-2.688,2.688ZM.216.336A7.272,7.272,0,0,1-3.12-.384,5.277,5.277,0,0,1-5.3-2.376,5.553,5.553,0,0,1-6.072-5.3V-11.04a6.415,6.415,0,0,1,.828-3.4,5.144,5.144,0,0,1,2.28-2.028A7.831,7.831,0,0,1,.36-17.136a7.836,7.836,0,0,1,3.252.624,4.834,4.834,0,0,1,2.136,1.8A5.081,5.081,0,0,1,6.5-11.9H3.384a2.48,2.48,0,0,0-.7-1.752A3.079,3.079,0,0,0,.36-14.4a3.446,3.446,0,0,0-2.484.84A3.073,3.073,0,0,0-3-11.232V-9.5h.432a4.062,4.062,0,0,1,1.248-.912,5.5,5.5,0,0,1,2.448-.432,5.9,5.9,0,0,1,2.7.624,5.076,5.076,0,0,1,2,1.812A5.169,5.169,0,0,1,6.6-5.544v.288A5.363,5.363,0,0,1,5.808-2.34,5.358,5.358,0,0,1,3.576-.372,7.529,7.529,0,0,1,.216.336ZM.264-2.4a3.428,3.428,0,0,0,2.388-.792A2.708,2.708,0,0,0,3.528-5.3V-5.5a2.888,2.888,0,0,0-.4-1.536A2.662,2.662,0,0,0,2-8.04,3.9,3.9,0,0,0,.264-8.4a3.923,3.923,0,0,0-1.728.36A2.649,2.649,0,0,0-2.6-7.032,2.888,2.888,0,0,0-3-5.5V-5.3a2.708,2.708,0,0,0,.876,2.112A3.428,3.428,0,0,0,.264-2.4ZM11.112.312,9.288-1.152,22.2-17.112l1.824,1.464ZM21.24.24a4,4,0,0,1-2.856-.972,3.468,3.468,0,0,1-1.032-2.652v-.168a3.5,3.5,0,0,1,1.032-2.676A4,4,0,0,1,21.24-7.2a4.018,4.018,0,0,1,2.832.972,3.456,3.456,0,0,1,1.056,2.676v.168A3.468,3.468,0,0,1,24.1-.732,4,4,0,0,1,21.24.24Zm0-1.968a1.407,1.407,0,0,0,1.092-.432,1.6,1.6,0,0,0,.4-1.128v-.384a1.6,1.6,0,0,0-.4-1.128,1.407,1.407,0,0,0-1.092-.432,1.407,1.407,0,0,0-1.092.432,1.6,1.6,0,0,0-.4,1.128v.384a1.6,1.6,0,0,0,.4,1.128A1.407,1.407,0,0,0,21.24-1.728ZM12.072-9.6a4,4,0,0,1-2.856-.972,3.468,3.468,0,0,1-1.032-2.652v-.168a3.5,3.5,0,0,1,1.032-2.676,4,4,0,0,1,2.856-.972,4.018,4.018,0,0,1,2.832.972,3.456,3.456,0,0,1,1.056,2.676v.168a3.468,3.468,0,0,1-1.032,2.652A4,4,0,0,1,12.072-9.6Zm0-1.968A1.407,1.407,0,0,0,13.164-12a1.6,1.6,0,0,0,.4-1.128v-.384a1.6,1.6,0,0,0-.4-1.128,1.407,1.407,0,0,0-1.092-.432,1.407,1.407,0,0,0-1.092.432,1.6,1.6,0,0,0-.4,1.128v.384A1.6,1.6,0,0,0,10.98-12,1.407,1.407,0,0,0,12.072-11.568Z" transform="translate(14978 1714)" fill="#fff"/>
    <g transform="matrix(1, 0, 0, 1, 14453, 1518)" filter="url(#Elipse_27)">
      <ellipse id="Elipse_27-2" data-name="Elipse 27" cx="27" cy="26.5" rx="27" ry="26.5" transform="translate(441 526)" fill="#fff"/>
    </g>
    <path id="Caminho_869" data-name="Caminho 869" d="M-21.658.2A3.966,3.966,0,0,1-24.514-.819a3.844,3.844,0,0,1-1.064-2.919V-6.062a3.844,3.844,0,0,1,1.064-2.919A3.966,3.966,0,0,1-21.658-10a3.724,3.724,0,0,1,2.765.98,3.647,3.647,0,0,1,.973,2.688v.084h-1.652V-6.37a2.249,2.249,0,0,0-.511-1.519,1.964,1.964,0,0,0-1.575-.6,2.123,2.123,0,0,0-1.631.637,2.473,2.473,0,0,0-.595,1.757v2.38a2.478,2.478,0,0,0,.595,1.75,2.111,2.111,0,0,0,1.631.644,1.964,1.964,0,0,0,1.575-.6,2.249,2.249,0,0,0,.511-1.519v-.238h1.652v.2a3.647,3.647,0,0,1-.973,2.688A3.724,3.724,0,0,1-21.658.2Zm4.522-.2,2.688-9.8h2.926L-8.834,0H-10.57l-.588-2.24h-3.654L-15.4,0Zm2.716-3.78h2.87l-1.316-4.97H-13.1ZM-7.588,0V-9.8H-3.4a3.755,3.755,0,0,1,1.61.322,2.551,2.551,0,0,1,1.071.9A2.464,2.464,0,0,1-.336-7.182v.154A2.273,2.273,0,0,1-.77-5.572a2.569,2.569,0,0,1-1.05.8v.224a1.187,1.187,0,0,1,.861.378,1.35,1.35,0,0,1,.315.938V0h-1.68V-3a.832.832,0,0,0-.189-.567.768.768,0,0,0-.609-.217H-5.894V0Zm1.694-5.306H-3.57a1.608,1.608,0,0,0,1.141-.385A1.339,1.339,0,0,0-2.016-6.72v-.126a1.369,1.369,0,0,0-.406-1.043A1.6,1.6,0,0,0-3.57-8.274H-5.894ZM3.01,0,.406-9.8H2.142L4.354-1.078h.2L6.776-9.8H8.512L5.894,0ZM8.386,0l2.688-9.8H14L16.688,0H14.952l-.588-2.24H10.71L10.122,0ZM11.1-3.78h2.87L12.656-8.75h-.238Zm-.21-6.706-.84-.644.448-.63a2.027,2.027,0,0,1,.518-.5,1.18,1.18,0,0,1,.658-.182,1.2,1.2,0,0,1,.553.112,2.288,2.288,0,0,1,.455.322q.154.14.3.252a.55.55,0,0,0,.343.112.478.478,0,0,0,.343-.126,2.025,2.025,0,0,0,.245-.28l.266-.378.84.658-.448.616a1.847,1.847,0,0,1-.5.5,1.18,1.18,0,0,1-.658.182,1.2,1.2,0,0,1-.553-.112,2.647,2.647,0,0,1-.469-.322q-.14-.126-.287-.245a.529.529,0,0,0-.343-.119.464.464,0,0,0-.343.133q-.133.133-.259.287ZM21.588.2A4.081,4.081,0,0,1,18.683-.819,3.8,3.8,0,0,1,17.6-3.738V-6.062a3.8,3.8,0,0,1,1.085-2.919A4.081,4.081,0,0,1,21.588-10,4.076,4.076,0,0,1,24.5-8.981a3.816,3.816,0,0,1,1.078,2.919v2.324A3.816,3.816,0,0,1,24.5-.819,4.076,4.076,0,0,1,21.588.2Zm0-1.512a2.242,2.242,0,0,0,1.7-.637A2.4,2.4,0,0,0,23.9-3.682V-6.118a2.4,2.4,0,0,0-.609-1.729,2.242,2.242,0,0,0-1.7-.637,2.223,2.223,0,0,0-1.687.637,2.4,2.4,0,0,0-.609,1.729v2.436A2.4,2.4,0,0,0,19.9-1.953,2.223,2.223,0,0,0,21.588-1.316ZM-28.217,13V3.2h3.15l1.9,8.666h.238L-21.007,3.2h3.136V13H-19.5V4.418h-.238L-21.637,13h-2.8l-1.9-8.582h-.238V13Zm12.292,0V3.2h1.694V13Zm3.626,0V3.2h3.22l2.31,8.666h.224V3.2h1.666V13H-8.085L-10.4,4.334h-.238V13Zm9.352,0V3.2H3.3V4.726h-4.55V7.3H2.9V8.828H-1.253v2.646h4.62V13Zm7.784,0V3.2H9.023a3.755,3.755,0,0,1,1.61.322,2.551,2.551,0,0,1,1.071.9,2.464,2.464,0,0,1,.385,1.393v.154a2.273,2.273,0,0,1-.434,1.456,2.569,2.569,0,0,1-1.05.8V8.45a1.187,1.187,0,0,1,.861.378,1.35,1.35,0,0,1,.315.938V13H10.1V10a.832.832,0,0,0-.189-.567A.768.768,0,0,0,9.3,9.22H6.531V13ZM6.531,7.694H8.855A1.608,1.608,0,0,0,10,7.309a1.339,1.339,0,0,0,.413-1.029V6.154A1.369,1.369,0,0,0,10,5.111a1.6,1.6,0,0,0-1.148-.385H6.531ZM13,13l2.688-9.8h2.926L21.3,13H19.565l-.588-2.24H15.323L14.735,13Zm2.716-3.78h2.87L17.269,4.25h-.238ZM22.547,13V3.2h1.694v8.274h4.592V13Z" transform="translate(14921 2025)"/>
    <path id="Caminho_870" data-name="Caminho 870" d="M-14.292,0V-10.908h-.324l-1.692,4H-18.72l2.574-5.688h4.158V0Zm4.914,2.646V1.422h.7A.732.732,0,0,0-7.848.594V.018h-.306a1.716,1.716,0,0,1-1.2-.432,1.416,1.416,0,0,1-.477-1.1,1.535,1.535,0,0,1,.477-1.17,1.676,1.676,0,0,1,1.2-.45,1.65,1.65,0,0,1,1.206.459A1.648,1.648,0,0,1-6.48-1.44V.63A1.782,1.782,0,0,1-8.5,2.646ZM-.108.252A6.972,6.972,0,0,1-2.655-.18,3.871,3.871,0,0,1-4.383-1.431,3.111,3.111,0,0,1-5-3.366v-.216A2.991,2.991,0,0,1-4.7-5.013,2.544,2.544,0,0,1-3.933-5.9a3.11,3.11,0,0,1,.873-.45v-.324a2.9,2.9,0,0,1-.828-.468,2.4,2.4,0,0,1-.675-.864,2.954,2.954,0,0,1-.261-1.3v-.216a2.737,2.737,0,0,1,.585-1.737,3.835,3.835,0,0,1,1.647-1.17,6.688,6.688,0,0,1,2.484-.423,6.688,6.688,0,0,1,2.484.423,3.835,3.835,0,0,1,1.647,1.17,2.737,2.737,0,0,1,.585,1.737v.216a2.954,2.954,0,0,1-.261,1.3,2.447,2.447,0,0,1-.666.864,2.718,2.718,0,0,1-.837.468v.324a2.927,2.927,0,0,1,.882.45,2.586,2.586,0,0,1,.756.891,2.991,2.991,0,0,1,.306,1.431v.216a3.111,3.111,0,0,1-.621,1.935A3.871,3.871,0,0,1,2.439-.18,6.972,6.972,0,0,1-.108.252Zm0-2.052a3.29,3.29,0,0,0,1.917-.477,1.481,1.481,0,0,0,.675-1.269V-3.69a1.493,1.493,0,0,0-.657-1.269A3.276,3.276,0,0,0-.108-5.436a3.283,3.283,0,0,0-1.926.477A1.487,1.487,0,0,0-2.7-3.69v.144a1.481,1.481,0,0,0,.675,1.269A3.29,3.29,0,0,0-.108-1.8Zm0-5.688A3.235,3.235,0,0,0,1.674-7.9a1.321,1.321,0,0,0,.63-1.17v-.144a1.312,1.312,0,0,0-.648-1.17A3.252,3.252,0,0,0-.108-10.8a3.252,3.252,0,0,0-1.764.414,1.312,1.312,0,0,0-.648,1.17v.144A1.321,1.321,0,0,0-1.89-7.9,3.235,3.235,0,0,0-.108-7.488ZM7.956.234,6.588-.864l9.684-11.97,1.368,1.1Zm7.6-.054A3,3,0,0,1,13.41-.549a2.6,2.6,0,0,1-.774-1.989v-.126a2.624,2.624,0,0,1,.774-2.007A3,3,0,0,1,15.552-5.4a3.014,3.014,0,0,1,2.124.729,2.592,2.592,0,0,1,.792,2.007v.126a2.6,2.6,0,0,1-.774,1.989A3,3,0,0,1,15.552.18Zm0-1.476a1.056,1.056,0,0,0,.819-.324,1.2,1.2,0,0,0,.3-.846v-.288a1.2,1.2,0,0,0-.3-.846,1.056,1.056,0,0,0-.819-.324,1.056,1.056,0,0,0-.819.324,1.2,1.2,0,0,0-.3.846v.288a1.2,1.2,0,0,0,.3.846A1.056,1.056,0,0,0,15.552-1.3ZM8.676-7.2a3,3,0,0,1-2.142-.729A2.6,2.6,0,0,1,5.76-9.918v-.126a2.624,2.624,0,0,1,.774-2.007,3,3,0,0,1,2.142-.729,3.014,3.014,0,0,1,2.124.729,2.592,2.592,0,0,1,.792,2.007v.126a2.6,2.6,0,0,1-.774,1.989A3,3,0,0,1,8.676-7.2Zm0-1.476A1.056,1.056,0,0,0,9.495-9a1.2,1.2,0,0,0,.3-.846v-.288a1.2,1.2,0,0,0-.3-.846,1.056,1.056,0,0,0-.819-.324,1.056,1.056,0,0,0-.819.324,1.2,1.2,0,0,0-.3.846v.288a1.2,1.2,0,0,0,.3.846A1.056,1.056,0,0,0,8.676-8.676Z" transform="translate(14921 2077)" fill="#ff7c10"/>
    <g transform="matrix(1, 0, 0, 1, 14453, 1518)" filter="url(#Elipse_26)">
      <ellipse id="Elipse_26-2" data-name="Elipse 26" cx="40" cy="39.5" rx="40" ry="39.5" transform="translate(507 397)" fill="#fff"/>
    </g>
    <path id="Caminho_868" data-name="Caminho 868" d="M-41.846,0V-9.8h1.694V0Zm3.626,0V-9.8h3.15l1.9,8.666h.238L-31.01-9.8h3.136V0H-29.5V-8.582h-.238L-31.64,0h-2.8l-1.9-8.582h-.238V0Zm12.292,0V-9.8h3.962a3.471,3.471,0,0,1,1.624.364,2.765,2.765,0,0,1,1.106,1.029,2.963,2.963,0,0,1,.406,1.575v.2a2.934,2.934,0,0,1-.413,1.568,2.787,2.787,0,0,1-1.12,1.036,3.451,3.451,0,0,1-1.6.364h-2.268V0Zm1.694-5.194h2.1a1.694,1.694,0,0,0,1.169-.392,1.368,1.368,0,0,0,.441-1.078V-6.8a1.379,1.379,0,0,0-.434-1.078,1.689,1.689,0,0,0-1.176-.392h-2.1ZM-13.734.2A4.081,4.081,0,0,1-16.639-.819a3.8,3.8,0,0,1-1.085-2.919V-6.062a3.8,3.8,0,0,1,1.085-2.919A4.081,4.081,0,0,1-13.734-10a4.076,4.076,0,0,1,2.912,1.015A3.816,3.816,0,0,1-9.744-6.062v2.324A3.816,3.816,0,0,1-10.822-.819,4.076,4.076,0,0,1-13.734.2Zm0-1.512a2.242,2.242,0,0,0,1.7-.637,2.4,2.4,0,0,0,.609-1.729V-6.118a2.4,2.4,0,0,0-.609-1.729,2.242,2.242,0,0,0-1.7-.637,2.223,2.223,0,0,0-1.687.637,2.4,2.4,0,0,0-.609,1.729v2.436a2.4,2.4,0,0,0,.609,1.729A2.223,2.223,0,0,0-13.734-1.316ZM-8.05,0V-9.8h4.186a3.755,3.755,0,0,1,1.61.322,2.551,2.551,0,0,1,1.071.9A2.464,2.464,0,0,1-.8-7.182v.154a2.273,2.273,0,0,1-.434,1.456,2.569,2.569,0,0,1-1.05.8v.224a1.187,1.187,0,0,1,.861.378,1.35,1.35,0,0,1,.315.938V0h-1.68V-3a.832.832,0,0,0-.189-.567.768.768,0,0,0-.609-.217H-6.356V0Zm1.694-5.306h2.324a1.608,1.608,0,0,0,1.141-.385A1.339,1.339,0,0,0-2.478-6.72v-.126a1.369,1.369,0,0,0-.406-1.043,1.6,1.6,0,0,0-1.148-.385H-6.356ZM2.94,0V-8.274H.014V-9.8H7.546v1.526H4.62V0Zm4.3,0L9.926-9.8h2.926L15.54,0H13.8l-.588-2.24H9.562L8.974,0ZM9.954-3.78h2.87L11.508-8.75H11.27ZM20.37.2A3.966,3.966,0,0,1,17.514-.819,3.844,3.844,0,0,1,16.45-3.738V-6.062a3.844,3.844,0,0,1,1.064-2.919A3.966,3.966,0,0,1,20.37-10a3.724,3.724,0,0,1,2.765.98,3.647,3.647,0,0,1,.973,2.688v.084H22.456V-6.37a2.249,2.249,0,0,0-.511-1.519,1.964,1.964,0,0,0-1.575-.6,2.123,2.123,0,0,0-1.631.637,2.473,2.473,0,0,0-.595,1.757v2.38a2.478,2.478,0,0,0,.595,1.75,2.111,2.111,0,0,0,1.631.644,1.964,1.964,0,0,0,1.575-.6,2.249,2.249,0,0,0,.511-1.519v-.238h1.652v.2a3.647,3.647,0,0,1-.973,2.688A3.724,3.724,0,0,1,20.37.2Zm0,2.772a3.991,3.991,0,0,1-.861-.091,4.437,4.437,0,0,1-.721-.217l.308-.966a5.008,5.008,0,0,0,.546.175,2.6,2.6,0,0,0,.658.077,1.011,1.011,0,0,0,.469-.1.336.336,0,0,0,.189-.322.319.319,0,0,0-.168-.294,1.06,1.06,0,0,0-.518-.1H19.74L19.852-.28h1.106l-.07.854a1.4,1.4,0,0,1,.9.287,1.022,1.022,0,0,1,.357.847,1.027,1.027,0,0,1-.252.714,1.486,1.486,0,0,1-.658.413A2.771,2.771,0,0,1,20.37,2.968ZM24.892,0,27.58-9.8h2.926L33.194,0H31.458L30.87-2.24H27.216L26.628,0Zm2.716-3.78h2.87L29.162-8.75h-.238Zm-.21-6.706-.84-.644.448-.63a2.027,2.027,0,0,1,.518-.5,1.18,1.18,0,0,1,.658-.182,1.2,1.2,0,0,1,.553.112,2.288,2.288,0,0,1,.455.322q.154.14.3.252a.55.55,0,0,0,.343.112.478.478,0,0,0,.343-.126,2.025,2.025,0,0,0,.245-.28l.266-.378.84.658-.448.616a1.847,1.847,0,0,1-.5.5,1.18,1.18,0,0,1-.658.182,1.2,1.2,0,0,1-.553-.112,2.647,2.647,0,0,1-.469-.322q-.14-.126-.287-.245a.529.529,0,0,0-.343-.119.464.464,0,0,0-.343.133q-.133.133-.259.287ZM38.094.2a4.081,4.081,0,0,1-2.9-1.015A3.8,3.8,0,0,1,34.1-3.738V-6.062a3.8,3.8,0,0,1,1.085-2.919A4.081,4.081,0,0,1,38.094-10a4.076,4.076,0,0,1,2.912,1.015,3.816,3.816,0,0,1,1.078,2.919v2.324A3.816,3.816,0,0,1,41.006-.819,4.076,4.076,0,0,1,38.094.2Zm0-1.512a2.242,2.242,0,0,0,1.7-.637A2.4,2.4,0,0,0,40.4-3.682V-6.118A2.4,2.4,0,0,0,39.8-7.847a2.242,2.242,0,0,0-1.7-.637,2.223,2.223,0,0,0-1.687.637A2.4,2.4,0,0,0,35.8-6.118v2.436a2.4,2.4,0,0,0,.609,1.729A2.223,2.223,0,0,0,38.094-1.316Z" transform="translate(15000 1952)"/>
    <path id="Caminho_867" data-name="Caminho 867" d="M-12.132,0V-2.556h-6.192V-5.22l4.356-7.38h4.14v7.992H-7.74v2.052H-9.828V0Zm-4-4.608h4v-6.516h-.324L-16.128-4.9ZM-5.922,2.646V1.422h.7A.732.732,0,0,0-4.392.594V.018H-4.7a1.716,1.716,0,0,1-1.2-.432,1.416,1.416,0,0,1-.477-1.1,1.535,1.535,0,0,1,.477-1.17,1.676,1.676,0,0,1,1.2-.45,1.65,1.65,0,0,1,1.206.459A1.648,1.648,0,0,1-3.024-1.44V.63A1.782,1.782,0,0,1-5.04,2.646ZM1.656,0V-10.908H1.332l-1.692,4H-2.772L-.2-12.6H3.96V0ZM7.812.234,6.444-.864l9.684-11.97,1.368,1.1Zm7.6-.054a3,3,0,0,1-2.142-.729,2.6,2.6,0,0,1-.774-1.989v-.126a2.624,2.624,0,0,1,.774-2.007A3,3,0,0,1,15.408-5.4a3.014,3.014,0,0,1,2.124.729,2.592,2.592,0,0,1,.792,2.007v.126A2.6,2.6,0,0,1,17.55-.549,3,3,0,0,1,15.408.18Zm0-1.476a1.056,1.056,0,0,0,.819-.324,1.2,1.2,0,0,0,.3-.846v-.288a1.2,1.2,0,0,0-.3-.846,1.056,1.056,0,0,0-.819-.324,1.056,1.056,0,0,0-.819.324,1.2,1.2,0,0,0-.3.846v.288a1.2,1.2,0,0,0,.3.846A1.056,1.056,0,0,0,15.408-1.3ZM8.532-7.2A3,3,0,0,1,6.39-7.929a2.6,2.6,0,0,1-.774-1.989v-.126a2.624,2.624,0,0,1,.774-2.007,3,3,0,0,1,2.142-.729,3.014,3.014,0,0,1,2.124.729,2.592,2.592,0,0,1,.792,2.007v.126a2.6,2.6,0,0,1-.774,1.989A3,3,0,0,1,8.532-7.2Zm0-1.476A1.056,1.056,0,0,0,9.351-9a1.2,1.2,0,0,0,.3-.846v-.288a1.2,1.2,0,0,0-.3-.846,1.056,1.056,0,0,0-.819-.324,1.056,1.056,0,0,0-.819.324,1.2,1.2,0,0,0-.3.846v.288a1.2,1.2,0,0,0,.3.846A1.056,1.056,0,0,0,8.532-8.676Z" transform="translate(15000 1970)" fill="#ff7c10"/>
    <g transform="matrix(1, 0, 0, 1, 14453, 1518)" filter="url(#Elipse_22)">
      <circle id="Elipse_22-2" data-name="Elipse 22" cx="39.5" cy="39.5" r="39.5" transform="translate(525 273)" fill="#fff"/>
    </g>
    <path id="Caminho_865" data-name="Caminho 865" d="M-32.816,0V-9.8h3.962a3.471,3.471,0,0,1,1.624.364,2.765,2.765,0,0,1,1.106,1.029,2.963,2.963,0,0,1,.406,1.575v.2a2.934,2.934,0,0,1-.413,1.568,2.787,2.787,0,0,1-1.12,1.036,3.451,3.451,0,0,1-1.6.364h-2.268V0Zm1.694-5.194h2.1a1.694,1.694,0,0,0,1.169-.392,1.368,1.368,0,0,0,.441-1.078V-6.8a1.379,1.379,0,0,0-.434-1.078,1.689,1.689,0,0,0-1.176-.392h-2.1ZM-24.374,0V-9.8h6.244v1.526h-4.55V-5.7h4.158v1.526H-22.68v2.646h4.62V0ZM-14.28,0V-8.274h-2.926V-9.8h7.532v1.526H-12.6V0Zm5.922,0V-9.8h4.186a3.755,3.755,0,0,1,1.61.322,2.551,2.551,0,0,1,1.071.9,2.464,2.464,0,0,1,.385,1.393v.154A2.273,2.273,0,0,1-1.54-5.572a2.569,2.569,0,0,1-1.05.8v.224a1.187,1.187,0,0,1,.861.378,1.35,1.35,0,0,1,.315.938V0h-1.68V-3a.832.832,0,0,0-.189-.567.768.768,0,0,0-.609-.217H-6.664V0Zm1.694-5.306H-4.34A1.608,1.608,0,0,0-3.2-5.691,1.339,1.339,0,0,0-2.786-6.72v-.126a1.369,1.369,0,0,0-.406-1.043A1.6,1.6,0,0,0-4.34-8.274H-6.664ZM4.242.2A4.081,4.081,0,0,1,1.337-.819,3.8,3.8,0,0,1,.252-3.738V-6.062A3.8,3.8,0,0,1,1.337-8.981,4.081,4.081,0,0,1,4.242-10,4.076,4.076,0,0,1,7.154-8.981,3.816,3.816,0,0,1,8.232-6.062v2.324A3.816,3.816,0,0,1,7.154-.819,4.076,4.076,0,0,1,4.242.2Zm0-1.512a2.242,2.242,0,0,0,1.7-.637,2.4,2.4,0,0,0,.609-1.729V-6.118a2.4,2.4,0,0,0-.609-1.729,2.242,2.242,0,0,0-1.7-.637,2.223,2.223,0,0,0-1.687.637,2.4,2.4,0,0,0-.609,1.729v2.436a2.4,2.4,0,0,0,.609,1.729A2.223,2.223,0,0,0,4.242-1.316Zm-1.022-9.3L4.2-12.4H6.076l-1.4,1.792ZM9.926,0V-9.8H11.62v8.274h4.592V0Zm7.6,0V-9.8h6.244v1.526h-4.55V-5.7H23.38v1.526H19.222v2.646h4.62V0ZM29.064.2A4.081,4.081,0,0,1,26.159-.819a3.8,3.8,0,0,1-1.085-2.919V-6.062a3.8,3.8,0,0,1,1.085-2.919A4.081,4.081,0,0,1,29.064-10a4.076,4.076,0,0,1,2.912,1.015,3.816,3.816,0,0,1,1.078,2.919v2.324A3.816,3.816,0,0,1,31.976-.819,4.076,4.076,0,0,1,29.064.2Zm0-1.512a2.242,2.242,0,0,0,1.7-.637,2.4,2.4,0,0,0,.609-1.729V-6.118a2.4,2.4,0,0,0-.609-1.729,2.242,2.242,0,0,0-1.7-.637,2.223,2.223,0,0,0-1.687.637,2.4,2.4,0,0,0-.609,1.729v2.436a2.4,2.4,0,0,0,.609,1.729A2.223,2.223,0,0,0,29.064-1.316Z" transform="translate(15017 1828)"/>
    <path id="Caminho_866" data-name="Caminho 866" d="M-13.932,0V-2.556h-6.192V-5.22l4.356-7.38h4.14v7.992H-9.54v2.052h-2.088V0Zm-4-4.608h4v-6.516h-.324L-17.928-4.9ZM-7.722,2.646V1.422h.7A.732.732,0,0,0-6.192.594V.018H-6.5A1.716,1.716,0,0,1-7.7-.414a1.416,1.416,0,0,1-.477-1.1A1.535,1.535,0,0,1-7.7-2.682a1.676,1.676,0,0,1,1.2-.45,1.65,1.65,0,0,1,1.206.459A1.648,1.648,0,0,1-4.824-1.44V.63A1.782,1.782,0,0,1-6.84,2.646ZM1.6.252A5.759,5.759,0,0,1-.945-.27,3.831,3.831,0,0,1-2.592-1.746,4.2,4.2,0,0,1-3.168-3.96v-.18h2.34v.162a2.162,2.162,0,0,0,.6,1.539A2.348,2.348,0,0,0,1.566-1.8a2.472,2.472,0,0,0,1.827-.639A2.252,2.252,0,0,0,4.032-4.1v-.18a2.081,2.081,0,0,0-.639-1.6A2.25,2.25,0,0,0,1.8-6.48a2.24,2.24,0,0,0-.864.144,1.724,1.724,0,0,0-.558.36,2.861,2.861,0,0,0-.36.432h-2.79V-12.6h8.6v2.088h-6.3v3.078h.324a2.224,2.224,0,0,1,.486-.45,2.7,2.7,0,0,1,.792-.36,4.08,4.08,0,0,1,1.152-.144A4.413,4.413,0,0,1,4.32-7.92,3.6,3.6,0,0,1,5.787-6.543,4.263,4.263,0,0,1,6.336-4.3v.216a4.493,4.493,0,0,1-.567,2.3A3.8,3.8,0,0,1,4.14-.279,5.619,5.619,0,0,1,1.6.252ZM9.612.234,8.244-.864l9.684-11.97,1.368,1.1Zm7.6-.054a3,3,0,0,1-2.142-.729,2.6,2.6,0,0,1-.774-1.989v-.126a2.624,2.624,0,0,1,.774-2.007A3,3,0,0,1,17.208-5.4a3.014,3.014,0,0,1,2.124.729,2.592,2.592,0,0,1,.792,2.007v.126A2.6,2.6,0,0,1,19.35-.549,3,3,0,0,1,17.208.18Zm0-1.476a1.056,1.056,0,0,0,.819-.324,1.2,1.2,0,0,0,.3-.846v-.288a1.2,1.2,0,0,0-.3-.846,1.056,1.056,0,0,0-.819-.324,1.056,1.056,0,0,0-.819.324,1.2,1.2,0,0,0-.3.846v.288a1.2,1.2,0,0,0,.3.846A1.056,1.056,0,0,0,17.208-1.3ZM10.332-7.2A3,3,0,0,1,8.19-7.929a2.6,2.6,0,0,1-.774-1.989v-.126a2.624,2.624,0,0,1,.774-2.007,3,3,0,0,1,2.142-.729,3.014,3.014,0,0,1,2.124.729,2.592,2.592,0,0,1,.792,2.007v.126a2.6,2.6,0,0,1-.774,1.989A3,3,0,0,1,10.332-7.2Zm0-1.476A1.056,1.056,0,0,0,11.151-9a1.2,1.2,0,0,0,.3-.846v-.288a1.2,1.2,0,0,0-.3-.846,1.056,1.056,0,0,0-.819-.324,1.056,1.056,0,0,0-.819.324,1.2,1.2,0,0,0-.3.846v.288a1.2,1.2,0,0,0,.3.846A1.056,1.056,0,0,0,10.332-8.676Z" transform="translate(15017 1846)" fill="#ff7c10"/>
    <g transform="matrix(1, 0, 0, 1, 14453, 1518)" filter="url(#Elipse_19)">
      <circle id="Elipse_19-2" data-name="Elipse 19" cx="57" cy="57" r="57" transform="translate(207 14)" fill="#fff"/>
    </g>
    <path id="Caminho_860" data-name="Caminho 860" d="M-10.216.224a4.291,4.291,0,0,1-2.12-.52,3.783,3.783,0,0,1-1.488-1.52,5.022,5.022,0,0,1-.552-2.456V-6.928a4.394,4.394,0,0,1,1.216-3.336A4.532,4.532,0,0,1-9.9-11.424a4.283,4.283,0,0,1,3.152,1.1,3.973,3.973,0,0,1,1.1,2.952v.064H-7.528V-7.44a2.54,2.54,0,0,0-.256-1.152A1.876,1.876,0,0,0-8.568-9.4,2.689,2.689,0,0,0-9.9-9.7a2.426,2.426,0,0,0-1.864.728,2.826,2.826,0,0,0-.68,2.008v2.72a2.892,2.892,0,0,0,.68,2.016,2.426,2.426,0,0,0,1.9.752,2.212,2.212,0,0,0,1.776-.656,2.5,2.5,0,0,0,.56-1.68V-4H-10.36V-5.632h4.72V0H-7.4V-1.1h-.272a2.443,2.443,0,0,1-.4.6,2.041,2.041,0,0,1-.776.52A3.668,3.668,0,0,1-10.216.224ZM-4.312,0-1.24-11.2H2.1L5.176,0H3.192L2.52-2.56H-1.656L-2.328,0Zm3.1-4.32h3.28L.568-10H.3Zm.464-7.808,1.12-2.048H2.52L.92-12.128ZM10.44.224A5.329,5.329,0,0,1,8.176-.232a3.6,3.6,0,0,1-1.544-1.32,3.8,3.8,0,0,1-.56-2.112V-4.08h1.9v.416a1.994,1.994,0,0,0,.672,1.648,2.763,2.763,0,0,0,1.792.544,2.686,2.686,0,0,0,1.712-.464,1.47,1.47,0,0,0,.576-1.2,1.185,1.185,0,0,0-.272-.808,1.9,1.9,0,0,0-.792-.5,11.2,11.2,0,0,0-1.256-.368l-.48-.1A9.1,9.1,0,0,1,8.016-5.56a3.122,3.122,0,0,1-1.24-1.016,2.811,2.811,0,0,1-.432-1.632,3.043,3.043,0,0,1,.48-1.728,3.053,3.053,0,0,1,1.36-1.1,5.127,5.127,0,0,1,2.064-.384,5.289,5.289,0,0,1,2.112.4,3.281,3.281,0,0,1,1.464,1.2,3.516,3.516,0,0,1,.536,2V-7.3h-1.9v-.528a1.99,1.99,0,0,0-.272-1.1,1.563,1.563,0,0,0-.768-.608,3.229,3.229,0,0,0-1.168-.192,2.483,2.483,0,0,0-1.5.384,1.28,1.28,0,0,0-.512,1.088,1.238,1.238,0,0,0,.232.76,1.666,1.666,0,0,0,.688.512A5.9,5.9,0,0,0,10.3-6.64l.48.112a10.3,10.3,0,0,1,2.016.648,3.448,3.448,0,0,1,1.352,1.032,2.67,2.67,0,0,1,.488,1.664,3.092,3.092,0,0,1-.52,1.776,3.461,3.461,0,0,1-1.456,1.2A5.248,5.248,0,0,1,10.44.224ZM-33.3,14V2.8h3.68l2.64,9.9h.256V2.8h1.9V14h-3.664l-2.64-9.9H-31.4V14Zm9.9,0,3.072-11.2h3.344L-13.912,14H-15.9l-.672-2.56h-4.176L-21.416,14Zm3.1-4.32h3.28L-18.52,4h-.272ZM-10.92,14V4.544h-3.344V2.8h8.608V4.544H-9V14ZM.1,14.224a5.083,5.083,0,0,1-2.312-.488A3.44,3.44,0,0,1-3.7,12.32a4.447,4.447,0,0,1-.52-2.208V2.8H-2.3v7.36a2.3,2.3,0,0,0,.624,1.728A2.44,2.44,0,0,0,.1,12.5a2.435,2.435,0,0,0,1.784-.608A2.32,2.32,0,0,0,2.5,10.16V2.8h1.92v7.312a4.5,4.5,0,0,1-.512,2.208,3.383,3.383,0,0,1-1.488,1.416A5.133,5.133,0,0,1,.1,14.224ZM6.584,14V2.8h4.784a4.291,4.291,0,0,1,1.84.368A2.915,2.915,0,0,1,14.432,4.2a2.816,2.816,0,0,1,.44,1.592v.176a2.6,2.6,0,0,1-.5,1.664,2.936,2.936,0,0,1-1.2.912V8.8a1.356,1.356,0,0,1,.984.432,1.542,1.542,0,0,1,.36,1.072V14H12.6V10.576a.951.951,0,0,0-.216-.648.878.878,0,0,0-.7-.248H8.52V14ZM8.52,7.936h2.656a1.838,1.838,0,0,0,1.3-.44,1.531,1.531,0,0,0,.472-1.176V6.176a1.565,1.565,0,0,0-.464-1.192,1.832,1.832,0,0,0-1.312-.44H8.52ZM15.912,14,18.984,2.8h3.344L25.4,14H23.416l-.672-2.56H18.568L17.9,14Zm3.1-4.32H22.3L20.792,4H20.52ZM26.824,14V2.8H28.76v9.456h5.248V14Z" transform="translate(14717 1577)"/>
    <path id="Caminho_859" data-name="Caminho 859" d="M-17.424.336a9.3,9.3,0,0,1-3.4-.576,5.162,5.162,0,0,1-2.3-1.668,4.148,4.148,0,0,1-.828-2.58v-.288a3.988,3.988,0,0,1,.408-1.908,3.392,3.392,0,0,1,1.02-1.188,4.147,4.147,0,0,1,1.164-.6V-8.9a3.866,3.866,0,0,1-1.1-.624,3.2,3.2,0,0,1-.9-1.152,3.939,3.939,0,0,1-.348-1.728V-12.7a3.649,3.649,0,0,1,.78-2.316,5.113,5.113,0,0,1,2.2-1.56,8.918,8.918,0,0,1,3.312-.564,8.918,8.918,0,0,1,3.312.564,5.113,5.113,0,0,1,2.2,1.56,3.649,3.649,0,0,1,.78,2.316v.288a3.939,3.939,0,0,1-.348,1.728,3.263,3.263,0,0,1-.888,1.152,3.625,3.625,0,0,1-1.116.624v.432a3.9,3.9,0,0,1,1.176.6A3.448,3.448,0,0,1-11.3-6.684,3.988,3.988,0,0,1-10.9-4.776v.288a4.148,4.148,0,0,1-.828,2.58,5.162,5.162,0,0,1-2.3,1.668A9.3,9.3,0,0,1-17.424.336Zm0-2.736a4.387,4.387,0,0,0,2.556-.636,1.975,1.975,0,0,0,.9-1.692V-4.92a1.991,1.991,0,0,0-.876-1.692,4.368,4.368,0,0,0-2.58-.636,4.377,4.377,0,0,0-2.568.636A1.983,1.983,0,0,0-20.88-4.92v.192a1.975,1.975,0,0,0,.9,1.692A4.387,4.387,0,0,0-17.424-2.4Zm0-7.584a4.314,4.314,0,0,0,2.376-.552,1.762,1.762,0,0,0,.84-1.56v-.192a1.75,1.75,0,0,0-.864-1.56,4.336,4.336,0,0,0-2.352-.552,4.336,4.336,0,0,0-2.352.552,1.75,1.75,0,0,0-.864,1.56v.192a1.762,1.762,0,0,0,.84,1.56A4.314,4.314,0,0,0-17.424-9.984Zm9.1,13.512V1.9h.936a.976.976,0,0,0,1.1-1.1V.024H-6.7a2.288,2.288,0,0,1-1.6-.576,1.888,1.888,0,0,1-.636-1.464,2.047,2.047,0,0,1,.636-1.56,2.234,2.234,0,0,1,1.6-.6,2.2,2.2,0,0,1,1.608.612A2.2,2.2,0,0,1-4.464-1.92V.84A2.376,2.376,0,0,1-7.152,3.528ZM1.776,0V-14.544H1.344L-.912-9.216H-4.128L-.7-16.8H4.848V0ZM9.984.312,8.16-1.152l12.912-15.96L22.9-15.648ZM20.112.24a4,4,0,0,1-2.856-.972,3.468,3.468,0,0,1-1.032-2.652v-.168a3.5,3.5,0,0,1,1.032-2.676A4,4,0,0,1,20.112-7.2a4.018,4.018,0,0,1,2.832.972A3.456,3.456,0,0,1,24-3.552v.168A3.468,3.468,0,0,1,22.968-.732,4,4,0,0,1,20.112.24Zm0-1.968A1.407,1.407,0,0,0,21.2-2.16a1.6,1.6,0,0,0,.4-1.128v-.384A1.6,1.6,0,0,0,21.2-4.8a1.407,1.407,0,0,0-1.092-.432A1.407,1.407,0,0,0,19.02-4.8a1.6,1.6,0,0,0-.4,1.128v.384a1.6,1.6,0,0,0,.4,1.128A1.407,1.407,0,0,0,20.112-1.728ZM10.944-9.6a4,4,0,0,1-2.856-.972,3.468,3.468,0,0,1-1.032-2.652v-.168a3.5,3.5,0,0,1,1.032-2.676,4,4,0,0,1,2.856-.972,4.018,4.018,0,0,1,2.832.972,3.456,3.456,0,0,1,1.056,2.676v.168A3.468,3.468,0,0,1,13.8-10.572,4,4,0,0,1,10.944-9.6Zm0-1.968A1.407,1.407,0,0,0,12.036-12a1.6,1.6,0,0,0,.4-1.128v-.384a1.6,1.6,0,0,0-.4-1.128,1.407,1.407,0,0,0-1.092-.432,1.407,1.407,0,0,0-1.092.432,1.6,1.6,0,0,0-.4,1.128v.384A1.6,1.6,0,0,0,9.852-12,1.407,1.407,0,0,0,10.944-11.568Z" transform="translate(14717 1615)" fill="#ff7c10"/>
    <path id="Caminho_872" data-name="Caminho 872" d="M-29.456,0V-9.8h3.22l2.31,8.666h.224V-9.8h1.666V0h-3.206l-2.31-8.666h-.238V0ZM-16.38.2A4.447,4.447,0,0,1-18.4-.231,3.01,3.01,0,0,1-19.7-1.47,3.891,3.891,0,0,1-20.16-3.4V-9.8h1.68v6.44a2.015,2.015,0,0,0,.546,1.512,2.135,2.135,0,0,0,1.554.532,2.131,2.131,0,0,0,1.561-.532A2.03,2.03,0,0,0-14.28-3.36V-9.8h1.68v6.4a3.941,3.941,0,0,1-.448,1.932,2.96,2.96,0,0,1-1.3,1.239A4.492,4.492,0,0,1-16.38.2Zm9.352,0A3.966,3.966,0,0,1-9.884-.819a3.844,3.844,0,0,1-1.064-2.919V-6.062A3.844,3.844,0,0,1-9.884-8.981,3.966,3.966,0,0,1-7.028-10a3.724,3.724,0,0,1,2.765.98A3.647,3.647,0,0,1-3.29-6.328v.084H-4.942V-6.37a2.249,2.249,0,0,0-.511-1.519,1.964,1.964,0,0,0-1.575-.6,2.123,2.123,0,0,0-1.631.637,2.473,2.473,0,0,0-.6,1.757v2.38a2.478,2.478,0,0,0,.6,1.75,2.111,2.111,0,0,0,1.631.644,1.964,1.964,0,0,0,1.575-.6A2.249,2.249,0,0,0-4.942-3.43v-.238H-3.29v.2A3.647,3.647,0,0,1-4.263-.784,3.724,3.724,0,0,1-7.028.2Zm5.32-.2V-9.8H-.014v8.274H4.578V0Zm7.6,0V-9.8h6.244v1.526H7.588V-5.7h4.158v1.526H7.588v2.646h4.62V0Zm7.1,0L15.68-9.8h2.926L21.294,0H19.558L18.97-2.24H15.316L14.728,0Zm2.716-3.78h2.87L17.262-8.75h-.238ZM22.54,0V-9.8h4.186a3.755,3.755,0,0,1,1.61.322,2.551,2.551,0,0,1,1.071.9,2.464,2.464,0,0,1,.385,1.393v.154a2.273,2.273,0,0,1-.434,1.456,2.569,2.569,0,0,1-1.05.8v.224a1.187,1.187,0,0,1,.861.378,1.35,1.35,0,0,1,.315.938V0H27.8V-3a.832.832,0,0,0-.189-.567.768.768,0,0,0-.609-.217H24.234V0Zm1.694-5.306h2.324A1.608,1.608,0,0,0,27.7-5.691a1.339,1.339,0,0,0,.413-1.029v-.126a1.369,1.369,0,0,0-.406-1.043,1.6,1.6,0,0,0-1.148-.385H24.234Z" transform="translate(14801 2084)"/>
    <path id="Caminho_858" data-name="Caminho 858" d="M-25.3,0V-11.2h7.136v1.744h-5.2v2.944h4.752v1.744H-23.36v3.024h5.28V0Zm13.184.224a4.664,4.664,0,0,1-3.32-1.16,4.346,4.346,0,0,1-1.24-3.336V-6.928a4.346,4.346,0,0,1,1.24-3.336,4.664,4.664,0,0,1,3.32-1.16,4.658,4.658,0,0,1,3.328,1.16A4.362,4.362,0,0,1-7.552-6.928v2.656A4.362,4.362,0,0,1-8.784-.936,4.658,4.658,0,0,1-12.112.224Zm0-1.728a2.562,2.562,0,0,0,1.944-.728,2.741,2.741,0,0,0,.7-1.976V-6.992a2.741,2.741,0,0,0-.7-1.976A2.562,2.562,0,0,0-12.112-9.7a2.541,2.541,0,0,0-1.928.728,2.741,2.741,0,0,0-.7,1.976v2.784a2.741,2.741,0,0,0,.7,1.976A2.541,2.541,0,0,0-12.112-1.5ZM-13.28-12.128l1.12-2.048h2.144l-1.6,2.048ZM-5.616,0V-11.2H-3.68v9.456H1.568V0ZM3.072,0V-11.2H5.008V0Zm8.352.224A4.532,4.532,0,0,1,8.16-.936,4.394,4.394,0,0,1,6.944-4.272V-6.928A4.394,4.394,0,0,1,8.16-10.264a4.532,4.532,0,0,1,3.264-1.16,4.257,4.257,0,0,1,3.16,1.12A4.168,4.168,0,0,1,15.7-7.232v.1H13.808V-7.28a2.57,2.57,0,0,0-.584-1.736,2.245,2.245,0,0,0-1.8-.68,2.426,2.426,0,0,0-1.864.728A2.826,2.826,0,0,0,8.88-6.96v2.72a2.832,2.832,0,0,0,.68,2,2.413,2.413,0,0,0,1.864.736,2.245,2.245,0,0,0,1.8-.68,2.57,2.57,0,0,0,.584-1.736v-.272H15.7v.224A4.168,4.168,0,0,1,14.584-.9,4.257,4.257,0,0,1,11.424.224ZM16.592,0l3.072-11.2h3.344L26.08,0H24.1l-.672-2.56H19.248L18.576,0Zm3.1-4.32h3.28L21.472-10H21.2Z" transform="translate(14548 1654)"/>
    <path id="Caminho_874" data-name="Caminho 874" d="M-36.01,0V-14h2.42v5.88h5.52V-14h2.42V0h-2.42V-5.92h-5.52V0Zm13.12,0V-14h2.42V0Zm-.26-15.16,1.4-2.56h2.68l-2,2.56ZM-18.17,0V-2.12h1.88v-9.76h-1.88V-14h5.7a5.944,5.944,0,0,1,4.28,1.42A5.643,5.643,0,0,1-6.71-8.32v2.64A5.643,5.643,0,0,1-8.19-1.42,5.944,5.944,0,0,1-12.47,0Zm4.28-2.18h1.44a3.288,3.288,0,0,0,2.52-.88A3.592,3.592,0,0,0-9.11-5.6V-8.38a3.617,3.617,0,0,0-.82-2.57,3.31,3.31,0,0,0-2.52-.87h-1.44ZM-4.41,0V-14H1.57a5.364,5.364,0,0,1,2.3.46A3.644,3.644,0,0,1,5.4-12.25a3.52,3.52,0,0,1,.55,1.99v.22a3.248,3.248,0,0,1-.62,2.08,3.67,3.67,0,0,1-1.5,1.14v.32a1.7,1.7,0,0,1,1.23.54,1.928,1.928,0,0,1,.45,1.34V0H3.11V-4.28a1.189,1.189,0,0,0-.27-.81,1.1,1.1,0,0,0-.87-.31H-1.99V0Zm2.42-7.58H1.33a2.3,2.3,0,0,0,1.63-.55A1.914,1.914,0,0,0,3.55-9.6v-.18a1.956,1.956,0,0,0-.58-1.49,2.29,2.29,0,0,0-1.64-.55H-1.99ZM8.23,0V-14h2.42V0ZM18.67.28a5.665,5.665,0,0,1-4.08-1.45,5.492,5.492,0,0,1-1.52-4.17V-8.66a5.492,5.492,0,0,1,1.52-4.17,5.665,5.665,0,0,1,4.08-1.45,5.321,5.321,0,0,1,3.95,1.4,5.21,5.21,0,0,1,1.39,3.84v.12H21.65V-9.1a3.213,3.213,0,0,0-.73-2.17,2.806,2.806,0,0,0-2.25-.85,3.033,3.033,0,0,0-2.33.91,3.533,3.533,0,0,0-.85,2.51v3.4a3.54,3.54,0,0,0,.85,2.5,3.016,3.016,0,0,0,2.33.92,2.806,2.806,0,0,0,2.25-.85,3.213,3.213,0,0,0,.73-2.17v-.34h2.36v.28a5.21,5.21,0,0,1-1.39,3.84A5.321,5.321,0,0,1,18.67.28ZM25.13,0l3.84-14h4.18L36.99,0H34.51l-.84-3.2H28.45L27.61,0Zm3.88-5.4h4.1l-1.88-7.1h-.34Z" transform="translate(14761 1842)"/>
    <path id="Caminho_857" data-name="Caminho 857" d="M-25.728,0V-14.544h-.432l-2.256,5.328h-3.216L-28.2-16.8h5.544V0ZM-13.3.336a6.807,6.807,0,0,1-4.776-1.644,6.417,6.417,0,0,1-1.8-4.98v-4.224a6.445,6.445,0,0,1,1.8-4.932A6.69,6.69,0,0,1-13.3-17.136a6.68,6.68,0,0,1,4.788,1.692A6.47,6.47,0,0,1-6.72-10.512v4.224a6.441,6.441,0,0,1-1.788,4.98A6.8,6.8,0,0,1-13.3.336Zm0-2.736a3.324,3.324,0,0,0,2.652-.984,4.163,4.163,0,0,0,.852-2.808v-4.464a3.791,3.791,0,0,0-.948-2.8A3.454,3.454,0,0,0-13.3-14.4a3.367,3.367,0,0,0-2.58.984,3.876,3.876,0,0,0-.924,2.76v4.464a4.062,4.062,0,0,0,.876,2.844A3.407,3.407,0,0,0-13.3-2.4Zm9.384,5.928V1.9h.936a.976.976,0,0,0,1.1-1.1V.024H-2.28a2.288,2.288,0,0,1-1.6-.576,1.888,1.888,0,0,1-.636-1.464,2.047,2.047,0,0,1,.636-1.56,2.234,2.234,0,0,1,1.6-.6,2.2,2.2,0,0,1,1.608.612A2.2,2.2,0,0,1-.048-1.92V.84A2.376,2.376,0,0,1-2.736,3.528ZM3.576,0V-.624a7.6,7.6,0,0,1,.144-1.6,5.459,5.459,0,0,1,.624-1.5l5.64-9.96v-.384H1.056V-16.8h12.1v3.648L7.2-2.52a4.509,4.509,0,0,0-.432.984A4,4,0,0,0,6.648-.48V0Zm13.7.312L15.456-1.152l12.912-15.96,1.824,1.464ZM27.408.24a4,4,0,0,1-2.856-.972A3.468,3.468,0,0,1,23.52-3.384v-.168a3.5,3.5,0,0,1,1.032-2.676A4,4,0,0,1,27.408-7.2a4.018,4.018,0,0,1,2.832.972A3.456,3.456,0,0,1,31.3-3.552v.168A3.468,3.468,0,0,1,30.264-.732,4,4,0,0,1,27.408.24Zm0-1.968A1.407,1.407,0,0,0,28.5-2.16a1.6,1.6,0,0,0,.4-1.128v-.384A1.6,1.6,0,0,0,28.5-4.8a1.407,1.407,0,0,0-1.092-.432,1.407,1.407,0,0,0-1.092.432,1.6,1.6,0,0,0-.4,1.128v.384a1.6,1.6,0,0,0,.4,1.128A1.407,1.407,0,0,0,27.408-1.728ZM18.24-9.6a4,4,0,0,1-2.856-.972,3.468,3.468,0,0,1-1.032-2.652v-.168a3.5,3.5,0,0,1,1.032-2.676,4,4,0,0,1,2.856-.972,4.018,4.018,0,0,1,2.832.972,3.456,3.456,0,0,1,1.056,2.676v.168A3.468,3.468,0,0,1,21.1-10.572,4,4,0,0,1,18.24-9.6Zm0-1.968A1.407,1.407,0,0,0,19.332-12a1.6,1.6,0,0,0,.4-1.128v-.384a1.6,1.6,0,0,0-.4-1.128,1.407,1.407,0,0,0-1.092-.432,1.407,1.407,0,0,0-1.092.432,1.6,1.6,0,0,0-.4,1.128v.384a1.6,1.6,0,0,0,.4,1.128A1.407,1.407,0,0,0,18.24-11.568Z" transform="translate(14548 1678)" fill="#ff7c10"/>
    <path id="Caminho_873" data-name="Caminho 873" d="M-34.35.42a9.6,9.6,0,0,1-4.245-.87A6.385,6.385,0,0,1-41.34-2.91,7,7,0,0,1-42.3-6.6v-.3h3.9v.27a3.6,3.6,0,0,0,1.005,2.565A3.913,3.913,0,0,0-34.41-3a4.12,4.12,0,0,0,3.045-1.065A3.754,3.754,0,0,0-30.3-6.84v-.3a3.469,3.469,0,0,0-1.065-2.67,3.75,3.75,0,0,0-2.655-.99,3.733,3.733,0,0,0-1.44.24,2.873,2.873,0,0,0-.93.6,4.768,4.768,0,0,0-.6.72h-4.65V-21H-27.3v3.48H-37.8v5.13h.54a3.707,3.707,0,0,1,.81-.75,4.507,4.507,0,0,1,1.32-.6,6.8,6.8,0,0,1,1.92-.24,7.354,7.354,0,0,1,3.39.78,6,6,0,0,1,2.445,2.3A7.106,7.106,0,0,1-26.46-7.17v.36A7.488,7.488,0,0,1-27.4-2.97,6.341,6.341,0,0,1-30.12-.465,9.365,9.365,0,0,1-34.35.42ZM-14.34,0V-4.26H-24.66V-8.7L-17.4-21h6.9V-7.68h3.48v3.42H-10.5V0ZM-21-7.68h6.66V-18.54h-.54L-21-8.16ZM-3.99,4.41V2.37h1.17A1.22,1.22,0,0,0-1.44.99V.03h-.51A2.86,2.86,0,0,1-3.945-.69a2.361,2.361,0,0,1-.8-1.83,2.559,2.559,0,0,1,.8-1.95A2.793,2.793,0,0,1-1.95-5.22a2.749,2.749,0,0,1,2.01.765A2.747,2.747,0,0,1,.84-2.4V1.05q0,3.36-3.36,3.36ZM11.58.42a9.966,9.966,0,0,1-4.2-.84A6.667,6.667,0,0,1,4.515-2.835,6.646,6.646,0,0,1,3.48-6.57v-.54H7.32v.42A3.361,3.361,0,0,0,8.49-4a4.577,4.577,0,0,0,3.09,1A4.441,4.441,0,0,0,14.6-3.93,2.975,2.975,0,0,0,15.66-6.27v-.3a2.421,2.421,0,0,0-.48-1.56,2.794,2.794,0,0,0-1.29-.885A5.492,5.492,0,0,0,12.06-9.3H7.86v-4.2l6.78-3.6v-.48H4.02V-21H18.9v5.1l-6.33,3.36v.48h1.11a6.926,6.926,0,0,1,2.745.57,5.248,5.248,0,0,1,2.2,1.755A5.068,5.068,0,0,1,19.5-6.66v.36a6.351,6.351,0,0,1-.99,3.555,6.462,6.462,0,0,1-2.775,2.34A9.812,9.812,0,0,1,11.58.42ZM25.14.39,22.86-1.44,39-21.39l2.28,1.83ZM37.8.3A5,5,0,0,1,34.23-.915,4.335,4.335,0,0,1,32.94-4.23v-.21a4.373,4.373,0,0,1,1.29-3.345A5,5,0,0,1,37.8-9a5.023,5.023,0,0,1,3.54,1.215A4.321,4.321,0,0,1,42.66-4.44v.21A4.335,4.335,0,0,1,41.37-.915,5,5,0,0,1,37.8.3Zm0-2.46a1.759,1.759,0,0,0,1.365-.54,2,2,0,0,0,.5-1.41v-.48a2,2,0,0,0-.5-1.41A1.759,1.759,0,0,0,37.8-6.54,1.759,1.759,0,0,0,36.435-6a2,2,0,0,0-.495,1.41v.48a2,2,0,0,0,.495,1.41A1.759,1.759,0,0,0,37.8-2.16ZM26.34-12a5,5,0,0,1-3.57-1.215,4.335,4.335,0,0,1-1.29-3.315v-.21a4.373,4.373,0,0,1,1.29-3.345A5,5,0,0,1,26.34-21.3a5.023,5.023,0,0,1,3.54,1.215A4.321,4.321,0,0,1,31.2-16.74v.21a4.335,4.335,0,0,1-1.29,3.315A5,5,0,0,1,26.34-12Zm0-2.46A1.759,1.759,0,0,0,27.705-15a2,2,0,0,0,.495-1.41v-.48a2,2,0,0,0-.495-1.41,1.759,1.759,0,0,0-1.365-.54,1.759,1.759,0,0,0-1.365.54,2,2,0,0,0-.495,1.41v.48A2,2,0,0,0,24.975-15,1.759,1.759,0,0,0,26.34-14.46Z" transform="translate(14761 1871)" fill="#ff7c10"/>
  </g>
</svg>
