<svg xmlns="http://www.w3.org/2000/svg" xmlns:xlink="http://www.w3.org/1999/xlink" width="352.879" height="395.06" viewBox="0 0 352.879 395.06">
  <defs>
    <filter id="Elipse_28" x="146.686" y="331.72" width="64.299" height="63.34" filterUnits="userSpaceOnUse">
      <feOffset dy="10" input="SourceAlpha"/>
      <feGaussianBlur stdDeviation="8" result="blur"/>
      <feFlood flood-opacity="0.102"/>
      <feComposite operator="in" in2="blur"/>
      <feComposite in="SourceGraphic"/>
    </filter>
    <filter id="Caminho_716" x="48.895" y="95.162" width="243.979" height="243.979" filterUnits="userSpaceOnUse">
      <feOffset dy="10" input="SourceAlpha"/>
      <feGaussianBlur stdDeviation="8" result="blur-2"/>
      <feFlood flood-opacity="0.102"/>
      <feComposite operator="in" in2="blur-2"/>
      <feComposite in="SourceGraphic"/>
    </filter>
    <filter id="Elipse_18" x="0" y="47.552" width="120.863" height="121.823" filterUnits="userSpaceOnUse">
      <feOffset dy="10" input="SourceAlpha"/>
      <feGaussianBlur stdDeviation="8" result="blur-3"/>
      <feFlood flood-opacity="0.102"/>
      <feComposite operator="in" in2="blur-3"/>
      <feComposite in="SourceGraphic"/>
    </filter>
    <filter id="Elipse_20" x="182.574" y="29.903" width="100.73" height="99.772" filterUnits="userSpaceOnUse">
      <feOffset dy="10" input="SourceAlpha"/>
      <feGaussianBlur stdDeviation="8" result="blur-4"/>
      <feFlood flood-opacity="0.102"/>
      <feComposite operator="in" in2="blur-4"/>
      <feComposite in="SourceGraphic"/>
    </filter>
    <filter id="Elipse_21" x="245.436" y="81.675" width="98.813" height="99.772" filterUnits="userSpaceOnUse">
      <feOffset dy="10" input="SourceAlpha"/>
      <feGaussianBlur stdDeviation="8" result="blur-5"/>
      <feFlood flood-opacity="0.153"/>
      <feComposite operator="in" in2="blur-5"/>
      <feComposite in="SourceGraphic"/>
    </filter>
    <filter id="Elipse_27" x="215.715" y="307.745" width="75.803" height="74.844" filterUnits="userSpaceOnUse">
      <feOffset dy="10" input="SourceAlpha"/>
      <feGaussianBlur stdDeviation="8" result="blur-6"/>
      <feFlood flood-opacity="0.102"/>
      <feComposite operator="in" in2="blur-6"/>
      <feComposite in="SourceGraphic"/>
    </filter>
    <filter id="Elipse_19" x="94.914" y="17.831" width="106.482" height="106.483" filterUnits="userSpaceOnUse">
      <feOffset dy="10" input="SourceAlpha"/>
      <feGaussianBlur stdDeviation="8" result="blur-7"/>
      <feFlood flood-opacity="0.102"/>
      <feComposite operator="in" in2="blur-7"/>
      <feComposite in="SourceGraphic"/>
    </filter>
    <filter id="Elipse_26" x="258.859" y="240.64" width="89.227" height="88.267" filterUnits="userSpaceOnUse">
      <feOffset dy="10" input="SourceAlpha"/>
      <feGaussianBlur stdDeviation="8" result="blur-8"/>
      <feFlood flood-opacity="0.102"/>
      <feComposite operator="in" in2="blur-8"/>
      <feComposite in="SourceGraphic"/>
    </filter>
    <filter id="Elipse_22" x="264.611" y="166.626" width="88.268" height="89.226" filterUnits="userSpaceOnUse">
      <feOffset dy="10" input="SourceAlpha"/>
      <feGaussianBlur stdDeviation="8" result="blur-9"/>
      <feFlood flood-opacity="0.102"/>
      <feComposite operator="in" in2="blur-9"/>
      <feComposite in="SourceGraphic"/>
    </filter>
  </defs>
  <g id="Grupo_395" data-name="Grupo 395" transform="translate(0 -6691.4)">
    <g transform="matrix(1, 0, 0, 1, 0, 6691.4)" filter="url(#Elipse_28)">
      <ellipse id="Elipse_28-2" data-name="Elipse 28" cx="8.149" cy="7.67" rx="8.149" ry="7.67" transform="translate(170.69 345.72)" fill="#fff"/>
    </g>
    <g transform="matrix(1, 0, 0, 1, 0, 6691.4)" filter="url(#Caminho_716)">
      <path id="Caminho_716-2" data-name="Caminho 716" d="M97.99,0A97.99,97.99,0,1,1,0,97.99,97.99,97.99,0,0,1,97.99,0Z" transform="translate(72.9 109.16)" fill="#fff"/>
    </g>
    <g transform="matrix(1, 0, 0, 1, 0, 6691.4)" filter="url(#Elipse_18)">
      <ellipse id="Elipse_18-2" data-name="Elipse 18" cx="36.432" cy="36.911" rx="36.432" ry="36.911" transform="translate(24 61.55)" fill="#fff" opacity="0.999"/>
    </g>
    <g transform="matrix(1, 0, 0, 1, 0, 6691.4)" filter="url(#Elipse_20)">
      <ellipse id="Elipse_20-2" data-name="Elipse 20" cx="26.365" cy="25.886" rx="26.365" ry="25.886" transform="translate(206.57 43.9)" fill="#fff"/>
    </g>
    <g transform="matrix(1, 0, 0, 1, 0, 6691.4)" filter="url(#Elipse_21)">
      <ellipse id="Elipse_21-2" data-name="Elipse 21" cx="25.406" cy="25.886" rx="25.406" ry="25.886" transform="translate(269.44 95.67)" fill="#ff7c10"/>
    </g>
    <g transform="matrix(1, 0, 0, 1, 0, 6691.4)" filter="url(#Elipse_27)">
      <ellipse id="Elipse_27-2" data-name="Elipse 27" cx="13.902" cy="13.422" rx="13.902" ry="13.422" transform="translate(239.72 321.75)" fill="#fff"/>
    </g>
    <g transform="matrix(1, 0, 0, 1, 0, 6691.4)" filter="url(#Elipse_19)">
      <circle id="Elipse_19-2" data-name="Elipse 19" cx="29.241" cy="29.241" r="29.241" transform="translate(118.91 31.83)" fill="#fff"/>
    </g>
    <g transform="matrix(1, 0, 0, 1, 0, 6691.4)" filter="url(#Elipse_26)">
      <ellipse id="Elipse_26-2" data-name="Elipse 26" cx="20.613" cy="20.133" rx="20.613" ry="20.133" transform="translate(282.86 254.64)" fill="#fff"/>
    </g>
    <g transform="matrix(1, 0, 0, 1, 0, 6691.4)" filter="url(#Elipse_22)">
      <ellipse id="Elipse_22-2" data-name="Elipse 22" cx="20.133" cy="20.613" rx="20.133" ry="20.613" transform="translate(288.61 180.63)" fill="#fff"/>
    </g>
    <path id="Caminho_729" data-name="Caminho 729" d="M-22.134-.512v-9.4h5.986v1.463H-20.51v2.47h3.986v1.463H-20.51v2.537h4.429V-.512Zm11.06.188A3.913,3.913,0,0,1-13.859-1.3,3.646,3.646,0,0,1-14.9-4.1V-6.324a3.646,3.646,0,0,1,1.04-2.8,3.913,3.913,0,0,1,2.785-.973,3.908,3.908,0,0,1,2.792.973,3.659,3.659,0,0,1,1.034,2.8V-4.1A3.659,3.659,0,0,1-8.282-1.3,3.908,3.908,0,0,1-11.074-.324Zm0-1.45a2.149,2.149,0,0,0,1.631-.611,2.3,2.3,0,0,0,.584-1.658V-6.377a2.3,2.3,0,0,0-.584-1.658,2.149,2.149,0,0,0-1.631-.611,2.131,2.131,0,0,0-1.617.611,2.3,2.3,0,0,0-.584,1.658v2.335a2.3,2.3,0,0,0,.584,1.658A2.131,2.131,0,0,0-11.074-1.774Zm-.98-8.912.94-1.718h1.8l-1.342,1.718ZM-5.625-.512v-9.4H-4v7.933H.4V-.512Zm7.288,0v-9.4H3.288v9.4ZM8.67-.324A3.8,3.8,0,0,1,5.932-1.3a3.686,3.686,0,0,1-1.02-2.8V-6.324a3.686,3.686,0,0,1,1.02-2.8A3.8,3.8,0,0,1,8.67-10.1a3.571,3.571,0,0,1,2.651.94,3.5,3.5,0,0,1,.933,2.577V-6.5H10.67v-.121a2.156,2.156,0,0,0-.49-1.456,1.883,1.883,0,0,0-1.51-.57,2.035,2.035,0,0,0-1.564.611,2.371,2.371,0,0,0-.57,1.684v2.282a2.376,2.376,0,0,0,.57,1.678,2.024,2.024,0,0,0,1.564.617,1.883,1.883,0,0,0,1.51-.57A2.156,2.156,0,0,0,10.67-3.8v-.228h1.584v.188a3.5,3.5,0,0,1-.933,2.577A3.571,3.571,0,0,1,8.67-.324Zm4.335-.188,2.577-9.4h2.805l2.577,9.4H19.3l-.564-2.148h-3.5L14.67-.512Zm2.6-3.624h2.752L17.1-8.9h-.228Z" transform="translate(60.515 6746.564)"/>
    <path id="Caminho_730" data-name="Caminho 730" d="M-19.479-.53V-10.988h-.311l-1.622,3.831h-2.312l2.468-5.453h3.986V-.53Zm8.939.242a4.895,4.895,0,0,1-3.434-1.182,4.614,4.614,0,0,1-1.294-3.581V-8.089a4.635,4.635,0,0,1,1.294-3.546,4.81,4.81,0,0,1,3.434-1.217A4.8,4.8,0,0,1-7.1-11.635,4.652,4.652,0,0,1-5.811-8.089v3.037A4.632,4.632,0,0,1-7.1-1.471,4.888,4.888,0,0,1-10.539-.289Zm0-1.967a2.39,2.39,0,0,0,1.907-.708A2.993,2.993,0,0,0-8.02-4.983v-3.21A2.726,2.726,0,0,0-8.7-10.2a2.484,2.484,0,0,0-1.838-.682,2.421,2.421,0,0,0-1.855.708,2.787,2.787,0,0,0-.664,1.985v3.21a2.921,2.921,0,0,0,.63,2.045A2.45,2.45,0,0,0-10.539-2.256Zm6.748,4.263V.833h.673A.7.7,0,0,0-2.325.039V-.513h-.293A1.645,1.645,0,0,1-3.766-.927,1.358,1.358,0,0,1-4.223-1.98,1.472,1.472,0,0,1-3.766-3.1a1.607,1.607,0,0,1,1.148-.431,1.582,1.582,0,0,1,1.156.44,1.58,1.58,0,0,1,.449,1.182V.074A1.708,1.708,0,0,1-2.946,2.006ZM1.592-.53V-.979a5.467,5.467,0,0,1,.1-1.148,3.925,3.925,0,0,1,.449-1.079L6.2-10.367v-.276H-.22V-12.61h8.7v2.623L4.2-2.342a3.242,3.242,0,0,0-.311.708A2.875,2.875,0,0,0,3.8-.875V-.53Zm9.854.224L10.135-1.359l9.284-11.476,1.312,1.053Zm7.283-.052a2.876,2.876,0,0,1-2.054-.7,2.493,2.493,0,0,1-.742-1.907v-.121a2.515,2.515,0,0,1,.742-1.924,2.876,2.876,0,0,1,2.054-.7,2.889,2.889,0,0,1,2.036.7,2.485,2.485,0,0,1,.759,1.924v.121a2.493,2.493,0,0,1-.742,1.907A2.876,2.876,0,0,1,18.729-.358Zm0-1.415a1.012,1.012,0,0,0,.785-.311,1.153,1.153,0,0,0,.285-.811v-.276a1.153,1.153,0,0,0-.285-.811,1.012,1.012,0,0,0-.785-.311,1.012,1.012,0,0,0-.785.311,1.153,1.153,0,0,0-.285.811v.276a1.153,1.153,0,0,0,.285.811A1.012,1.012,0,0,0,18.729-1.773Zm-6.592-5.66a2.876,2.876,0,0,1-2.054-.7,2.493,2.493,0,0,1-.742-1.907v-.121a2.515,2.515,0,0,1,.742-1.924,2.876,2.876,0,0,1,2.054-.7,2.889,2.889,0,0,1,2.036.7,2.485,2.485,0,0,1,.759,1.924v.121a2.493,2.493,0,0,1-.742,1.907A2.876,2.876,0,0,1,12.137-7.433Zm0-1.415a1.012,1.012,0,0,0,.785-.311,1.153,1.153,0,0,0,.285-.811v-.276a1.153,1.153,0,0,0-.285-.811,1.012,1.012,0,0,0-.785-.311,1.012,1.012,0,0,0-.785.311,1.153,1.153,0,0,0-.285.811v.276a1.153,1.153,0,0,0,.285.811A1.012,1.012,0,0,0,12.137-8.848Z" transform="translate(61.146 6795.524)" fill="#ff7c10"/>
    <path id="Caminho_732" data-name="Caminho 732" d="M-9.773-.324A3.6,3.6,0,0,1-11.551-.76,3.173,3.173,0,0,1-12.8-2.035a4.213,4.213,0,0,1-.463-2.06V-6.324a3.686,3.686,0,0,1,1.02-2.8A3.8,3.8,0,0,1-9.5-10.1a3.593,3.593,0,0,1,2.644.919A3.333,3.333,0,0,1-5.934-6.7v.054H-7.518v-.107a2.131,2.131,0,0,0-.215-.966A1.574,1.574,0,0,0-8.39-8.4,2.255,2.255,0,0,0-9.5-8.646a2.035,2.035,0,0,0-1.564.611,2.371,2.371,0,0,0-.57,1.684v2.282a2.426,2.426,0,0,0,.57,1.691,2.035,2.035,0,0,0,1.591.631,1.856,1.856,0,0,0,1.49-.55,2.094,2.094,0,0,0,.47-1.409v-.161H-9.893V-5.236h3.96V-.512H-7.41v-.926h-.228a2.049,2.049,0,0,1-.336.5A1.712,1.712,0,0,1-8.625-.5,3.077,3.077,0,0,1-9.773-.324ZM-4.82-.512l2.577-9.4H.563L3.14-.512H1.475L.912-2.659h-3.5L-3.155-.512Zm2.6-3.624H.536L-.726-8.9H-.954Zm.389-6.55.94-1.718h1.8L-.431-10.686ZM7.556-.324a4.471,4.471,0,0,1-1.9-.383,3.016,3.016,0,0,1-1.3-1.107,3.189,3.189,0,0,1-.47-1.772v-.349h1.6v.349A1.673,1.673,0,0,0,6.052-2.2a2.318,2.318,0,0,0,1.5.456,2.253,2.253,0,0,0,1.436-.389,1.233,1.233,0,0,0,.483-1.007.994.994,0,0,0-.228-.678,1.593,1.593,0,0,0-.664-.423,9.394,9.394,0,0,0-1.054-.309l-.4-.081a7.636,7.636,0,0,1-1.6-.544,2.619,2.619,0,0,1-1.04-.852A2.358,2.358,0,0,1,4.119-7.4a2.553,2.553,0,0,1,.4-1.45,2.561,2.561,0,0,1,1.141-.926A4.3,4.3,0,0,1,7.394-10.1a4.437,4.437,0,0,1,1.772.336,2.752,2.752,0,0,1,1.228,1.007,2.95,2.95,0,0,1,.45,1.678v.443h-1.6v-.443A1.67,1.67,0,0,0,9.019-8a1.312,1.312,0,0,0-.644-.51,2.709,2.709,0,0,0-.98-.161,2.083,2.083,0,0,0-1.262.322,1.074,1.074,0,0,0-.43.913A1.038,1.038,0,0,0,5.9-6.8a1.4,1.4,0,0,0,.577.43,4.946,4.946,0,0,0,.96.289l.4.094a8.64,8.64,0,0,1,1.691.544,2.893,2.893,0,0,1,1.134.866,2.24,2.24,0,0,1,.409,1.4,2.594,2.594,0,0,1-.436,1.49A2.9,2.9,0,0,1,9.415-.686,4.4,4.4,0,0,1,7.556-.324Zm-36.7,15.152v-9.4h3.087l2.215,8.308h.215V5.432h1.6v9.4H-25.1L-27.316,6.52h-.228v8.308Zm8.308,0,2.577-9.4h2.805l2.577,9.4h-1.664L-15.1,12.68h-3.5l-.564,2.148Zm2.6-3.624h2.752l-1.262-4.765h-.228Zm7.865,3.624V6.9h-2.805V5.432h7.221V6.9H-8.753v7.933Zm9.248.188a4.264,4.264,0,0,1-1.94-.409A2.886,2.886,0,0,1-4.3,13.419a3.731,3.731,0,0,1-.436-1.852V5.432h1.611v6.174a1.931,1.931,0,0,0,.523,1.45,2.047,2.047,0,0,0,1.49.51,2.043,2.043,0,0,0,1.5-.51A1.946,1.946,0,0,0,.9,11.607V5.432H2.509v6.134a3.778,3.778,0,0,1-.43,1.852A2.838,2.838,0,0,1,.831,14.606,4.306,4.306,0,0,1-1.115,15.016Zm5.436-.188v-9.4H8.334a3.6,3.6,0,0,1,1.544.309,2.445,2.445,0,0,1,1.027.866,2.362,2.362,0,0,1,.369,1.336V8.09a2.18,2.18,0,0,1-.416,1.4,2.463,2.463,0,0,1-1.007.765v.215a1.138,1.138,0,0,1,.825.362,1.294,1.294,0,0,1,.3.9v3.1H9.368V11.956a.8.8,0,0,0-.181-.544A.736.736,0,0,0,8.6,11.2H5.945v3.624ZM5.945,9.741H8.173a1.542,1.542,0,0,0,1.094-.369,1.284,1.284,0,0,0,.4-.987V8.264a1.312,1.312,0,0,0-.389-1,1.537,1.537,0,0,0-1.1-.369H5.945Zm6.2,5.087,2.577-9.4h2.805l2.577,9.4H18.441l-.564-2.148h-3.5l-.564,2.148Zm2.6-3.624H17.5L16.24,6.439h-.228Zm6.55,3.624v-9.4h1.624v7.933h4.4v1.463Z" transform="translate(149.014 6703.804)"/>
    <path id="Caminho_731" data-name="Caminho 731" d="M-13.27-.289A6.685,6.685,0,0,1-15.712-.7a3.712,3.712,0,0,1-1.657-1.2,2.983,2.983,0,0,1-.6-1.855v-.207a2.868,2.868,0,0,1,.293-1.372,2.439,2.439,0,0,1,.733-.854,2.982,2.982,0,0,1,.837-.431v-.311a2.78,2.78,0,0,1-.794-.449,2.3,2.3,0,0,1-.647-.828,2.832,2.832,0,0,1-.25-1.243v-.207a2.624,2.624,0,0,1,.561-1.665,3.677,3.677,0,0,1,1.579-1.122,6.412,6.412,0,0,1,2.381-.406,6.412,6.412,0,0,1,2.381.406,3.677,3.677,0,0,1,1.579,1.122,2.624,2.624,0,0,1,.561,1.665v.207A2.832,2.832,0,0,1-9-8.21a2.346,2.346,0,0,1-.639.828,2.606,2.606,0,0,1-.8.449v.311a2.807,2.807,0,0,1,.846.431,2.48,2.48,0,0,1,.725.854,2.868,2.868,0,0,1,.293,1.372v.207a2.983,2.983,0,0,1-.6,1.855A3.712,3.712,0,0,1-10.828-.7,6.685,6.685,0,0,1-13.27-.289Zm0-1.967a3.155,3.155,0,0,0,1.838-.457,1.42,1.42,0,0,0,.647-1.217v-.138a1.431,1.431,0,0,0-.63-1.217,3.141,3.141,0,0,0-1.855-.457,3.148,3.148,0,0,0-1.847.457,1.426,1.426,0,0,0-.639,1.217v.138a1.42,1.42,0,0,0,.647,1.217A3.155,3.155,0,0,0-13.27-2.256Zm0-5.453a3.1,3.1,0,0,0,1.708-.4,1.267,1.267,0,0,0,.6-1.122v-.138a1.258,1.258,0,0,0-.621-1.122,3.118,3.118,0,0,0-1.691-.4,3.118,3.118,0,0,0-1.691.4,1.258,1.258,0,0,0-.621,1.122v.138a1.267,1.267,0,0,0,.6,1.122A3.1,3.1,0,0,0-13.27-7.709Zm6.54,9.716V.833h.673A.7.7,0,0,0-5.263.039V-.513h-.293A1.645,1.645,0,0,1-6.7-.927,1.358,1.358,0,0,1-7.161-1.98,1.472,1.472,0,0,1-6.7-3.1a1.607,1.607,0,0,1,1.148-.431,1.582,1.582,0,0,1,1.156.44,1.58,1.58,0,0,1,.449,1.182V.074A1.708,1.708,0,0,1-5.884,2.006ZM.536-.53V-10.988H.225L-1.4-7.157H-3.71l2.468-5.453H2.745V-.53Zm5.9.224L5.126-1.359l9.284-11.476,1.312,1.053ZM13.72-.358a2.876,2.876,0,0,1-2.054-.7,2.493,2.493,0,0,1-.742-1.907v-.121a2.515,2.515,0,0,1,.742-1.924,2.876,2.876,0,0,1,2.054-.7,2.889,2.889,0,0,1,2.036.7,2.485,2.485,0,0,1,.759,1.924v.121a2.493,2.493,0,0,1-.742,1.907A2.876,2.876,0,0,1,13.72-.358Zm0-1.415a1.012,1.012,0,0,0,.785-.311,1.153,1.153,0,0,0,.285-.811v-.276a1.153,1.153,0,0,0-.285-.811,1.012,1.012,0,0,0-.785-.311,1.012,1.012,0,0,0-.785.311,1.153,1.153,0,0,0-.285.811v.276a1.153,1.153,0,0,0,.285.811A1.012,1.012,0,0,0,13.72-1.773ZM7.128-7.433a2.876,2.876,0,0,1-2.054-.7,2.493,2.493,0,0,1-.742-1.907v-.121a2.515,2.515,0,0,1,.742-1.924,2.876,2.876,0,0,1,2.054-.7,2.889,2.889,0,0,1,2.036.7,2.485,2.485,0,0,1,.759,1.924v.121a2.493,2.493,0,0,1-.742,1.907A2.876,2.876,0,0,1,7.128-7.433Zm0-1.415a1.012,1.012,0,0,0,.785-.311A1.153,1.153,0,0,0,8.2-9.97v-.276a1.153,1.153,0,0,0-.285-.811,1.012,1.012,0,0,0-.785-.311,1.012,1.012,0,0,0-.785.311,1.153,1.153,0,0,0-.285.811v.276a1.153,1.153,0,0,0,.285.811A1.012,1.012,0,0,0,7.128-8.848Z" transform="translate(149.341 6758.133)" fill="#ff7c10"/>
    <path id="Caminho_734" data-name="Caminho 734" d="M-34.034-.412V-1.835h1.262v-6.55h-1.262V-9.808h4.805a3.566,3.566,0,0,1,1.483.289,2.31,2.31,0,0,1,.993.819A2.223,2.223,0,0,1-26.4-7.432v.121a2.09,2.09,0,0,1-.242,1.06,1.936,1.936,0,0,1-.577.644,2.407,2.407,0,0,1-.644.322v.228a2.448,2.448,0,0,1,.664.3,1.829,1.829,0,0,1,.6.644,2.14,2.14,0,0,1,.248,1.094v.134a2.338,2.338,0,0,1-.369,1.322,2.377,2.377,0,0,1-1.007.852,3.462,3.462,0,0,1-1.47.3Zm2.872-1.463h1.785a1.564,1.564,0,0,0,1.027-.315,1.092,1.092,0,0,0,.383-.893V-3.2a1.1,1.1,0,0,0-.376-.893,1.559,1.559,0,0,0-1.034-.315h-1.785Zm0-4h1.772a1.543,1.543,0,0,0,1-.309,1.042,1.042,0,0,0,.383-.859v-.134a1.042,1.042,0,0,0-.383-.859,1.543,1.543,0,0,0-1-.309h-1.772Zm6.335,5.463v-9.4H-23.2v9.4Zm7.074.188A3.913,3.913,0,0,1-20.538-1.2,3.646,3.646,0,0,1-21.578-4V-6.224a3.646,3.646,0,0,1,1.04-2.8A3.913,3.913,0,0,1-17.753-10a3.908,3.908,0,0,1,2.792.973,3.659,3.659,0,0,1,1.034,2.8V-4a3.659,3.659,0,0,1-1.034,2.8A3.908,3.908,0,0,1-17.753-.225Zm0-1.45a2.149,2.149,0,0,0,1.631-.611,2.3,2.3,0,0,0,.584-1.658V-6.278a2.3,2.3,0,0,0-.584-1.658,2.149,2.149,0,0,0-1.631-.611,2.131,2.131,0,0,0-1.617.611,2.3,2.3,0,0,0-.584,1.658v2.335a2.3,2.3,0,0,0,.584,1.658A2.131,2.131,0,0,0-17.753-1.674ZM-12.3-.412v-9.4h3.02L-7.458-1.5h.228l1.839-8.308h3.007v9.4H-3.941V-8.64h-.228L-5.995-.412H-8.679L-10.5-8.64h-.228V-.412Zm11.127,0L1.4-9.808H4.206l2.577,9.4H5.119L4.555-2.56h-3.5L.488-.412Zm2.6-3.624H4.179L2.918-8.8H2.689ZM11.2-.225A4.471,4.471,0,0,1,9.3-.607,3.016,3.016,0,0,1,8-1.714a3.189,3.189,0,0,1-.47-1.772v-.349h1.6v.349A1.673,1.673,0,0,0,9.7-2.1a2.318,2.318,0,0,0,1.5.456,2.253,2.253,0,0,0,1.436-.389,1.233,1.233,0,0,0,.483-1.007.994.994,0,0,0-.228-.678,1.593,1.593,0,0,0-.664-.423,9.4,9.4,0,0,0-1.054-.309l-.4-.081a7.636,7.636,0,0,1-1.6-.544,2.619,2.619,0,0,1-1.04-.852A2.358,2.358,0,0,1,7.763-7.3a2.553,2.553,0,0,1,.4-1.45,2.561,2.561,0,0,1,1.141-.926A4.3,4.3,0,0,1,11.038-10a4.437,4.437,0,0,1,1.772.336,2.752,2.752,0,0,1,1.228,1.007,2.95,2.95,0,0,1,.45,1.678v.443h-1.6v-.443a1.67,1.67,0,0,0-.228-.926,1.312,1.312,0,0,0-.644-.51,2.709,2.709,0,0,0-.98-.161,2.083,2.083,0,0,0-1.262.322,1.074,1.074,0,0,0-.43.913,1.038,1.038,0,0,0,.195.638,1.4,1.4,0,0,0,.577.43,4.946,4.946,0,0,0,.96.289l.4.094a8.64,8.64,0,0,1,1.691.544,2.893,2.893,0,0,1,1.134.866,2.24,2.24,0,0,1,.409,1.4,2.594,2.594,0,0,1-.436,1.49A2.9,2.9,0,0,1,13.058-.587,4.4,4.4,0,0,1,11.2-.225Zm8.161,0a4.471,4.471,0,0,1-1.9-.383,3.016,3.016,0,0,1-1.3-1.107,3.189,3.189,0,0,1-.47-1.772v-.349h1.6v.349A1.673,1.673,0,0,0,17.857-2.1a2.318,2.318,0,0,0,1.5.456A2.253,2.253,0,0,0,20.8-2.037a1.233,1.233,0,0,0,.483-1.007.994.994,0,0,0-.228-.678,1.593,1.593,0,0,0-.664-.423,9.4,9.4,0,0,0-1.054-.309l-.4-.081a7.636,7.636,0,0,1-1.6-.544,2.619,2.619,0,0,1-1.04-.852A2.358,2.358,0,0,1,15.924-7.3a2.553,2.553,0,0,1,.4-1.45,2.561,2.561,0,0,1,1.141-.926A4.3,4.3,0,0,1,19.2-10a4.437,4.437,0,0,1,1.772.336A2.752,2.752,0,0,1,22.2-8.654a2.95,2.95,0,0,1,.45,1.678v.443h-1.6v-.443a1.67,1.67,0,0,0-.228-.926,1.312,1.312,0,0,0-.644-.51,2.709,2.709,0,0,0-.98-.161,2.083,2.083,0,0,0-1.262.322,1.074,1.074,0,0,0-.43.913A1.038,1.038,0,0,0,17.7-6.7a1.4,1.4,0,0,0,.577.43,4.946,4.946,0,0,0,.96.289l.4.094a8.64,8.64,0,0,1,1.691.544,2.893,2.893,0,0,1,1.134.866,2.24,2.24,0,0,1,.409,1.4,2.594,2.594,0,0,1-.436,1.49A2.9,2.9,0,0,1,21.219-.587,4.4,4.4,0,0,1,19.36-.225Zm4.255-.188,2.577-9.4H29l2.577,9.4H29.91L29.346-2.56h-3.5L25.279-.412Zm2.6-3.624H28.97L27.709-8.8H27.48Z" transform="translate(234.441 6728.816)"/>
    <path id="Caminho_733" data-name="Caminho 733" d="M-17.106-.53V-.979A5.467,5.467,0,0,1-17-2.127a3.926,3.926,0,0,1,.449-1.079l4.055-7.162v-.276h-6.42V-12.61h8.7v2.623L-14.5-2.342a3.242,3.242,0,0,0-.311.708,2.875,2.875,0,0,0-.086.759V-.53Zm7.49,2.537V.833h.673A.7.7,0,0,0-8.149.039V-.513h-.293A1.645,1.645,0,0,1-9.59-.927a1.358,1.358,0,0,1-.457-1.053A1.472,1.472,0,0,1-9.59-3.1a1.607,1.607,0,0,1,1.148-.431,1.582,1.582,0,0,1,1.156.44,1.58,1.58,0,0,1,.449,1.182V.074A1.708,1.708,0,0,1-8.771,2.006Zm8.853-2.3A5.634,5.634,0,0,1-3.1-.737,3.476,3.476,0,0,1-4.638-2.032a3.653,3.653,0,0,1-.544-2.019h2.243a1.767,1.767,0,0,0,.509,1.26,2.218,2.218,0,0,0,1.665.535,2.451,2.451,0,0,0,1.795-.613,2.233,2.233,0,0,0,.621-1.665V-5.777H1.342a2.942,2.942,0,0,1-.889.656,3.944,3.944,0,0,1-1.769.311,4.262,4.262,0,0,1-1.933-.449,3.635,3.635,0,0,1-1.45-1.3A3.717,3.717,0,0,1-5.25-8.624v-.207a3.845,3.845,0,0,1,.569-2.105,3.874,3.874,0,0,1,1.6-1.406A5.414,5.414,0,0,1-.66-12.852a5.229,5.229,0,0,1,2.4.518A3.8,3.8,0,0,1,3.309-10.9,3.993,3.993,0,0,1,3.862-8.8v4.124a4.613,4.613,0,0,1-.6,2.442A3.7,3.7,0,0,1,1.627-.772,5.631,5.631,0,0,1-.763-.289ZM-.694-6.57A2.807,2.807,0,0,0,.557-6.829a1.914,1.914,0,0,0,.811-.725,2.077,2.077,0,0,0,.285-1.1V-8.8a1.941,1.941,0,0,0-.63-1.527,2.489,2.489,0,0,0-1.717-.561,2.489,2.489,0,0,0-1.717.561A1.941,1.941,0,0,0-3.041-8.8v.138a2.077,2.077,0,0,0,.285,1.1,1.9,1.9,0,0,0,.82.725A2.821,2.821,0,0,0-.694-6.57ZM7.278-.306,5.967-1.359l9.284-11.476,1.312,1.053Zm7.283-.052a2.876,2.876,0,0,1-2.054-.7,2.493,2.493,0,0,1-.742-1.907v-.121a2.515,2.515,0,0,1,.742-1.924,2.876,2.876,0,0,1,2.054-.7,2.889,2.889,0,0,1,2.036.7,2.485,2.485,0,0,1,.759,1.924v.121a2.493,2.493,0,0,1-.742,1.907A2.876,2.876,0,0,1,14.561-.358Zm0-1.415a1.012,1.012,0,0,0,.785-.311,1.153,1.153,0,0,0,.285-.811v-.276a1.153,1.153,0,0,0-.285-.811,1.012,1.012,0,0,0-.785-.311,1.012,1.012,0,0,0-.785.311,1.153,1.153,0,0,0-.285.811v.276a1.153,1.153,0,0,0,.285.811A1.012,1.012,0,0,0,14.561-1.773ZM7.969-7.433a2.876,2.876,0,0,1-2.054-.7,2.493,2.493,0,0,1-.742-1.907v-.121a2.515,2.515,0,0,1,.742-1.924,2.876,2.876,0,0,1,2.054-.7,2.889,2.889,0,0,1,2.036.7,2.485,2.485,0,0,1,.759,1.924v.121a2.493,2.493,0,0,1-.742,1.907A2.876,2.876,0,0,1,7.969-7.433Zm0-1.415a1.012,1.012,0,0,0,.785-.311,1.153,1.153,0,0,0,.285-.811v-.276a1.153,1.153,0,0,0-.285-.811,1.012,1.012,0,0,0-.785-.311,1.012,1.012,0,0,0-.785.311,1.153,1.153,0,0,0-.285.811v.276a1.153,1.153,0,0,0,.285.811A1.012,1.012,0,0,0,7.969-8.848Z" transform="translate(234.121 6766.371)" fill="#ff7c10"/>
    <path id="Caminho_735" data-name="Caminho 735" d="M-17.448-.225a4.471,4.471,0,0,1-1.9-.383,3.016,3.016,0,0,1-1.3-1.107,3.189,3.189,0,0,1-.47-1.772v-.349h1.6v.349A1.673,1.673,0,0,0-18.951-2.1a2.318,2.318,0,0,0,1.5.456,2.253,2.253,0,0,0,1.436-.389,1.233,1.233,0,0,0,.483-1.007.994.994,0,0,0-.228-.678,1.593,1.593,0,0,0-.664-.423,9.4,9.4,0,0,0-1.054-.309l-.4-.081a7.636,7.636,0,0,1-1.6-.544,2.619,2.619,0,0,1-1.04-.852A2.358,2.358,0,0,1-20.884-7.3a2.553,2.553,0,0,1,.4-1.45,2.561,2.561,0,0,1,1.141-.926A4.3,4.3,0,0,1-17.609-10a4.437,4.437,0,0,1,1.772.336,2.752,2.752,0,0,1,1.228,1.007,2.95,2.95,0,0,1,.45,1.678v.443h-1.6v-.443a1.67,1.67,0,0,0-.228-.926,1.312,1.312,0,0,0-.644-.51,2.709,2.709,0,0,0-.98-.161,2.083,2.083,0,0,0-1.262.322,1.074,1.074,0,0,0-.43.913,1.038,1.038,0,0,0,.195.638,1.4,1.4,0,0,0,.577.43,4.946,4.946,0,0,0,.96.289l.4.094a8.64,8.64,0,0,1,1.691.544,2.893,2.893,0,0,1,1.134.866,2.24,2.24,0,0,1,.409,1.4,2.594,2.594,0,0,1-.436,1.49A2.9,2.9,0,0,1-15.589-.587,4.4,4.4,0,0,1-17.448-.225Zm8.523,0A3.913,3.913,0,0,1-11.71-1.2,3.646,3.646,0,0,1-12.75-4V-6.224a3.646,3.646,0,0,1,1.04-2.8A3.913,3.913,0,0,1-8.925-10a3.908,3.908,0,0,1,2.792.973A3.659,3.659,0,0,1-5.1-6.224V-4A3.659,3.659,0,0,1-6.133-1.2,3.908,3.908,0,0,1-8.925-.225Zm0-1.45a2.149,2.149,0,0,0,1.631-.611A2.3,2.3,0,0,0-6.71-3.943V-6.278a2.3,2.3,0,0,0-.584-1.658,2.149,2.149,0,0,0-1.631-.611,2.131,2.131,0,0,0-1.617.611,2.3,2.3,0,0,0-.584,1.658v2.335a2.3,2.3,0,0,0,.584,1.658A2.131,2.131,0,0,0-8.925-1.674ZM-3.475-.412v-9.4h1.624v7.933h4.4V-.412Zm6.631,0,2.577-9.4H8.538l2.577,9.4H9.451L8.887-2.56h-3.5L4.82-.412Zm2.6-3.624H8.511L7.249-8.8H7.021ZM12.31-.412v-9.4h4.013a3.6,3.6,0,0,1,1.544.309,2.445,2.445,0,0,1,1.027.866A2.362,2.362,0,0,1,19.262-7.3v.148a2.18,2.18,0,0,1-.416,1.4,2.463,2.463,0,0,1-1.007.765v.215a1.138,1.138,0,0,1,.825.362,1.294,1.294,0,0,1,.3.9v3.1H17.356V-3.285a.8.8,0,0,0-.181-.544.736.736,0,0,0-.584-.208H13.934V-.412ZM13.934-5.5h2.228a1.542,1.542,0,0,0,1.094-.369,1.284,1.284,0,0,0,.4-.987v-.121a1.312,1.312,0,0,0-.389-1,1.537,1.537,0,0,0-1.1-.369H13.934Z" transform="translate(296.3 6782.505)"/>
    <path id="Caminho_736" data-name="Caminho 736" d="M-17.034-.53V-.979a5.467,5.467,0,0,1,.1-1.148,3.925,3.925,0,0,1,.449-1.079l4.055-7.162v-.276h-6.42V-12.61h8.7v2.623l-4.28,7.645a3.242,3.242,0,0,0-.311.708,2.875,2.875,0,0,0-.086.759V-.53Zm7.49,2.537V.833h.673A.7.7,0,0,0-8.077.039V-.513h-.293A1.645,1.645,0,0,1-9.518-.927,1.358,1.358,0,0,1-9.976-1.98,1.472,1.472,0,0,1-9.518-3.1a1.607,1.607,0,0,1,1.148-.431,1.582,1.582,0,0,1,1.156.44,1.58,1.58,0,0,1,.449,1.182V.074A1.708,1.708,0,0,1-8.7,2.006Zm8.922-2.3a5.229,5.229,0,0,1-2.4-.518,3.8,3.8,0,0,1-1.57-1.432,3.993,3.993,0,0,1-.552-2.105V-8.469a4.613,4.613,0,0,1,.6-2.442,3.7,3.7,0,0,1,1.639-1.458,5.631,5.631,0,0,1,2.39-.483A5.634,5.634,0,0,1,1.82-12.4a3.476,3.476,0,0,1,1.536,1.294A3.653,3.653,0,0,1,3.9-9.09H1.656a1.784,1.784,0,0,0-.5-1.26,2.214,2.214,0,0,0-1.674-.535,2.478,2.478,0,0,0-1.786.6,2.21,2.21,0,0,0-.63,1.674v1.243h.311a2.921,2.921,0,0,1,.9-.656,3.953,3.953,0,0,1,1.76-.311,4.246,4.246,0,0,1,1.941.449,3.65,3.65,0,0,1,1.441,1.3,3.717,3.717,0,0,1,.552,2.062v.207a3.856,3.856,0,0,1-.569,2.1A3.852,3.852,0,0,1,1.794-.8,5.414,5.414,0,0,1-.622-.289Zm.035-1.967a2.465,2.465,0,0,0,1.717-.569,1.947,1.947,0,0,0,.63-1.519v-.138a2.077,2.077,0,0,0-.285-1.1,1.914,1.914,0,0,0-.811-.725A2.807,2.807,0,0,0-.588-6.57a2.821,2.821,0,0,0-1.243.259,1.9,1.9,0,0,0-.82.725,2.077,2.077,0,0,0-.285,1.1v.138A1.947,1.947,0,0,0-2.3-2.826,2.465,2.465,0,0,0-.588-2.256Zm7.8,1.95L5.9-1.359l9.284-11.476L16.5-11.782Zm7.283-.052a2.876,2.876,0,0,1-2.054-.7A2.493,2.493,0,0,1,11.7-2.964v-.121a2.515,2.515,0,0,1,.742-1.924,2.876,2.876,0,0,1,2.054-.7,2.889,2.889,0,0,1,2.036.7,2.485,2.485,0,0,1,.759,1.924v.121a2.493,2.493,0,0,1-.742,1.907A2.876,2.876,0,0,1,14.495-.358Zm0-1.415a1.012,1.012,0,0,0,.785-.311,1.153,1.153,0,0,0,.285-.811v-.276a1.153,1.153,0,0,0-.285-.811,1.012,1.012,0,0,0-.785-.311,1.012,1.012,0,0,0-.785.311,1.153,1.153,0,0,0-.285.811v.276a1.153,1.153,0,0,0,.285.811A1.012,1.012,0,0,0,14.495-1.773ZM7.9-7.433a2.876,2.876,0,0,1-2.054-.7,2.493,2.493,0,0,1-.742-1.907v-.121a2.515,2.515,0,0,1,.742-1.924,2.876,2.876,0,0,1,2.054-.7,2.889,2.889,0,0,1,2.036.7A2.485,2.485,0,0,1,10.7-10.16v.121a2.493,2.493,0,0,1-.742,1.907A2.876,2.876,0,0,1,7.9-7.433Zm0-1.415a1.012,1.012,0,0,0,.785-.311,1.153,1.153,0,0,0,.285-.811v-.276a1.153,1.153,0,0,0-.285-.811,1.012,1.012,0,0,0-.785-.311,1.012,1.012,0,0,0-.785.311,1.153,1.153,0,0,0-.285.811v.276a1.153,1.153,0,0,0,.285.811A1.012,1.012,0,0,0,7.9-8.848Z" transform="translate(295.952 6818.143)" fill="#fff"/>
    <path id="Caminho_738" data-name="Caminho 738" d="M-12.611-.471V-2.649h-5.277v-2.27l3.712-6.289h3.528V-4.4h1.779v1.749h-1.779V-.471ZM-16.017-4.4h3.405V-9.951h-.276l-3.129,5.308Zm8.7,6.182V.741h.6A.624.624,0,0,0-6.015.035V-.455h-.261A1.462,1.462,0,0,1-7.3-.824,1.207,1.207,0,0,1-7.7-1.759a1.308,1.308,0,0,1,.407-1,1.428,1.428,0,0,1,1.02-.383,1.406,1.406,0,0,1,1.028.391,1.4,1.4,0,0,1,.4,1.051V.066A1.519,1.519,0,0,1-6.567,1.784ZM.627-.256A4.908,4.908,0,0,1-1.543-.7a3.265,3.265,0,0,1-1.4-1.258,3.579,3.579,0,0,1-.491-1.887V-4h1.994v.138A1.843,1.843,0,0,0-.93-2.549,2,2,0,0,0,.6-2a2.107,2.107,0,0,0,1.557-.545A1.919,1.919,0,0,0,2.7-3.968v-.153a1.774,1.774,0,0,0-.545-1.365A1.917,1.917,0,0,0,.8-5.993,1.909,1.909,0,0,0,.06-5.87a1.469,1.469,0,0,0-.476.307A2.438,2.438,0,0,0-.723-5.2H-3.1v-6.013H4.232v1.779H-1.137v2.623h.276A1.9,1.9,0,0,1-.447-7.19,2.3,2.3,0,0,1,.228-7.5a3.477,3.477,0,0,1,.982-.123,3.761,3.761,0,0,1,1.733.4,3.066,3.066,0,0,1,1.25,1.173,3.633,3.633,0,0,1,.468,1.91v.184a3.829,3.829,0,0,1-.483,1.963A3.242,3.242,0,0,1,2.79-.709,4.788,4.788,0,0,1,.627-.256ZM7.453-.271,6.287-1.207l8.253-10.2,1.166.936Zm6.473-.046A2.557,2.557,0,0,1,12.1-.939a2.216,2.216,0,0,1-.66-1.7v-.107a2.236,2.236,0,0,1,.66-1.71,2.557,2.557,0,0,1,1.825-.621,2.568,2.568,0,0,1,1.81.621,2.209,2.209,0,0,1,.675,1.71v.107a2.216,2.216,0,0,1-.66,1.7A2.557,2.557,0,0,1,13.927-.317Zm0-1.258a.9.9,0,0,0,.7-.276,1.025,1.025,0,0,0,.253-.721v-.245a1.025,1.025,0,0,0-.253-.721.9.9,0,0,0-.7-.276.9.9,0,0,0-.7.276,1.025,1.025,0,0,0-.253.721v.245a1.025,1.025,0,0,0,.253.721A.9.9,0,0,0,13.927-1.575ZM8.067-6.607a2.557,2.557,0,0,1-1.825-.621,2.216,2.216,0,0,1-.66-1.7V-9.03a2.236,2.236,0,0,1,.66-1.71,2.557,2.557,0,0,1,1.825-.621,2.568,2.568,0,0,1,1.81.621,2.209,2.209,0,0,1,.675,1.71v.107a2.216,2.216,0,0,1-.66,1.7A2.557,2.557,0,0,1,8.067-6.607Zm0-1.258a.9.9,0,0,0,.7-.276,1.025,1.025,0,0,0,.253-.721v-.245a1.025,1.025,0,0,0-.253-.721.9.9,0,0,0-.7-.276.9.9,0,0,0-.7.276,1.025,1.025,0,0,0-.253.721v.245a1.025,1.025,0,0,0,.253.721A.9.9,0,0,0,8.067-7.865Z" transform="translate(309.375 6897.814)" fill="#ff7c10"/>
    <path id="Caminho_740" data-name="Caminho 740" d="M-11.011-.471V-2.649h-5.277v-2.27l3.712-6.289h3.528V-4.4h1.779v1.749H-9.048V-.471ZM-14.417-4.4h3.405V-9.951h-.276l-3.129,5.308Zm8.7,6.182V.741h.6A.624.624,0,0,0-4.415.035V-.455h-.261A1.462,1.462,0,0,1-5.7-.824,1.207,1.207,0,0,1-6.1-1.759a1.308,1.308,0,0,1,.407-1,1.428,1.428,0,0,1,1.02-.383,1.406,1.406,0,0,1,1.028.391,1.4,1.4,0,0,1,.4,1.051V.066A1.519,1.519,0,0,1-4.967,1.784ZM.739-.471v-9.3H.463L-.979-6.361H-3.034l2.194-4.847H2.7V-.471Zm5.246.2L4.82-1.207l8.253-10.2,1.166.936Zm6.473-.046a2.557,2.557,0,0,1-1.825-.621,2.216,2.216,0,0,1-.66-1.7v-.107a2.236,2.236,0,0,1,.66-1.71,2.557,2.557,0,0,1,1.825-.621,2.568,2.568,0,0,1,1.81.621,2.209,2.209,0,0,1,.675,1.71v.107a2.216,2.216,0,0,1-.66,1.7A2.557,2.557,0,0,1,12.459-.317Zm0-1.258a.9.9,0,0,0,.7-.276,1.025,1.025,0,0,0,.253-.721v-.245a1.025,1.025,0,0,0-.253-.721.9.9,0,0,0-.7-.276.9.9,0,0,0-.7.276,1.025,1.025,0,0,0-.253.721v.245a1.025,1.025,0,0,0,.253.721A.9.9,0,0,0,12.459-1.575ZM6.6-6.607a2.557,2.557,0,0,1-1.825-.621,2.216,2.216,0,0,1-.66-1.7V-9.03a2.236,2.236,0,0,1,.66-1.71A2.557,2.557,0,0,1,6.6-11.362a2.568,2.568,0,0,1,1.81.621,2.209,2.209,0,0,1,.675,1.71v.107a2.216,2.216,0,0,1-.66,1.7A2.557,2.557,0,0,1,6.6-6.607Zm0-1.258a.9.9,0,0,0,.7-.276,1.025,1.025,0,0,0,.253-.721v-.245A1.025,1.025,0,0,0,7.3-9.828a.9.9,0,0,0-.7-.276.9.9,0,0,0-.7.276,1.025,1.025,0,0,0-.253.721v.245a1.025,1.025,0,0,0,.253.721A.9.9,0,0,0,6.6-7.865Z" transform="translate(304.392 6970.871)" fill="#ff7c10"/>
    <path id="Caminho_743" data-name="Caminho 743" d="M-13.154-.471v-9.3h-.276l-1.442,3.405h-2.056l2.194-4.847h3.543V-.471Zm4.188,2.255V.74h.6A.624.624,0,0,0-7.663.035V-.456h-.261a1.462,1.462,0,0,1-1.02-.368A1.207,1.207,0,0,1-9.35-1.76a1.308,1.308,0,0,1,.407-1,1.428,1.428,0,0,1,1.02-.383A1.406,1.406,0,0,1-6.9-2.749,1.4,1.4,0,0,1-6.5-1.7V.065A1.519,1.519,0,0,1-8.215,1.784ZM-.883-.257A4.351,4.351,0,0,1-3.935-1.307,4.1,4.1,0,0,1-5.086-4.49v-2.7a4.12,4.12,0,0,1,1.15-3.152A4.276,4.276,0,0,1-.883-11.424a4.27,4.27,0,0,1,3.06,1.081A4.135,4.135,0,0,1,3.32-7.19v2.7A4.117,4.117,0,0,1,2.178-1.307,4.345,4.345,0,0,1-.883-.257Zm0-1.749a2.125,2.125,0,0,0,1.7-.629,2.661,2.661,0,0,0,.545-1.795V-7.282A2.423,2.423,0,0,0,.751-9.069,2.208,2.208,0,0,0-.883-9.675a2.152,2.152,0,0,0-1.649.629,2.477,2.477,0,0,0-.591,1.764v2.853a2.6,2.6,0,0,0,.56,1.818A2.177,2.177,0,0,0-.883-2.005ZM6.358-.272,5.192-1.208l8.253-10.2,1.166.936Zm6.473-.046a2.557,2.557,0,0,1-1.825-.621,2.216,2.216,0,0,1-.66-1.7v-.107a2.236,2.236,0,0,1,.66-1.71,2.557,2.557,0,0,1,1.825-.621,2.568,2.568,0,0,1,1.81.621,2.209,2.209,0,0,1,.675,1.71v.107a2.216,2.216,0,0,1-.66,1.7A2.557,2.557,0,0,1,12.831-.318Zm0-1.258a.9.9,0,0,0,.7-.276,1.025,1.025,0,0,0,.253-.721v-.245a1.025,1.025,0,0,0-.253-.721.9.9,0,0,0-.7-.276.9.9,0,0,0-.7.276,1.025,1.025,0,0,0-.253.721v.245a1.025,1.025,0,0,0,.253.721A.9.9,0,0,0,12.831-1.576ZM6.971-6.607a2.557,2.557,0,0,1-1.825-.621,2.216,2.216,0,0,1-.66-1.7v-.107a2.236,2.236,0,0,1,.66-1.71,2.557,2.557,0,0,1,1.825-.621,2.568,2.568,0,0,1,1.81.621,2.209,2.209,0,0,1,.675,1.71v.107a2.216,2.216,0,0,1-.66,1.7A2.557,2.557,0,0,1,6.971-6.607Zm0-1.258a.9.9,0,0,0,.7-.276,1.025,1.025,0,0,0,.253-.721v-.245a1.025,1.025,0,0,0-.253-.721.9.9,0,0,0-.7-.276.9.9,0,0,0-.7.276,1.025,1.025,0,0,0-.253.721v.245a1.025,1.025,0,0,0,.253.721A.9.9,0,0,0,6.971-7.865Z" transform="translate(179.944 7049.61)" fill="#ff7c10"/>
    <path id="Caminho_742" data-name="Caminho 742" d="M-12.866-.471v-9.3h-.276l-1.442,3.405H-16.64l2.194-4.847H-10.9V-.471Zm4.188,2.255V.74h.6A.624.624,0,0,0-7.375.035V-.456h-.261a1.462,1.462,0,0,1-1.02-.368,1.207,1.207,0,0,1-.407-.936,1.308,1.308,0,0,1,.407-1,1.428,1.428,0,0,1,1.02-.383,1.406,1.406,0,0,1,1.028.391,1.4,1.4,0,0,1,.4,1.051V.065A1.519,1.519,0,0,1-7.927,1.784Zm7.9-2.04A5.942,5.942,0,0,1-2.949-.625,3.3,3.3,0,0,1-4.422-1.691,2.651,2.651,0,0,1-4.951-3.34v-.184a2.549,2.549,0,0,1,.261-1.22A2.168,2.168,0,0,1-4.038-5.5a2.65,2.65,0,0,1,.744-.383v-.276A2.471,2.471,0,0,1-4-6.561,2.045,2.045,0,0,1-4.575-7.3,2.518,2.518,0,0,1-4.8-8.4v-.184a2.332,2.332,0,0,1,.5-1.48,3.268,3.268,0,0,1,1.4-1,5.7,5.7,0,0,1,2.117-.36,5.7,5.7,0,0,1,2.117.36,3.268,3.268,0,0,1,1.4,1,2.332,2.332,0,0,1,.5,1.48V-8.4a2.518,2.518,0,0,1-.222,1.1,2.085,2.085,0,0,1-.568.736,2.317,2.317,0,0,1-.713.4v.276a2.5,2.5,0,0,1,.752.383,2.2,2.2,0,0,1,.644.759,2.549,2.549,0,0,1,.261,1.22v.184a2.651,2.651,0,0,1-.529,1.649A3.3,3.3,0,0,1,1.392-.625,5.942,5.942,0,0,1-.779-.257Zm0-1.749A2.8,2.8,0,0,0,.855-2.412,1.262,1.262,0,0,0,1.43-3.493v-.123A1.272,1.272,0,0,0,.87-4.7,2.792,2.792,0,0,0-.779-5.1,2.8,2.8,0,0,0-2.42-4.7a1.267,1.267,0,0,0-.568,1.081v.123a1.262,1.262,0,0,0,.575,1.081A2.8,2.8,0,0,0-.779-2.005Zm0-4.847A2.757,2.757,0,0,0,.74-7.206a1.126,1.126,0,0,0,.537-1v-.123a1.118,1.118,0,0,0-.552-1,2.771,2.771,0,0,0-1.5-.353,2.771,2.771,0,0,0-1.5.353,1.118,1.118,0,0,0-.552,1V-8.2a1.126,1.126,0,0,0,.537,1A2.757,2.757,0,0,0-.779-6.853ZM6.094-.272,4.928-1.208l8.253-10.2,1.166.936Zm6.473-.046a2.557,2.557,0,0,1-1.825-.621,2.216,2.216,0,0,1-.66-1.7v-.107a2.236,2.236,0,0,1,.66-1.71,2.557,2.557,0,0,1,1.825-.621,2.568,2.568,0,0,1,1.81.621,2.209,2.209,0,0,1,.675,1.71v.107a2.216,2.216,0,0,1-.66,1.7A2.557,2.557,0,0,1,12.567-.318Zm0-1.258a.9.9,0,0,0,.7-.276,1.025,1.025,0,0,0,.253-.721v-.245a1.025,1.025,0,0,0-.253-.721.9.9,0,0,0-.7-.276.9.9,0,0,0-.7.276,1.025,1.025,0,0,0-.253.721v.245a1.025,1.025,0,0,0,.253.721A.9.9,0,0,0,12.567-1.576ZM6.707-6.607a2.557,2.557,0,0,1-1.825-.621,2.216,2.216,0,0,1-.66-1.7v-.107a2.236,2.236,0,0,1,.66-1.71,2.557,2.557,0,0,1,1.825-.621,2.568,2.568,0,0,1,1.81.621,2.209,2.209,0,0,1,.675,1.71v.107a2.216,2.216,0,0,1-.66,1.7A2.557,2.557,0,0,1,6.707-6.607Zm0-1.258a.9.9,0,0,0,.7-.276,1.025,1.025,0,0,0,.253-.721v-.245a1.025,1.025,0,0,0-.253-.721.9.9,0,0,0-.7-.276.9.9,0,0,0-.7.276,1.025,1.025,0,0,0-.253.721v.245a1.025,1.025,0,0,0,.253.721A.9.9,0,0,0,6.707-7.865Z" transform="translate(254.438 7030.536)" fill="#ff7c10"/>
    <path id="Caminho_748" data-name="Caminho 748" d="M-25.248-1.913V-8.438H-23.1l1.538,5.769h.149V-8.438h1.109v6.524h-2.134L-23.98-7.683h-.158v5.769Zm8.705.13a2.961,2.961,0,0,1-1.347-.284,2,2,0,0,1-.867-.825,2.591,2.591,0,0,1-.3-1.286v-4.26h1.118V-4.15a1.341,1.341,0,0,0,.364,1.007,1.422,1.422,0,0,0,1.035.354A1.418,1.418,0,0,0-15.5-3.143a1.351,1.351,0,0,0,.359-1.007V-8.438h1.118v4.26a2.623,2.623,0,0,1-.3,1.286,1.971,1.971,0,0,1-.867.825A2.99,2.99,0,0,1-16.543-1.783Zm6.226,0a2.64,2.64,0,0,1-1.9-.676A2.559,2.559,0,0,1-12.926-4.4V-5.949a2.559,2.559,0,0,1,.708-1.943,2.64,2.64,0,0,1,1.9-.676,2.48,2.48,0,0,1,1.841.652,2.428,2.428,0,0,1,.648,1.79v.056h-1.1v-.084a1.5,1.5,0,0,0-.34-1.011,1.308,1.308,0,0,0-1.049-.4,1.413,1.413,0,0,0-1.086.424,1.646,1.646,0,0,0-.4,1.17v1.585a1.65,1.65,0,0,0,.4,1.165,1.405,1.405,0,0,0,1.086.429,1.308,1.308,0,0,0,1.049-.4A1.5,1.5,0,0,0-8.928-4.2v-.158h1.1v.13a2.428,2.428,0,0,1-.648,1.79A2.48,2.48,0,0,1-10.316-1.783Zm3.542-.13V-8.438h1.128v5.508H-2.59v1.016Zm5.061,0V-8.438H2.444v1.016H-.586v1.715H2.183v1.016H-.586v1.762H2.49v1.016Zm4.726,0L4.8-8.438H6.75l1.79,6.524H7.384L6.992-3.4H4.559L4.168-1.913ZM4.82-4.43H6.731L5.855-7.738H5.7ZM9.369-1.913V-8.438h2.787a2.5,2.5,0,0,1,1.072.214,1.7,1.7,0,0,1,.713.6,1.64,1.64,0,0,1,.256.927v.1a1.514,1.514,0,0,1-.289.969,1.711,1.711,0,0,1-.7.531v.149a.79.79,0,0,1,.573.252.9.9,0,0,1,.21.624v2.153H12.873V-3.908a.554.554,0,0,0-.126-.377.511.511,0,0,0-.405-.144H10.5v2.517ZM10.5-5.446h1.547A1.071,1.071,0,0,0,12.8-5.7a.892.892,0,0,0,.275-.685v-.084a.911.911,0,0,0-.27-.694,1.067,1.067,0,0,0-.764-.256H10.5Z" transform="translate(184.361 7034.184)"/>
    <path id="Caminho_747" data-name="Caminho 747" d="M-19.819-2.251a2.64,2.64,0,0,1-1.9-.676,2.559,2.559,0,0,1-.708-1.943V-6.418a2.559,2.559,0,0,1,.708-1.943,2.64,2.64,0,0,1,1.9-.676,2.48,2.48,0,0,1,1.841.652,2.428,2.428,0,0,1,.648,1.79v.056h-1.1v-.084a1.5,1.5,0,0,0-.34-1.011,1.308,1.308,0,0,0-1.049-.4,1.413,1.413,0,0,0-1.086.424,1.646,1.646,0,0,0-.4,1.17v1.585a1.65,1.65,0,0,0,.4,1.165,1.405,1.405,0,0,0,1.086.429,1.308,1.308,0,0,0,1.049-.4,1.5,1.5,0,0,0,.34-1.011v-.158h1.1v.13a2.428,2.428,0,0,1-.648,1.79A2.48,2.48,0,0,1-19.819-2.251Zm3.011-.13,1.79-6.524h1.948l1.79,6.524h-1.156l-.391-1.491h-2.433l-.391,1.491ZM-15-4.9h1.911l-.876-3.309h-.158Zm4.548,2.517V-8.906h2.787a2.5,2.5,0,0,1,1.072.214,1.7,1.7,0,0,1,.713.6,1.64,1.64,0,0,1,.256.927v.1a1.514,1.514,0,0,1-.289.969,1.711,1.711,0,0,1-.7.531v.149a.79.79,0,0,1,.573.252.9.9,0,0,1,.21.624v2.153H-6.948V-4.377a.554.554,0,0,0-.126-.377A.511.511,0,0,0-7.479-4.9H-9.324v2.517Zm1.128-3.533h1.547a1.071,1.071,0,0,0,.76-.256.892.892,0,0,0,.275-.685V-6.94a.911.911,0,0,0-.27-.694,1.067,1.067,0,0,0-.764-.256H-9.324ZM-3.4-2.382-5.13-8.906h1.156L-2.5-3.1h.13L-.889-8.906H.267L-1.476-2.382Zm3.579,0,1.79-6.524H3.92L5.71-2.382H4.554L4.163-3.873H1.73L1.339-2.382ZM1.991-4.9H3.9L3.026-8.207H2.867Zm-.14-4.465-.559-.429.3-.419a1.349,1.349,0,0,1,.345-.336.786.786,0,0,1,.438-.121.8.8,0,0,1,.368.075,1.523,1.523,0,0,1,.3.214q.1.093.2.168a.366.366,0,0,0,.228.075.319.319,0,0,0,.228-.084,1.348,1.348,0,0,0,.163-.186l.177-.252.559.438-.3.41a1.23,1.23,0,0,1-.336.336.786.786,0,0,1-.438.121.8.8,0,0,1-.368-.075,1.762,1.762,0,0,1-.312-.214q-.093-.084-.191-.163a.352.352,0,0,0-.228-.079A.309.309,0,0,0,2.2-9.8q-.089.089-.172.191ZM8.972-2.251a2.717,2.717,0,0,1-1.934-.676,2.532,2.532,0,0,1-.722-1.943V-6.418a2.532,2.532,0,0,1,.722-1.943,2.717,2.717,0,0,1,1.934-.676,2.713,2.713,0,0,1,1.939.676,2.541,2.541,0,0,1,.718,1.943v1.547a2.541,2.541,0,0,1-.718,1.943A2.713,2.713,0,0,1,8.972-2.251Zm0-1.007A1.492,1.492,0,0,0,10.1-3.682a1.6,1.6,0,0,0,.405-1.151V-6.455A1.6,1.6,0,0,0,10.1-7.606,1.492,1.492,0,0,0,8.972-8.03a1.48,1.48,0,0,0-1.123.424,1.6,1.6,0,0,0-.405,1.151v1.622a1.6,1.6,0,0,0,.405,1.151A1.48,1.48,0,0,0,8.972-3.258ZM-24.186,8.492V1.968h2.1l1.268,5.769h.158l1.277-5.769H-17.3V8.492h-1.081V2.779h-.158l-1.268,5.714h-1.864l-1.268-5.714H-23.1V8.492Zm8.184,0V1.968h1.128V8.492Zm2.414,0V1.968h2.144l1.538,5.769h.149V1.968h1.109V8.492h-2.134l-1.538-5.769h-.158V8.492Zm6.226,0V1.968h4.157V2.984H-6.234V4.7h2.768V5.715H-6.234V7.476h3.076V8.492Zm5.182,0V1.968H.607a2.5,2.5,0,0,1,1.072.214,1.7,1.7,0,0,1,.713.6,1.64,1.64,0,0,1,.256.927v.1a1.514,1.514,0,0,1-.289.969,1.711,1.711,0,0,1-.7.531v.149a.79.79,0,0,1,.573.252.9.9,0,0,1,.21.624V8.492H1.325V6.5A.554.554,0,0,0,1.2,6.12a.511.511,0,0,0-.405-.144H-1.052V8.492ZM-1.052,4.96H.5a1.071,1.071,0,0,0,.76-.256.892.892,0,0,0,.275-.685V3.934a.911.911,0,0,0-.27-.694A1.067,1.067,0,0,0,.5,2.984H-1.052ZM3.254,8.492l1.79-6.524H6.991l1.79,6.524H7.625L7.234,7H4.8L4.41,8.492ZM5.062,5.975H6.973L6.1,2.667H5.938ZM9.611,8.492V1.968h1.128V7.476H13.8V8.492Z" transform="translate(258.839 7000.825)"/>
    <path id="Caminho_746" data-name="Caminho 746" d="M-35.868-2.382V-8.906h1.128v6.524Zm2.414,0V-8.906h2.1l1.268,5.769h.158l1.277-5.769h2.088v6.524h-1.081V-8.1h-.158l-1.268,5.714h-1.864L-32.2-8.1h-.158v5.714Zm8.184,0V-8.906h2.638a2.311,2.311,0,0,1,1.081.242,1.841,1.841,0,0,1,.736.685,1.973,1.973,0,0,1,.27,1.049v.13a1.953,1.953,0,0,1-.275,1.044,1.855,1.855,0,0,1-.746.69,2.3,2.3,0,0,1-1.067.242h-1.51v2.442Zm1.128-3.458h1.4a1.128,1.128,0,0,0,.778-.261.911.911,0,0,0,.294-.718v-.093a.918.918,0,0,0-.289-.718,1.124,1.124,0,0,0-.783-.261h-1.4Zm6.99,3.588a2.717,2.717,0,0,1-1.934-.676,2.532,2.532,0,0,1-.722-1.943V-6.418a2.532,2.532,0,0,1,.722-1.943,2.717,2.717,0,0,1,1.934-.676,2.713,2.713,0,0,1,1.939.676A2.541,2.541,0,0,1-14.5-6.418v1.547a2.541,2.541,0,0,1-.718,1.943A2.713,2.713,0,0,1-17.152-2.251Zm0-1.007a1.492,1.492,0,0,0,1.132-.424,1.6,1.6,0,0,0,.405-1.151V-6.455a1.6,1.6,0,0,0-.405-1.151,1.492,1.492,0,0,0-1.132-.424,1.48,1.48,0,0,0-1.123.424,1.6,1.6,0,0,0-.405,1.151v1.622a1.6,1.6,0,0,0,.405,1.151A1.48,1.48,0,0,0-17.152-3.258Zm3.784.876V-8.906h2.787a2.5,2.5,0,0,1,1.072.214,1.7,1.7,0,0,1,.713.6,1.64,1.64,0,0,1,.256.927v.1a1.514,1.514,0,0,1-.289.969,1.71,1.71,0,0,1-.7.531v.149a.79.79,0,0,1,.573.252.9.9,0,0,1,.21.624v2.153H-9.863V-4.377a.554.554,0,0,0-.126-.377.511.511,0,0,0-.405-.144H-12.24v2.517Zm1.128-3.533h1.547a1.071,1.071,0,0,0,.76-.256.892.892,0,0,0,.275-.685V-6.94a.911.911,0,0,0-.27-.694,1.067,1.067,0,0,0-.764-.256H-12.24Zm6.189,3.533V-7.89H-8V-8.906h5.014V-7.89H-4.933v5.508Zm2.861,0L-1.4-8.906H.548l1.79,6.524H1.181L.79-3.873H-1.643l-.391,1.491ZM-1.382-4.9H.529L-.347-8.207H-.506ZM5.553-2.251a2.64,2.64,0,0,1-1.9-.676,2.559,2.559,0,0,1-.708-1.943V-6.418a2.559,2.559,0,0,1,.708-1.943,2.64,2.64,0,0,1,1.9-.676,2.48,2.48,0,0,1,1.841.652,2.428,2.428,0,0,1,.648,1.79v.056h-1.1v-.084A1.5,1.5,0,0,0,6.6-7.634a1.308,1.308,0,0,0-1.049-.4,1.413,1.413,0,0,0-1.086.424,1.646,1.646,0,0,0-.4,1.17v1.585a1.65,1.65,0,0,0,.4,1.165,1.405,1.405,0,0,0,1.086.429,1.308,1.308,0,0,0,1.049-.4,1.5,1.5,0,0,0,.34-1.011v-.158h1.1v.13A2.428,2.428,0,0,1,7.394-2.9,2.48,2.48,0,0,1,5.553-2.251Zm0,1.845A2.657,2.657,0,0,1,4.98-.467,2.954,2.954,0,0,1,4.5-.611L4.7-1.254a3.334,3.334,0,0,0,.364.117,1.73,1.73,0,0,0,.438.051.673.673,0,0,0,.312-.065.223.223,0,0,0,.126-.214.212.212,0,0,0-.112-.2.706.706,0,0,0-.345-.065H5.133l.075-.941h.736L5.9-2a.929.929,0,0,1,.6.191.681.681,0,0,1,.238.564.684.684,0,0,1-.168.475.99.99,0,0,1-.438.275A1.845,1.845,0,0,1,5.553-.406ZM8.563-2.382l1.79-6.524H12.3l1.79,6.524H12.935l-.391-1.491H10.111L9.719-2.382ZM10.372-4.9h1.911l-.876-3.309h-.158Zm-.14-4.465-.559-.429.3-.419a1.349,1.349,0,0,1,.345-.336.786.786,0,0,1,.438-.121.8.8,0,0,1,.368.075,1.523,1.523,0,0,1,.3.214q.1.093.2.168a.366.366,0,0,0,.228.075.319.319,0,0,0,.228-.084,1.348,1.348,0,0,0,.163-.186l.177-.252.559.438-.3.41a1.23,1.23,0,0,1-.336.336.786.786,0,0,1-.438.121.8.8,0,0,1-.368-.075,1.762,1.762,0,0,1-.312-.214q-.093-.084-.191-.163a.352.352,0,0,0-.228-.079.309.309,0,0,0-.228.089q-.089.089-.172.191Zm7.121,7.112a2.717,2.717,0,0,1-1.934-.676A2.532,2.532,0,0,1,14.7-4.871V-6.418a2.532,2.532,0,0,1,.722-1.943,2.717,2.717,0,0,1,1.934-.676,2.713,2.713,0,0,1,1.939.676,2.541,2.541,0,0,1,.718,1.943v1.547a2.541,2.541,0,0,1-.718,1.943A2.713,2.713,0,0,1,17.353-2.251Zm0-1.007a1.492,1.492,0,0,0,1.132-.424,1.6,1.6,0,0,0,.405-1.151V-6.455a1.6,1.6,0,0,0-.405-1.151,1.492,1.492,0,0,0-1.132-.424,1.48,1.48,0,0,0-1.123.424,1.6,1.6,0,0,0-.405,1.151v1.622a1.6,1.6,0,0,0,.405,1.151A1.48,1.48,0,0,0,17.353-3.258Z" transform="translate(311.649 6942.327)"/>
    <path id="Caminho_745" data-name="Caminho 745" d="M-28.128-.439V-8.492h3.256a2.853,2.853,0,0,1,1.335.3,2.272,2.272,0,0,1,.909.846A2.435,2.435,0,0,1-22.3-6.053v.161A2.411,2.411,0,0,1-22.634-4.6a2.29,2.29,0,0,1-.92.851,2.836,2.836,0,0,1-1.317.3h-1.864V-.439Zm1.392-4.268h1.726a1.392,1.392,0,0,0,.961-.322,1.124,1.124,0,0,0,.362-.886V-6.03a1.133,1.133,0,0,0-.357-.886,1.388,1.388,0,0,0-.966-.322h-1.726Zm5.545,4.268V-8.492h5.131v1.254H-19.8v2.117h3.417v1.254H-19.8v2.174H-16V-.439Zm8.295,0v-6.8h-2.4V-8.492h6.19v1.254h-2.4v6.8Zm4.867,0V-8.492h3.44a3.085,3.085,0,0,1,1.323.265,2.1,2.1,0,0,1,.88.742A2.025,2.025,0,0,1-2.07-6.341v.127a1.868,1.868,0,0,1-.357,1.2,2.111,2.111,0,0,1-.863.656v.184a.975.975,0,0,1,.708.311,1.109,1.109,0,0,1,.259.771V-.439H-3.7V-2.9a.684.684,0,0,0-.155-.466.631.631,0,0,0-.5-.178H-6.637V-.439ZM-6.637-4.8h1.91a1.321,1.321,0,0,0,.938-.316,1.1,1.1,0,0,0,.339-.846v-.1a1.125,1.125,0,0,0-.334-.857,1.317,1.317,0,0,0-.943-.316h-1.91ZM2.325-.278A3.354,3.354,0,0,1-.062-1.112a3.125,3.125,0,0,1-.892-2.4V-5.42a3.125,3.125,0,0,1,.892-2.4,3.354,3.354,0,0,1,2.387-.834,3.349,3.349,0,0,1,2.393.834A3.136,3.136,0,0,1,5.6-5.42v1.91a3.136,3.136,0,0,1-.886,2.4A3.349,3.349,0,0,1,2.325-.278Zm0-1.243a1.842,1.842,0,0,0,1.4-.523,1.971,1.971,0,0,0,.5-1.421v-2a1.971,1.971,0,0,0-.5-1.421,1.842,1.842,0,0,0-1.4-.523,1.827,1.827,0,0,0-1.386.523,1.971,1.971,0,0,0-.5,1.421v2a1.971,1.971,0,0,0,.5,1.421A1.827,1.827,0,0,0,2.325-1.52Zm-.84-7.639.805-1.473H3.832L2.682-9.159ZM7-.439V-8.492H8.388v6.8h3.774V-.439Zm6.247,0V-8.492h5.131v1.254H14.635v2.117h3.417v1.254H14.635v2.174h3.8V-.439Zm9.48.161a3.354,3.354,0,0,1-2.387-.834,3.125,3.125,0,0,1-.892-2.4V-5.42a3.125,3.125,0,0,1,.892-2.4,3.354,3.354,0,0,1,2.387-.834,3.349,3.349,0,0,1,2.393.834A3.136,3.136,0,0,1,26-5.42v1.91a3.136,3.136,0,0,1-.886,2.4A3.349,3.349,0,0,1,22.723-.278Zm0-1.243a1.842,1.842,0,0,0,1.4-.523,1.971,1.971,0,0,0,.5-1.421v-2a1.971,1.971,0,0,0-.5-1.421,1.842,1.842,0,0,0-1.4-.523,1.827,1.827,0,0,0-1.386.523,1.971,1.971,0,0,0-.5,1.421v2a1.971,1.971,0,0,0,.5,1.421A1.827,1.827,0,0,0,22.723-1.52Z" transform="translate(310.027 6866.551)"/>
    <path id="Caminho_749" data-name="Caminho 749" d="M-32.409-.658v-12.08h2.088v5.074h4.763v-5.074h2.088V-.658h-2.088V-5.766h-4.763V-.658Zm11.321,0v-12.08H-19V-.658Zm-.224-13.081,1.208-2.209h2.312l-1.726,2.209Zm4.3,13.081V-2.487h1.622v-8.422h-1.622v-1.829H-12.1A5.128,5.128,0,0,1-8.4-11.513,4.869,4.869,0,0,1-7.127-7.837v2.278A4.869,4.869,0,0,1-8.4-1.883,5.128,5.128,0,0,1-12.1-.658Zm3.693-1.881h1.243A2.837,2.837,0,0,0-9.906-3.3,3.1,3.1,0,0,0-9.2-5.49v-2.4a3.121,3.121,0,0,0-.708-2.218,2.857,2.857,0,0,0-2.174-.751h-1.243Zm8.18,1.881v-12.08H.017a4.628,4.628,0,0,1,1.985.4,3.144,3.144,0,0,1,1.32,1.113A3.037,3.037,0,0,1,3.8-9.511v.19a2.8,2.8,0,0,1-.535,1.795,3.167,3.167,0,0,1-1.294.984v.276A1.463,1.463,0,0,1,3.029-5.8a1.663,1.663,0,0,1,.388,1.156V-.658H1.346V-4.351a1.026,1.026,0,0,0-.233-.7.947.947,0,0,0-.751-.267H-3.054V-.658ZM-3.054-7.2H-.19a1.982,1.982,0,0,0,1.406-.475,1.651,1.651,0,0,0,.509-1.268V-9.1a1.687,1.687,0,0,0-.5-1.286A1.976,1.976,0,0,0-.19-10.857H-3.054ZM5.764-.658v-12.08H7.852V-.658Zm9.008.242a4.888,4.888,0,0,1-3.52-1.251,4.739,4.739,0,0,1-1.312-3.6V-8.13a4.739,4.739,0,0,1,1.312-3.6,4.888,4.888,0,0,1,3.52-1.251,4.591,4.591,0,0,1,3.408,1.208,4.5,4.5,0,0,1,1.2,3.313v.1H17.344V-8.51a2.772,2.772,0,0,0-.63-1.872,2.422,2.422,0,0,0-1.941-.733,2.617,2.617,0,0,0-2.01.785,3.048,3.048,0,0,0-.733,2.166v2.934a3.055,3.055,0,0,0,.733,2.157,2.6,2.6,0,0,0,2.01.794,2.422,2.422,0,0,0,1.941-.733,2.772,2.772,0,0,0,.63-1.872v-.293H19.38v.242a4.5,4.5,0,0,1-1.2,3.313A4.591,4.591,0,0,1,14.772-.416Zm5.574-.242,3.313-12.08h3.607L30.58-.658H28.44l-.725-2.761h-4.5L22.486-.658Zm3.348-4.659h3.538L25.61-11.444h-.293Z" transform="translate(171.458 6891.262)"/>
    <path id="Caminho_750" data-name="Caminho 750" d="M-30.054-.416a7.976,7.976,0,0,1-3.527-.723,5.305,5.305,0,0,1-2.281-2.044,5.815,5.815,0,0,1-.8-3.066V-6.5h3.241v.224a2.994,2.994,0,0,0,.835,2.131,3.252,3.252,0,0,0,2.48.885,3.423,3.423,0,0,0,2.53-.885,3.119,3.119,0,0,0,.885-2.306V-6.7a2.882,2.882,0,0,0-.885-2.219,3.116,3.116,0,0,0-2.206-.823,3.1,3.1,0,0,0-1.2.2,2.387,2.387,0,0,0-.773.5,3.961,3.961,0,0,0-.5.6h-3.864v-9.771H-24.2v2.892h-8.724v4.263h.449a3.08,3.08,0,0,1,.673-.623,3.745,3.745,0,0,1,1.1-.5,5.651,5.651,0,0,1,1.6-.2,6.111,6.111,0,0,1,2.817.648,4.982,4.982,0,0,1,2.032,1.907,5.9,5.9,0,0,1,.76,3.1v.3a6.222,6.222,0,0,1-.785,3.191A5.269,5.269,0,0,1-26.54-1.151,7.781,7.781,0,0,1-30.054-.416Zm16.626-.349V-4.3H-22V-7.994l6.032-10.22h5.733V-7.146h2.892V-4.3h-2.892v3.54Zm-5.534-6.381h5.534V-16.17h-.449l-5.085,8.625ZM-4.828,2.9V1.2h.972A1.014,1.014,0,0,0-2.709.058v-.8h-.424a2.376,2.376,0,0,1-1.658-.6,1.961,1.961,0,0,1-.661-1.521,2.126,2.126,0,0,1,.661-1.62A2.321,2.321,0,0,1-3.133-5.1a2.285,2.285,0,0,1,1.67.636A2.283,2.283,0,0,1-.815-2.759V.107A2.468,2.468,0,0,1-3.607,2.9ZM8.109-.416a8.281,8.281,0,0,1-3.49-.7A5.539,5.539,0,0,1,2.239-3.121a5.522,5.522,0,0,1-.86-3.1v-.449H4.569v.349a2.793,2.793,0,0,0,.972,2.231,3.8,3.8,0,0,0,2.567.835,3.69,3.69,0,0,0,2.505-.773A2.472,2.472,0,0,0,11.5-5.975v-.249a2.012,2.012,0,0,0-.4-1.3,2.322,2.322,0,0,0-1.072-.735,4.563,4.563,0,0,0-1.521-.237H5.018v-3.49l5.634-2.991v-.4H1.827v-2.842H14.191v4.238l-5.26,2.792v.4h.922a5.755,5.755,0,0,1,2.281.474,4.361,4.361,0,0,1,1.832,1.458A4.211,4.211,0,0,1,14.69-6.3V-6a5.277,5.277,0,0,1-.823,2.954A5.369,5.369,0,0,1,11.562-1.1,8.153,8.153,0,0,1,8.109-.416ZM19.376-.441,17.482-1.961,30.892-18.538l1.894,1.521ZM29.9-.516a4.155,4.155,0,0,1-2.966-1.01A3.6,3.6,0,0,1,25.857-4.28v-.174a3.633,3.633,0,0,1,1.072-2.779A4.155,4.155,0,0,1,29.9-8.243a4.173,4.173,0,0,1,2.941,1.01,3.59,3.59,0,0,1,1.1,2.779v.174a3.6,3.6,0,0,1-1.072,2.754A4.155,4.155,0,0,1,29.9-.516Zm0-2.044a1.462,1.462,0,0,0,1.134-.449,1.666,1.666,0,0,0,.411-1.172v-.4A1.666,1.666,0,0,0,31.03-5.75,1.462,1.462,0,0,0,29.9-6.2a1.462,1.462,0,0,0-1.134.449,1.666,1.666,0,0,0-.411,1.172v.4a1.666,1.666,0,0,0,.411,1.172A1.462,1.462,0,0,0,29.9-2.56Zm-9.522-8.176a4.155,4.155,0,0,1-2.966-1.01A3.6,3.6,0,0,1,16.335-14.5v-.174a3.633,3.633,0,0,1,1.072-2.779,4.155,4.155,0,0,1,2.966-1.01,4.173,4.173,0,0,1,2.941,1.01,3.59,3.59,0,0,1,1.1,2.779v.174a3.6,3.6,0,0,1-1.072,2.754A4.155,4.155,0,0,1,20.373-10.736Zm0-2.044a1.462,1.462,0,0,0,1.134-.449,1.666,1.666,0,0,0,.411-1.172v-.4a1.666,1.666,0,0,0-.411-1.172,1.462,1.462,0,0,0-1.134-.449,1.462,1.462,0,0,0-1.134.449,1.666,1.666,0,0,0-.411,1.172v.4a1.666,1.666,0,0,0,.411,1.172A1.462,1.462,0,0,0,20.373-12.78Z" transform="translate(171.873 6919.172)" fill="#ff7c10"/>
  </g>
</svg>
