<?xml version="1.0" encoding="UTF-8"?>
<!DOCTYPE svg PUBLIC "-//W3C//DTD SVG 1.1//EN" "http://www.w3.org/Graphics/SVG/1.1/DTD/svg11.dtd">
<!-- Creator: CorelDRAW -->
<svg xmlns="http://www.w3.org/2000/svg" xml:space="preserve" width="153.458mm" height="155.575mm" version="1.1" style="shape-rendering:geometricPrecision; text-rendering:geometricPrecision; image-rendering:optimizeQuality; fill-rule:evenodd; clip-rule:evenodd"
viewBox="0 0 3440.41 3487.86"
 xmlns:xlink="http://www.w3.org/1999/xlink"
 xmlns:xodm="http://www.corel.com/coreldraw/odm/2003">
 <defs>
  <style type="text/css">
   <![CDATA[
    .fil2 {fill:black;fill-rule:nonzero}
    .fil1 {fill:#FF7C10;fill-rule:nonzero}
    .fil0 {fill:white;fill-rule:nonzero}
   ]]>
  </style>
 </defs>
 <g id="Camada_x0020_1">
  <metadata id="CorelCorpID_0Corel-Layer"/>
  <g id="_2523814836976" filter="url(#Elipse_28)">
   <ellipse id="Elipse_28-2" class="fil0" cx="1921.88" cy="3398.88" rx="94.91" ry="88.97" data-name="Elipse 28"/>
  </g>
  <path class="fil1" d="M1835.18 3428.54l0 -64.7 -1.92 0 -10.04 23.7 -14.31 0 15.27 -33.74 24.66 0 0 74.74 -13.67 0zm29.15 15.7l0 -7.26 4.17 0c3.27,0 4.91,-1.64 4.91,-4.91l0 -3.42 -1.82 0c-2.85,0 -5.21,-0.85 -7.1,-2.56 -1.89,-1.71 -2.83,-3.88 -2.83,-6.52 0,-2.85 0.94,-5.16 2.83,-6.94 1.89,-1.78 4.25,-2.67 7.1,-2.67 2.92,0 5.3,0.91 7.15,2.72 1.85,1.81 2.78,4.25 2.78,7.31l0 12.28c0,7.97 -3.99,11.96 -11.96,11.96l-5.23 0zm56.27 -14.2c-8.83,0 -15.91,-2.44 -21.25,-7.32 -5.34,-4.87 -8.01,-12.26 -8.01,-22.15l0 -18.79c0,-9.61 2.67,-16.92 8.01,-21.94 5.34,-5.02 12.42,-7.53 21.25,-7.53 8.9,0 16,2.51 21.3,7.53 5.3,5.02 7.95,12.33 7.95,21.94l0 18.79c0,9.89 -2.65,17.28 -7.95,22.15 -5.3,4.88 -12.4,7.32 -21.3,7.32zm0 -12.17c5.34,0 9.27,-1.46 11.8,-4.38 2.53,-2.92 3.79,-7.08 3.79,-12.49l0 -19.86c0,-5.48 -1.41,-9.63 -4.22,-12.44 -2.81,-2.81 -6.6,-4.22 -11.37,-4.22 -4.91,0 -8.74,1.46 -11.48,4.38 -2.74,2.92 -4.11,7.01 -4.11,12.28l0 19.86c0,5.62 1.3,9.84 3.9,12.65 2.6,2.81 6.49,4.22 11.69,4.22zm50.4 12.07l-8.12 -6.51 57.44 -71 8.12 6.51 -57.44 71zm45.06 -0.32c-5.41,0 -9.64,-1.44 -12.7,-4.32 -3.06,-2.88 -4.59,-6.82 -4.59,-11.8l0 -0.75c0,-5.05 1.53,-9.02 4.59,-11.9 3.06,-2.88 7.3,-4.32 12.7,-4.32 5.27,0 9.47,1.44 12.6,4.32 3.13,2.88 4.7,6.85 4.7,11.9l0 0.75c0,4.98 -1.53,8.92 -4.59,11.8 -3.06,2.88 -7.3,4.32 -12.71,4.32zm0 -8.75c2.06,0 3.68,-0.64 4.86,-1.92 1.17,-1.28 1.76,-2.95 1.76,-5.02l0 -1.71c0,-2.06 -0.59,-3.74 -1.76,-5.02 -1.17,-1.28 -2.79,-1.92 -4.86,-1.92 -2.06,0 -3.68,0.64 -4.86,1.92 -1.17,1.28 -1.76,2.95 -1.76,5.02l0 1.71c0,2.06 0.59,3.74 1.76,5.02 1.17,1.28 2.8,1.92 4.86,1.92zm-40.78 -35.02c-5.41,0 -9.65,-1.44 -12.71,-4.32 -3.06,-2.88 -4.59,-6.82 -4.59,-11.8l0 -0.75c0,-5.05 1.53,-9.02 4.59,-11.9 3.06,-2.88 7.3,-4.32 12.71,-4.32 5.27,0 9.47,1.44 12.6,4.32 3.13,2.88 4.7,6.85 4.7,11.9l0 0.75c0,4.98 -1.53,8.91 -4.59,11.8 -3.06,2.88 -7.3,4.32 -12.7,4.32zm0 -8.75c2.06,0 3.68,-0.64 4.86,-1.92 1.17,-1.28 1.76,-2.95 1.76,-5.02l0 -1.71c0,-2.06 -0.59,-3.74 -1.76,-5.02 -1.17,-1.28 -2.79,-1.92 -4.86,-1.92 -2.06,0 -3.69,0.64 -4.86,1.92 -1.17,1.28 -1.76,2.95 -1.76,5.02l0 1.71c0,2.06 0.59,3.74 1.76,5.02 1.17,1.28 2.79,1.92 4.86,1.92z"/>
  <g id="_2523814831936" data-name="1,0%" filter="url(#Caminho_716)">
   <path id="Caminho_716-2" class="fil0" d="M1684.61 765.19c622.44,0 1127.03,504.59 1127.03,1127.03 0,622.44 -504.59,1127.03 -1127.03,1127.03 -622.44,0 -1127.03,-504.59 -1127.03,-1127.03 0,-622.44 504.59,-1127.03 1127.03,-1127.03z" data-name="Caminho 716"/>
  </g>
  <g id="Grupo_276" data-name="Grupo 276">
   <g filter="url(#Elipse_18)">
    <circle id="Elipse_18-2" class="fil0" cx="421.15" cy="765.19" r="421.15" data-name="Elipse 18"/>
   </g>
  </g>
  <g id="_2523814831024" filter="url(#Elipse_20)">
   <ellipse id="Elipse_20-2" class="fil0" cx="2346" cy="379.63" rx="305.48" ry="302.52" data-name="Elipse 20"/>
  </g>
  <path class="fil2" d="M2118.24 338.11l0 -11.01 8.73 0 0 -44.41 -8.73 0 0 -11.01 34.17 0c4.05,0 7.58,0.68 10.58,2.04 3.01,1.36 5.35,3.29 7.02,5.79 1.68,2.5 2.52,5.49 2.52,8.97l0 0.95c0,3.04 -0.57,5.52 -1.71,7.45 -1.14,1.93 -2.48,3.42 -4.03,4.46 -1.55,1.04 -3.02,1.79 -4.41,2.23l0 1.71c1.39,0.38 2.91,1.09 4.56,2.13 1.65,1.04 3.05,2.55 4.22,4.51 1.17,1.96 1.76,4.52 1.76,7.69l0 0.95c0,3.67 -0.85,6.82 -2.56,9.45 -1.71,2.63 -4.06,4.63 -7.07,6.03 -3,1.39 -6.5,2.09 -10.49,2.09l-34.55 0zm21.26 -11.39l11.77 0c2.72,0 4.92,-0.66 6.6,-1.99 1.68,-1.33 2.52,-3.23 2.52,-5.69l0 -0.95c0,-2.47 -0.82,-4.37 -2.47,-5.69 -1.65,-1.33 -3.86,-1.99 -6.65,-1.99l-11.77 0 0 16.32zm0 -27.71l11.58 0c2.59,0 4.73,-0.67 6.41,-1.99 1.68,-1.33 2.52,-3.16 2.52,-5.51l0 -0.95c0,-2.4 -0.82,-4.26 -2.47,-5.55 -1.65,-1.3 -3.8,-1.95 -6.45,-1.95l-11.58 0 0 15.94zm43.66 39.1l0 -66.43 12.53 0 0 66.43 -12.53 0zm50.87 1.33c-8.35,0 -15,-2.29 -19.93,-6.88 -4.94,-4.59 -7.4,-11.15 -7.4,-19.7l0 -15.94c0,-8.54 2.47,-15.11 7.4,-19.69 4.93,-4.59 11.58,-6.88 19.93,-6.88 8.35,0 14.99,2.29 19.93,6.88 4.94,4.59 7.4,11.15 7.4,19.69l0 15.94c0,8.54 -2.47,15.11 -7.4,19.7 -4.93,4.59 -11.58,6.88 -19.93,6.88zm0 -11.2c4.68,0 8.32,-1.36 10.91,-4.08 2.59,-2.72 3.89,-6.36 3.89,-10.91l0 -16.7c0,-4.56 -1.3,-8.19 -3.89,-10.91 -2.59,-2.72 -6.23,-4.08 -10.91,-4.08 -4.62,0 -8.24,1.36 -10.87,4.08 -2.63,2.72 -3.94,6.36 -3.94,10.91l0 16.7c0,4.56 1.31,8.19 3.94,10.91 2.63,2.72 6.25,4.08 10.87,4.08zm38.34 9.87l0 -66.43 23.25 0 11.48 57.89 1.71 0 11.48 -57.89 23.25 0 0 66.43 -12.15 0 0 -57.23 -1.71 0 -11.39 57.23 -20.69 0 -11.39 -57.23 -1.71 0 0 57.23 -12.15 0zm79.15 0l17.46 -66.43 21.83 0 17.46 66.43 -12.91 0 -3.61 -14.62 -23.73 0 -3.61 14.62 -12.91 0zm19.46 -26.19l17.84 0 -8.07 -32.36 -1.71 0 -8.07 32.36zm68.33 27.52c-5.13,0 -9.65,-0.92 -13.57,-2.75 -3.92,-1.83 -6.99,-4.46 -9.21,-7.88 -2.22,-3.42 -3.32,-7.53 -3.32,-12.34l0 -2.66 12.34 0 0 2.66c0,3.99 1.23,6.98 3.7,8.97 2.47,1.99 5.82,2.99 10.06,2.99 4.3,0 7.51,-0.85 9.63,-2.56 2.12,-1.71 3.18,-3.89 3.18,-6.55 0,-1.83 -0.52,-3.32 -1.57,-4.46 -1.04,-1.14 -2.56,-2.07 -4.56,-2.8 -1.99,-0.73 -4.41,-1.41 -7.26,-2.04l-2.18 -0.47c-4.56,-1.01 -8.46,-2.29 -11.72,-3.84 -3.26,-1.55 -5.76,-3.59 -7.5,-6.12 -1.74,-2.53 -2.61,-5.82 -2.61,-9.87 0,-4.05 0.96,-7.51 2.89,-10.39 1.93,-2.88 4.65,-5.09 8.16,-6.65 3.51,-1.55 7.64,-2.32 12.39,-2.32 4.75,0 8.97,0.81 12.67,2.42 3.7,1.61 6.61,4.02 8.73,7.21 2.12,3.19 3.18,7.2 3.18,12.01l0 2.85 -12.34 0 0 -2.85c0,-2.53 -0.49,-4.57 -1.47,-6.12 -0.98,-1.55 -2.39,-2.69 -4.22,-3.42 -1.84,-0.73 -4.02,-1.09 -6.55,-1.09 -3.8,0 -6.6,0.71 -8.4,2.13 -1.8,1.42 -2.7,3.37 -2.7,5.84 0,1.65 0.43,3.04 1.28,4.17 0.85,1.14 2.14,2.09 3.84,2.85 1.71,0.76 3.89,1.42 6.55,1.99l2.18 0.48c4.74,1.01 8.87,2.31 12.38,3.89 3.51,1.58 6.25,3.67 8.21,6.26 1.96,2.59 2.94,5.92 2.94,9.97 0,4.05 -1.03,7.61 -3.08,10.68 -2.06,3.07 -4.97,5.47 -8.73,7.21 -3.77,1.74 -8.21,2.61 -13.33,2.61zm57.51 0c-5.13,0 -9.65,-0.92 -13.57,-2.75 -3.92,-1.83 -6.99,-4.46 -9.21,-7.88 -2.22,-3.42 -3.32,-7.53 -3.32,-12.34l0 -2.66 12.34 0 0 2.66c0,3.99 1.23,6.98 3.7,8.97 2.47,1.99 5.82,2.99 10.06,2.99 4.3,0 7.51,-0.85 9.63,-2.56 2.12,-1.71 3.18,-3.89 3.18,-6.55 0,-1.83 -0.52,-3.32 -1.57,-4.46 -1.04,-1.14 -2.56,-2.07 -4.56,-2.8 -1.99,-0.73 -4.41,-1.41 -7.26,-2.04l-2.18 -0.47c-4.56,-1.01 -8.46,-2.29 -11.72,-3.84 -3.26,-1.55 -5.76,-3.59 -7.5,-6.12 -1.74,-2.53 -2.61,-5.82 -2.61,-9.87 0,-4.05 0.96,-7.51 2.89,-10.39 1.93,-2.88 4.65,-5.09 8.16,-6.65 3.51,-1.55 7.64,-2.32 12.39,-2.32 4.75,0 8.97,0.81 12.67,2.42 3.7,1.61 6.61,4.02 8.73,7.21 2.12,3.19 3.18,7.2 3.18,12.01l0 2.85 -12.34 0 0 -2.85c0,-2.53 -0.49,-4.57 -1.47,-6.12 -0.98,-1.55 -2.39,-2.69 -4.22,-3.42 -1.84,-0.73 -4.02,-1.09 -6.55,-1.09 -3.8,0 -6.6,0.71 -8.4,2.13 -1.8,1.42 -2.7,3.37 -2.7,5.84 0,1.65 0.43,3.04 1.28,4.17 0.85,1.14 2.14,2.09 3.84,2.85 1.71,0.76 3.89,1.42 6.55,1.99l2.18 0.48c4.74,1.01 8.87,2.31 12.38,3.89 3.51,1.58 6.25,3.67 8.21,6.26 1.96,2.59 2.94,5.92 2.94,9.97 0,4.05 -1.03,7.61 -3.08,10.68 -2.06,3.07 -4.97,5.47 -8.73,7.21 -3.77,1.74 -8.21,2.61 -13.33,2.61zm29.9 -1.33l17.46 -66.43 21.83 0 17.46 66.43 -12.91 0 -3.61 -14.62 -23.73 0 -3.61 14.62 -12.91 0zm19.46 -26.19l17.84 0 -8.07 -32.36 -1.71 0 -8.07 32.36z"/>
  <path class="fil1" d="M2214.29 480.47l0 -3.7c0,-3.7 0.28,-6.86 0.85,-9.47 0.57,-2.61 1.8,-5.58 3.7,-8.9l33.45 -59.08 0 -2.28 -52.96 0 0 -16.23 71.75 0 0 21.64 -35.31 63.07c-1.23,2.18 -2.09,4.13 -2.56,5.84 -0.48,1.71 -0.71,3.8 -0.71,6.26l0 2.85 -18.22 0zm61.78 20.93l0 -9.68 5.55 0c4.37,0 6.55,-2.18 6.55,-6.55l0 -4.56 -2.42 0c-3.8,0 -6.95,-1.14 -9.47,-3.42 -2.52,-2.28 -3.77,-5.17 -3.77,-8.68 0,-3.8 1.26,-6.88 3.77,-9.25 2.52,-2.37 5.67,-3.56 9.47,-3.56 3.89,0 7.07,1.21 9.54,3.63 2.47,2.42 3.7,5.67 3.7,9.75l0 16.37c0,10.63 -5.32,15.94 -15.94,15.94l-6.97 0zm73.03 -18.94c-7.4,0 -13.83,-1.23 -19.29,-3.7 -5.46,-2.47 -9.68,-6.03 -12.67,-10.68 -2.99,-4.65 -4.48,-10.2 -4.48,-16.66l18.51 0c0,3.99 1.4,7.45 4.2,10.39 2.8,2.94 7.38,4.41 13.74,4.41 6.45,0 11.39,-1.68 14.81,-5.05 3.42,-3.37 5.13,-7.95 5.13,-13.74l0 -10.25 -2.56 0c-1.61,1.9 -4.06,3.7 -7.33,5.41 -3.28,1.71 -8.14,2.56 -14.59,2.56 -5.69,0 -11.01,-1.23 -15.94,-3.7 -4.93,-2.47 -8.92,-6.05 -11.96,-10.75 -3.04,-4.7 -4.56,-10.37 -4.56,-17.01l0 -1.71c0,-6.64 1.57,-12.43 4.7,-17.37 3.13,-4.93 7.54,-8.8 13.24,-11.6 5.69,-2.8 12.34,-4.2 19.93,-4.2 7.59,0 14.19,1.42 19.79,4.27 5.6,2.85 9.92,6.79 12.95,11.81 3.04,5.03 4.56,10.82 4.56,17.37l0 34.03c0,8.07 -1.64,14.78 -4.91,20.14 -3.27,5.36 -7.78,9.37 -13.52,12.03 -5.74,2.66 -12.31,3.99 -19.72,3.99zm0.57 -51.82c3.99,0 7.43,-0.71 10.32,-2.14 2.89,-1.42 5.13,-3.42 6.69,-5.98 1.57,-2.56 2.35,-5.6 2.35,-9.11l0 -1.14c0,-5.31 -1.73,-9.51 -5.2,-12.6 -3.46,-3.08 -8.19,-4.63 -14.16,-4.63 -5.98,0 -10.7,1.54 -14.16,4.63 -3.46,3.08 -5.2,7.28 -5.2,12.6l0 1.14c0,3.51 0.78,6.55 2.35,9.11 1.56,2.56 3.82,4.56 6.76,5.98 2.94,1.42 6.36,2.14 10.25,2.14zm65.77 51.68l-10.82 -8.69 76.59 -94.67 10.82 8.69 -76.59 94.67zm60.08 -0.43c-7.21,0 -12.86,-1.92 -16.94,-5.77 -4.08,-3.84 -6.12,-9.09 -6.12,-15.73l0 -1c0,-6.74 2.04,-12.03 6.12,-15.87 4.08,-3.84 9.73,-5.77 16.94,-5.77 7.02,0 12.62,1.92 16.8,5.77 4.18,3.84 6.26,9.13 6.26,15.87l0 1c0,6.65 -2.04,11.89 -6.12,15.73 -4.08,3.84 -9.73,5.77 -16.94,5.77zm0 -11.67c2.75,0 4.91,-0.85 6.48,-2.56 1.57,-1.71 2.35,-3.94 2.35,-6.69l0 -2.28c0,-2.75 -0.78,-4.98 -2.35,-6.69 -1.56,-1.71 -3.72,-2.56 -6.48,-2.56 -2.75,0 -4.91,0.85 -6.48,2.56 -1.57,1.71 -2.35,3.94 -2.35,6.69l0 2.28c0,2.75 0.78,4.98 2.35,6.69 1.56,1.71 3.72,2.56 6.48,2.56zm-54.38 -46.69c-7.21,0 -12.86,-1.92 -16.94,-5.77 -4.08,-3.84 -6.12,-9.09 -6.12,-15.73l0 -1c0,-6.74 2.04,-12.03 6.12,-15.87 4.08,-3.84 9.73,-5.77 16.94,-5.77 7.02,0 12.62,1.92 16.8,5.77 4.18,3.84 6.26,9.13 6.26,15.87l0 1c0,6.65 -2.04,11.89 -6.12,15.73 -4.08,3.84 -9.73,5.77 -16.94,5.77zm0 -11.67c2.75,0 4.91,-0.85 6.48,-2.56 1.57,-1.71 2.35,-3.94 2.35,-6.69l0 -2.28c0,-2.75 -0.78,-4.98 -2.35,-6.69 -1.56,-1.71 -3.72,-2.56 -6.48,-2.56 -2.75,0 -4.91,0.85 -6.48,2.56 -1.57,1.71 -2.35,3.94 -2.35,6.69l0 2.28c0,2.75 0.78,4.98 2.35,6.69 1.56,1.71 3.72,2.56 6.48,2.56z"/>
  <g id="_2523814836256" data-name="7,9%" filter="url(#Elipse_21)">
   <circle id="Elipse_21-2" class="fil1" cx="2968.83" cy="975.77" r="293.62" data-name="Elipse 21"/>
  </g>
  <g id="Grupo_298" data-name="Grupo 298">
   <path class="fil0" d="M2854.49 932.61c-5.13,0 -9.65,-0.92 -13.57,-2.75 -3.92,-1.83 -6.99,-4.46 -9.21,-7.88 -2.22,-3.42 -3.32,-7.53 -3.32,-12.34l0 -2.66 12.34 0 0 2.66c0,3.99 1.23,6.98 3.7,8.97 2.47,1.99 5.82,2.99 10.06,2.99 4.3,0 7.51,-0.85 9.63,-2.56 2.12,-1.71 3.18,-3.89 3.18,-6.55 0,-1.83 -0.52,-3.32 -1.57,-4.46 -1.04,-1.14 -2.56,-2.07 -4.56,-2.8 -1.99,-0.73 -4.41,-1.41 -7.26,-2.04l-2.18 -0.47c-4.56,-1.01 -8.46,-2.29 -11.72,-3.84 -3.26,-1.55 -5.76,-3.59 -7.5,-6.12 -1.74,-2.53 -2.61,-5.82 -2.61,-9.87 0,-4.05 0.96,-7.51 2.89,-10.39 1.93,-2.88 4.65,-5.09 8.16,-6.65 3.51,-1.55 7.64,-2.32 12.39,-2.32 4.75,0 8.97,0.81 12.67,2.42 3.7,1.61 6.61,4.02 8.73,7.21 2.12,3.19 3.18,7.2 3.18,12.01l0 2.85 -12.34 0 0 -2.85c0,-2.53 -0.49,-4.57 -1.47,-6.12 -0.98,-1.55 -2.39,-2.69 -4.22,-3.42 -1.84,-0.73 -4.02,-1.09 -6.55,-1.09 -3.8,0 -6.6,0.71 -8.4,2.13 -1.8,1.42 -2.7,3.37 -2.7,5.84 0,1.65 0.43,3.04 1.28,4.17 0.85,1.14 2.14,2.09 3.84,2.85 1.71,0.76 3.89,1.42 6.55,1.99l2.18 0.48c4.74,1.01 8.87,2.31 12.38,3.89 3.51,1.58 6.25,3.67 8.21,6.26 1.96,2.59 2.94,5.92 2.94,9.97 0,4.05 -1.03,7.61 -3.08,10.68 -2.06,3.07 -4.97,5.47 -8.73,7.21 -3.77,1.74 -8.21,2.61 -13.33,2.61zm60.27 0c-8.35,0 -15,-2.29 -19.93,-6.88 -4.94,-4.59 -7.4,-11.15 -7.4,-19.7l0 -15.94c0,-8.54 2.47,-15.11 7.4,-19.69 4.93,-4.59 11.58,-6.88 19.93,-6.88 8.35,0 14.99,2.29 19.93,6.88 4.94,4.59 7.4,11.15 7.4,19.69l0 15.94c0,8.54 -2.47,15.11 -7.4,19.7 -4.93,4.59 -11.58,6.88 -19.93,6.88zm0 -11.2c4.68,0 8.32,-1.36 10.91,-4.08 2.59,-2.72 3.89,-6.36 3.89,-10.91l0 -16.7c0,-4.56 -1.3,-8.19 -3.89,-10.91 -2.59,-2.72 -6.23,-4.08 -10.91,-4.08 -4.62,0 -8.24,1.36 -10.87,4.08 -2.63,2.72 -3.94,6.36 -3.94,10.91l0 16.7c0,4.56 1.31,8.19 3.94,10.91 2.63,2.72 6.25,4.08 10.87,4.08zm38.34 9.87l0 -66.43 12.53 0 0 55.05 30.37 0 0 11.39 -42.9 0zm46.88 0l17.46 -66.43 21.83 0 17.46 66.43 -12.91 0 -3.61 -14.62 -23.73 0 -3.61 14.62 -12.91 0zm19.46 -26.19l17.84 0 -8.07 -32.36 -1.71 0 -8.07 32.36zm45.27 26.19l0 -66.43 28.85 0c4.18,0 7.82,0.73 10.92,2.18 3.1,1.46 5.5,3.51 7.21,6.17 1.71,2.66 2.56,5.79 2.56,9.4l0 1.14c0,3.99 -0.95,7.21 -2.85,9.68 -1.9,2.47 -4.24,4.27 -7.02,5.41l0 1.71c2.53,0.13 4.49,1 5.89,2.61 1.39,1.61 2.09,3.75 2.09,6.41l0 21.73 -12.53 0 0 -19.93c0,-1.52 -0.39,-2.75 -1.19,-3.7 -0.79,-0.95 -2.1,-1.42 -3.94,-1.42l-17.46 0 0 25.06 -12.53 0zm12.53 -36.44l15 0c2.97,0 5.3,-0.81 6.97,-2.42 1.68,-1.61 2.52,-3.75 2.52,-6.41l0 -0.95c0,-2.66 -0.82,-4.79 -2.47,-6.41 -1.65,-1.61 -3.99,-2.42 -7.02,-2.42l-15 0 0 18.6z"/>
   <path class="fil0" d="M2837.7 1079.58l0 -3.7c0,-3.7 0.28,-6.86 0.85,-9.47 0.57,-2.61 1.8,-5.58 3.7,-8.9l33.45 -59.08 0 -2.28 -52.96 0 0 -16.23 71.75 0 0 21.64 -35.31 63.07c-1.23,2.18 -2.09,4.13 -2.56,5.84 -0.48,1.71 -0.71,3.8 -0.71,6.26l0 2.85 -18.22 0zm61.78 20.93l0 -9.68 5.55 0c4.37,0 6.55,-2.18 6.55,-6.55l0 -4.56 -2.42 0c-3.8,0 -6.95,-1.14 -9.47,-3.42 -2.52,-2.28 -3.77,-5.17 -3.77,-8.68 0,-3.8 1.26,-6.88 3.77,-9.25 2.52,-2.37 5.67,-3.56 9.47,-3.56 3.89,0 7.07,1.21 9.54,3.63 2.47,2.42 3.7,5.67 3.7,9.75l0 16.37c0,10.63 -5.32,15.94 -15.94,15.94l-6.97 0zm73.6 -18.94c-7.59,0 -14.19,-1.42 -19.79,-4.27 -5.6,-2.85 -9.92,-6.79 -12.96,-11.82 -3.04,-5.03 -4.56,-10.82 -4.56,-17.37l0 -34.02c0,-8.07 1.64,-14.78 4.91,-20.14 3.27,-5.36 7.78,-9.37 13.52,-12.03 5.74,-2.66 12.31,-3.99 19.72,-3.99 7.4,0 13.83,1.23 19.29,3.7 5.46,2.47 9.68,6.03 12.67,10.68 2.99,4.65 4.48,10.2 4.48,16.66l-18.51 0c0,-3.99 -1.38,-7.45 -4.13,-10.39 -2.75,-2.94 -7.36,-4.41 -13.81,-4.41 -6.36,0 -11.27,1.66 -14.73,4.98 -3.46,3.32 -5.2,7.93 -5.2,13.81l0 10.25 2.56 0c1.61,-1.9 4.08,-3.7 7.4,-5.41 3.32,-1.71 8.16,-2.56 14.52,-2.56 5.79,0 11.13,1.23 16.02,3.7 4.89,2.47 8.85,6.05 11.89,10.75 3.04,4.7 4.56,10.37 4.56,17.01l0 1.71c0,6.55 -1.56,12.31 -4.7,17.3 -3.13,4.98 -7.55,8.87 -13.24,11.67 -5.69,2.8 -12.34,4.2 -19.93,4.2zm0.28 -16.23c5.98,0 10.7,-1.57 14.16,-4.7 3.46,-3.13 5.2,-7.31 5.2,-12.53l0 -1.14c0,-3.51 -0.78,-6.55 -2.35,-9.11 -1.56,-2.56 -3.8,-4.56 -6.69,-5.98 -2.89,-1.42 -6.34,-2.13 -10.32,-2.13 -3.89,0 -7.31,0.71 -10.25,2.13 -2.94,1.42 -5.2,3.42 -6.76,5.98 -1.57,2.56 -2.35,5.6 -2.35,9.11l0 1.14c0,5.22 1.73,9.4 5.2,12.53 3.46,3.13 8.19,4.7 14.16,4.7zm64.35 16.09l-10.82 -8.69 76.59 -94.67 10.82 8.69 -76.59 94.67zm60.08 -0.43c-7.21,0 -12.86,-1.92 -16.94,-5.77 -4.08,-3.84 -6.12,-9.09 -6.12,-15.73l0 -1c0,-6.74 2.04,-12.03 6.12,-15.87 4.08,-3.84 9.73,-5.77 16.94,-5.77 7.02,0 12.62,1.92 16.8,5.77 4.18,3.84 6.26,9.13 6.26,15.87l0 1c0,6.65 -2.04,11.89 -6.12,15.73 -4.08,3.84 -9.73,5.77 -16.94,5.77zm0 -11.67c2.75,0 4.91,-0.85 6.48,-2.56 1.57,-1.71 2.35,-3.94 2.35,-6.69l0 -2.28c0,-2.75 -0.78,-4.98 -2.35,-6.69 -1.56,-1.71 -3.72,-2.56 -6.48,-2.56 -2.75,0 -4.91,0.85 -6.48,2.56 -1.57,1.71 -2.35,3.94 -2.35,6.69l0 2.28c0,2.75 0.78,4.98 2.35,6.69 1.56,1.71 3.72,2.56 6.48,2.56zm-54.38 -46.69c-7.21,0 -12.86,-1.92 -16.94,-5.77 -4.08,-3.84 -6.12,-9.09 -6.12,-15.73l0 -1c0,-6.74 2.04,-12.03 6.12,-15.87 4.08,-3.84 9.73,-5.77 16.94,-5.77 7.02,0 12.62,1.92 16.8,5.77 4.18,3.84 6.26,9.13 6.26,15.87l0 1c0,6.65 -2.04,11.89 -6.12,15.73 -4.08,3.84 -9.73,5.77 -16.94,5.77zm0 -11.67c2.75,0 4.91,-0.85 6.48,-2.56 1.57,-1.71 2.35,-3.94 2.35,-6.69l0 -2.28c0,-2.75 -0.78,-4.98 -2.35,-6.69 -1.56,-1.71 -3.72,-2.56 -6.48,-2.56 -2.75,0 -4.91,0.85 -6.48,2.56 -1.57,1.71 -2.35,3.94 -2.35,6.69l0 2.28c0,2.75 0.78,4.98 2.35,6.69 1.56,1.71 3.72,2.56 6.48,2.56z"/>
  </g>
  <g id="_2523814836736" filter="url(#Elipse_27)">
   <ellipse id="Elipse_27-2" class="fil0" cx="2633.69" cy="3194.24" rx="160.16" ry="157.19" data-name="Elipse 27"/>
  </g>
  <path class="fil2" d="M2527.98 2925.51c-7.2,0 -12.9,-2.01 -17.11,-6.02 -4.21,-4.01 -6.31,-9.76 -6.31,-17.23l0 -13.95c0,-7.47 2.1,-13.22 6.31,-17.23 4.21,-4.02 9.91,-6.02 17.11,-6.02 7.14,0 12.66,1.95 16.57,5.85 3.9,3.9 5.85,9.26 5.85,16.07l0 0.5 -10.79 0 0 -0.83c0,-3.43 -0.96,-6.26 -2.87,-8.47 -1.91,-2.22 -4.83,-3.32 -8.76,-3.32 -3.88,0 -6.92,1.19 -9.14,3.57 -2.21,2.38 -3.32,5.62 -3.32,9.72l0 14.28c0,4.04 1.11,7.27 3.32,9.67 2.22,2.41 5.26,3.61 9.14,3.61 3.93,0 6.85,-1.12 8.76,-3.37 1.91,-2.24 2.87,-5.05 2.87,-8.43l0 -1.5 10.79 0 0 1.16c0,6.81 -1.95,12.17 -5.85,16.07 -3.9,3.9 -9.43,5.86 -16.57,5.86zm26.74 -1.16l15.28 -58.13 19.1 0 15.28 58.13 -11.29 0 -3.15 -12.79 -20.76 0 -3.16 12.79 -11.29 0zm17.02 -22.92l15.61 0 -7.06 -28.32 -1.5 0 -7.06 28.32zm39.61 22.92l0 -58.13 25.25 0c3.65,0 6.84,0.64 9.55,1.91 2.71,1.27 4.82,3.07 6.31,5.4 1.49,2.32 2.24,5.07 2.24,8.22l0 1c0,3.49 -0.83,6.31 -2.49,8.47 -1.66,2.16 -3.71,3.74 -6.15,4.73l0 1.49c2.22,0.11 3.93,0.87 5.15,2.28 1.22,1.41 1.83,3.28 1.83,5.6l0 19.02 -10.96 0 0 -17.44c0,-1.33 -0.35,-2.41 -1.04,-3.24 -0.69,-0.83 -1.84,-1.25 -3.45,-1.25l-15.28 0 0 21.92 -10.96 0zm10.96 -31.89l13.12 0c2.6,0 4.64,-0.71 6.1,-2.12 1.47,-1.41 2.2,-3.28 2.2,-5.6l0 -0.83c0,-2.33 -0.72,-4.19 -2.16,-5.61 -1.44,-1.41 -3.49,-2.12 -6.15,-2.12l-13.12 0 0 16.28zm51.32 31.89l-14.78 -58.13 11.29 0 12.29 51.07 1.16 0 12.29 -51.07 11.29 0 -14.78 58.13 -18.77 0zm32.72 0l15.28 -58.13 19.1 0 15.28 58.13 -11.29 0 -3.15 -12.79 -20.76 0 -3.16 12.79 -11.29 0zm17.02 -22.92l15.61 0 -7.06 -28.32 -1.5 0 -7.06 28.32zm-1.91 -39.03l-5.31 -4.23 2.66 -3.57c1,-1.33 2.06,-2.35 3.2,-3.07 1.13,-0.72 2.48,-1.08 4.03,-1.08 1.33,0 2.41,0.19 3.24,0.58 0.83,0.39 1.72,0.97 2.66,1.74 0.55,0.44 1.12,0.9 1.7,1.37 0.58,0.47 1.29,0.71 2.12,0.71 0.89,0 1.61,-0.28 2.16,-0.83 0.55,-0.55 1.08,-1.13 1.58,-1.74l1.41 -1.83 5.32 4.23 -2.66 3.57c-1,1.33 -2.06,2.35 -3.2,3.07 -1.13,0.72 -2.48,1.08 -4.03,1.08 -1.33,0 -2.41,-0.2 -3.24,-0.58 -0.83,-0.39 -1.72,-0.97 -2.66,-1.74 -0.55,-0.44 -1.12,-0.9 -1.7,-1.37 -0.58,-0.47 -1.29,-0.71 -2.12,-0.71 -0.89,0 -1.61,0.28 -2.16,0.83 -0.55,0.55 -1.08,1.13 -1.58,1.74l-1.41 1.83zm63.61 63.11c-7.31,0 -13.12,-2.01 -17.44,-6.02 -4.32,-4.01 -6.48,-9.76 -6.48,-17.23l0 -13.95c0,-7.47 2.16,-13.22 6.48,-17.23 4.32,-4.02 10.13,-6.02 17.44,-6.02 7.31,0 13.12,2.01 17.44,6.02 4.32,4.01 6.48,9.76 6.48,17.23l0 13.95c0,7.47 -2.16,13.22 -6.48,17.23 -4.32,4.01 -10.13,6.02 -17.44,6.02zm0 -9.8c4.1,0 7.28,-1.19 9.55,-3.57 2.27,-2.38 3.41,-5.56 3.41,-9.55l0 -14.62c0,-3.99 -1.13,-7.17 -3.41,-9.55 -2.27,-2.38 -5.45,-3.57 -9.55,-3.57 -4.04,0 -7.21,1.19 -9.51,3.57 -2.3,2.38 -3.45,5.56 -3.45,9.55l0 14.62c0,3.99 1.15,7.17 3.45,9.55 2.3,2.38 5.47,3.57 9.51,3.57zm-301.95 85.87l0 -58.13 20.35 0 10.05 50.66 1.5 0 10.05 -50.66 20.35 0 0 58.13 -10.63 0 0 -50.08 -1.5 0 -9.97 50.08 -18.1 0 -9.97 -50.08 -1.5 0 0 50.08 -10.63 0zm73.25 0l0 -58.13 10.96 0 0 58.13 -10.96 0zm21.92 0l0 -58.13 20.84 0 11.54 50.66 1.5 0 0 -50.66 10.79 0 0 58.13 -20.84 0 -11.54 -50.66 -1.5 0 0 50.66 -10.79 0zm55.64 0l0 -58.13 37.37 0 0 9.97 -26.41 0 0 13.87 24.08 0 0 9.97 -24.08 0 0 14.37 26.91 0 0 9.97 -37.87 0zm46.01 0l0 -58.13 25.25 0c3.65,0 6.84,0.64 9.55,1.91 2.71,1.27 4.82,3.07 6.31,5.4 1.49,2.32 2.24,5.07 2.24,8.22l0 1c0,3.49 -0.83,6.31 -2.49,8.47 -1.66,2.16 -3.71,3.74 -6.15,4.73l0 1.49c2.22,0.11 3.93,0.87 5.15,2.28 1.22,1.41 1.83,3.28 1.83,5.6l0 19.02 -10.96 0 0 -17.44c0,-1.33 -0.35,-2.41 -1.04,-3.24 -0.69,-0.83 -1.84,-1.25 -3.45,-1.25l-15.28 0 0 21.92 -10.96 0zm10.96 -31.89l13.12 0c2.6,0 4.64,-0.71 6.1,-2.12 1.47,-1.41 2.2,-3.28 2.2,-5.6l0 -0.83c0,-2.33 -0.72,-4.19 -2.16,-5.61 -1.44,-1.41 -3.49,-2.12 -6.15,-2.12l-13.12 0 0 16.28zm37.54 31.89l15.28 -58.13 19.1 0 15.28 58.13 -11.29 0 -3.15 -12.79 -20.76 0 -3.16 12.79 -11.29 0zm17.02 -22.92l15.61 0 -7.06 -28.32 -1.5 0 -7.06 28.32zm39.61 22.92l0 -58.13 10.96 0 0 48.17 26.58 0 0 9.97 -37.54 0z"/>
  <path class="fil1" d="M2548.91 3232.79l0 -64.7 -1.92 0 -10.04 23.7 -14.31 0 15.27 -33.74 24.66 0 0 74.74 -13.67 0zm29.15 15.7l0 -7.26 4.17 0c3.27,0 4.91,-1.64 4.91,-4.91l0 -3.42 -1.82 0c-2.85,0 -5.21,-0.85 -7.1,-2.56 -1.89,-1.71 -2.83,-3.88 -2.83,-6.52 0,-2.85 0.94,-5.16 2.83,-6.94 1.89,-1.78 4.25,-2.67 7.1,-2.67 2.92,0 5.3,0.91 7.15,2.72 1.85,1.81 2.78,4.25 2.78,7.31l0 12.28c0,7.97 -3.99,11.96 -11.96,11.96l-5.23 0zm54.99 -14.2c-5.69,0 -10.73,-0.85 -15.11,-2.56 -4.38,-1.71 -7.8,-4.18 -10.25,-7.42 -2.46,-3.24 -3.68,-7.06 -3.68,-11.48l0 -1.28c0,-3.42 0.6,-6.25 1.81,-8.49 1.21,-2.24 2.72,-4 4.54,-5.28 1.82,-1.28 3.54,-2.17 5.18,-2.67l0 -1.92c-1.64,-0.57 -3.27,-1.5 -4.91,-2.78 -1.64,-1.28 -2.97,-2.99 -4,-5.13 -1.03,-2.14 -1.55,-4.7 -1.55,-7.69l0 -1.28c0,-3.91 1.16,-7.35 3.47,-10.3 2.31,-2.95 5.57,-5.27 9.77,-6.94 4.2,-1.67 9.11,-2.51 14.74,-2.51 5.62,0 10.53,0.84 14.73,2.51 4.2,1.67 7.46,3.99 9.77,6.94 2.31,2.95 3.47,6.39 3.47,10.3l0 1.28c0,2.99 -0.52,5.55 -1.55,7.69 -1.03,2.13 -2.35,3.84 -3.95,5.13 -1.6,1.28 -3.26,2.21 -4.97,2.78l0 1.92c1.71,0.5 3.45,1.39 5.23,2.67 1.78,1.28 3.27,3.04 4.48,5.28 1.21,2.24 1.82,5.07 1.82,8.49l0 1.28c0,4.41 -1.23,8.24 -3.69,11.48 -2.45,3.24 -5.87,5.71 -10.25,7.42 -4.38,1.71 -9.41,2.56 -15.11,2.56zm0 -12.17c4.91,0 8.7,-0.94 11.37,-2.83 2.67,-1.89 4,-4.39 4,-7.53l0 -0.85c0,-3.13 -1.3,-5.64 -3.9,-7.53 -2.6,-1.89 -6.42,-2.83 -11.48,-2.83 -4.98,0 -8.79,0.94 -11.42,2.83 -2.63,1.89 -3.95,4.4 -3.95,7.53l0 0.85c0,3.13 1.33,5.64 4,7.53 2.67,1.89 6.46,2.83 11.37,2.83zm0 -33.74c4.56,0 8.08,-0.82 10.57,-2.45 2.49,-1.64 3.74,-3.95 3.74,-6.94l0 -0.85c0,-2.99 -1.28,-5.3 -3.84,-6.94 -2.56,-1.64 -6.05,-2.45 -10.46,-2.45 -4.41,0 -7.9,0.82 -10.47,2.45 -2.56,1.64 -3.84,3.95 -3.84,6.94l0 0.85c0,2.99 1.24,5.3 3.74,6.94 2.49,1.64 6.02,2.45 10.57,2.45zm47.83 45.8l-8.12 -6.51 57.44 -71 8.12 6.51 -57.44 71zm45.06 -0.32c-5.41,0 -9.64,-1.44 -12.7,-4.32 -3.06,-2.88 -4.59,-6.82 -4.59,-11.8l0 -0.75c0,-5.05 1.53,-9.02 4.59,-11.9 3.06,-2.88 7.3,-4.32 12.7,-4.32 5.27,0 9.47,1.44 12.6,4.32 3.13,2.88 4.7,6.85 4.7,11.9l0 0.75c0,4.98 -1.53,8.92 -4.59,11.8 -3.06,2.88 -7.3,4.32 -12.71,4.32zm0 -8.75c2.06,0 3.68,-0.64 4.86,-1.92 1.17,-1.28 1.76,-2.95 1.76,-5.02l0 -1.71c0,-2.06 -0.59,-3.74 -1.76,-5.02 -1.17,-1.28 -2.79,-1.92 -4.86,-1.92 -2.06,0 -3.68,0.64 -4.86,1.92 -1.17,1.28 -1.76,2.95 -1.76,5.02l0 1.71c0,2.06 0.59,3.74 1.76,5.02 1.17,1.28 2.8,1.92 4.86,1.92zm-40.78 -35.02c-5.41,0 -9.65,-1.44 -12.71,-4.32 -3.06,-2.88 -4.59,-6.82 -4.59,-11.8l0 -0.75c0,-5.05 1.53,-9.02 4.59,-11.9 3.06,-2.88 7.3,-4.32 12.71,-4.32 5.27,0 9.47,1.44 12.6,4.32 3.13,2.88 4.7,6.85 4.7,11.9l0 0.75c0,4.98 -1.53,8.91 -4.59,11.8 -3.06,2.88 -7.3,4.32 -12.7,4.32zm0 -8.75c2.06,0 3.68,-0.64 4.86,-1.92 1.17,-1.28 1.76,-2.95 1.76,-5.02l0 -1.71c0,-2.06 -0.59,-3.74 -1.76,-5.02 -1.17,-1.28 -2.79,-1.92 -4.86,-1.92 -2.06,0 -3.69,0.64 -4.86,1.92 -1.17,1.28 -1.76,2.95 -1.76,5.02l0 1.71c0,2.06 0.59,3.74 1.76,5.02 1.17,1.28 2.79,1.92 4.86,1.92z"/>
  <g id="_2523814839328" data-name="CARVÃO
MINERAL" filter="url(#Elipse_26)">
   <ellipse id="Elipse_26-2" class="fil0" cx="3102.3" cy="2506.16" rx="237.27" ry="234.3" data-name="Elipse 26"/>
  </g>
  <g id="Grupo_265" data-name="Grupo 265">
   <path class="fil2" d="M2853.83 2491.32l0 -58.13 10.96 0 0 58.13 -10.96 0zm21.92 0l0 -58.13 20.35 0 10.05 50.66 1.5 0 10.05 -50.66 20.35 0 0 58.13 -10.63 0 0 -50.08 -1.5 0 -9.97 50.08 -18.1 0 -9.97 -50.08 -1.5 0 0 50.08 -10.63 0zm73.25 0l0 -58.13 23.92 0c3.65,0 6.88,0.73 9.67,2.2 2.8,1.47 4.98,3.53 6.56,6.19 1.58,2.66 2.37,5.81 2.37,9.47l0 1.16c0,3.6 -0.82,6.74 -2.45,9.43 -1.63,2.69 -3.85,4.76 -6.65,6.23 -2.8,1.47 -5.97,2.2 -9.51,2.2l-12.96 0 0 21.26 -10.96 0zm10.96 -31.23l11.88 0c2.6,0 4.71,-0.72 6.31,-2.16 1.61,-1.44 2.41,-3.41 2.41,-5.9l0 -0.83c0,-2.49 -0.8,-4.46 -2.41,-5.9 -1.61,-1.44 -3.71,-2.16 -6.31,-2.16l-11.88 0 0 16.94zm61.78 32.39c-7.31,0 -13.12,-2.01 -17.44,-6.02 -4.32,-4.01 -6.48,-9.76 -6.48,-17.23l0 -13.95c0,-7.47 2.16,-13.22 6.48,-17.23 4.32,-4.02 10.13,-6.02 17.44,-6.02 7.31,0 13.12,2.01 17.44,6.02 4.32,4.01 6.48,9.76 6.48,17.23l0 13.95c0,7.47 -2.16,13.22 -6.48,17.23 -4.32,4.01 -10.13,6.02 -17.44,6.02zm0 -9.8c4.1,0 7.28,-1.19 9.55,-3.57 2.27,-2.38 3.41,-5.56 3.41,-9.55l0 -14.62c0,-3.99 -1.13,-7.17 -3.41,-9.55 -2.27,-2.38 -5.45,-3.57 -9.55,-3.57 -4.04,0 -7.21,1.19 -9.51,3.57 -2.3,2.38 -3.45,5.56 -3.45,9.55l0 14.62c0,3.99 1.15,7.17 3.45,9.55 2.3,2.38 5.47,3.57 9.51,3.57zm33.55 8.64l0 -58.13 25.25 0c3.65,0 6.84,0.64 9.55,1.91 2.71,1.27 4.82,3.07 6.31,5.4 1.49,2.32 2.24,5.07 2.24,8.22l0 1c0,3.49 -0.83,6.31 -2.49,8.47 -1.66,2.16 -3.71,3.74 -6.15,4.73l0 1.49c2.22,0.11 3.93,0.87 5.15,2.28 1.22,1.41 1.83,3.28 1.83,5.6l0 19.02 -10.96 0 0 -17.44c0,-1.33 -0.35,-2.41 -1.04,-3.24 -0.69,-0.83 -1.84,-1.25 -3.45,-1.25l-15.28 0 0 21.92 -10.96 0zm10.96 -31.89l13.12 0c2.6,0 4.64,-0.71 6.1,-2.12 1.47,-1.41 2.2,-3.28 2.2,-5.6l0 -0.83c0,-2.33 -0.72,-4.19 -2.16,-5.61 -1.44,-1.41 -3.49,-2.12 -6.15,-2.12l-13.12 0 0 16.28zm53.98 31.89l0 -48.17 -16.94 0 0 -9.97 44.85 0 0 9.97 -16.94 0 0 48.17 -10.96 0zm26.08 0l15.28 -58.13 19.1 0 15.28 58.13 -11.29 0 -3.15 -12.79 -20.76 0 -3.16 12.79 -11.29 0zm17.02 -22.92l15.61 0 -7.06 -28.32 -1.5 0 -7.06 28.32zm61.2 24.08c-7.2,0 -12.9,-2.01 -17.11,-6.02 -4.21,-4.01 -6.31,-9.76 -6.31,-17.23l0 -13.95c0,-7.47 2.1,-13.22 6.31,-17.23 4.21,-4.02 9.91,-6.02 17.11,-6.02 7.14,0 12.66,1.95 16.57,5.85 3.9,3.9 5.85,9.26 5.85,16.07l0 0.5 -10.79 0 0 -0.83c0,-3.43 -0.96,-6.26 -2.87,-8.47 -1.91,-2.22 -4.83,-3.32 -8.76,-3.32 -3.88,0 -6.92,1.19 -9.14,3.57 -2.21,2.38 -3.32,5.62 -3.32,9.72l0 14.28c0,4.04 1.11,7.27 3.32,9.67 2.22,2.41 5.26,3.61 9.14,3.61 3.93,0 6.85,-1.12 8.76,-3.37 1.91,-2.24 2.87,-5.05 2.87,-8.43l0 -1.5 10.79 0 0 1.16c0,6.81 -1.95,12.17 -5.85,16.07 -3.9,3.9 -9.43,5.86 -16.57,5.86zm0 16.61c-1.77,0 -3.5,-0.17 -5.19,-0.5 -1.69,-0.33 -3.14,-0.69 -4.36,-1.08l1.66 -6.23c1.05,0.33 2.17,0.64 3.36,0.91 1.19,0.28 2.53,0.41 4.03,0.41 1.11,0 2.02,-0.2 2.74,-0.58 0.72,-0.39 1.08,-1 1.08,-1.83 0,-0.77 -0.32,-1.34 -0.96,-1.7 -0.64,-0.36 -1.67,-0.54 -3.11,-0.54l-3.16 0 0.58 -8.3 7.14 0 -0.33 4.9c2.1,0 3.89,0.58 5.36,1.74 1.47,1.16 2.2,2.88 2.2,5.15 0,1.77 -0.53,3.23 -1.58,4.36 -1.05,1.13 -2.42,1.96 -4.11,2.49 -1.69,0.53 -3.47,0.79 -5.36,0.79zm26.74 -17.77l15.28 -58.13 19.1 0 15.28 58.13 -11.29 0 -3.15 -12.79 -20.76 0 -3.16 12.79 -11.29 0zm17.02 -22.92l15.61 0 -7.06 -28.32 -1.5 0 -7.06 28.32zm-1.91 -39.03l-5.31 -4.23 2.66 -3.57c1,-1.33 2.06,-2.35 3.2,-3.07 1.13,-0.72 2.48,-1.08 4.03,-1.08 1.33,0 2.41,0.19 3.24,0.58 0.83,0.39 1.72,0.97 2.66,1.74 0.55,0.44 1.12,0.9 1.7,1.37 0.58,0.47 1.29,0.71 2.12,0.71 0.89,0 1.61,-0.28 2.16,-0.83 0.55,-0.55 1.08,-1.13 1.58,-1.74l1.41 -1.83 5.32 4.23 -2.66 3.57c-1,1.33 -2.06,2.35 -3.2,3.07 -1.13,0.72 -2.48,1.08 -4.03,1.08 -1.33,0 -2.41,-0.2 -3.24,-0.58 -0.83,-0.39 -1.72,-0.97 -2.66,-1.74 -0.55,-0.44 -1.12,-0.9 -1.7,-1.37 -0.58,-0.47 -1.29,-0.71 -2.12,-0.71 -0.89,0 -1.61,0.28 -2.16,0.83 -0.55,0.55 -1.08,1.13 -1.58,1.74l-1.41 1.83zm63.61 63.11c-7.31,0 -13.12,-2.01 -17.44,-6.02 -4.32,-4.01 -6.48,-9.76 -6.48,-17.23l0 -13.95c0,-7.47 2.16,-13.22 6.48,-17.23 4.32,-4.02 10.13,-6.02 17.44,-6.02 7.31,0 13.12,2.01 17.44,6.02 4.32,4.01 6.48,9.76 6.48,17.23l0 13.95c0,7.47 -2.16,13.22 -6.48,17.23 -4.32,4.01 -10.13,6.02 -17.44,6.02zm0 -9.8c4.1,0 7.28,-1.19 9.55,-3.57 2.27,-2.38 3.41,-5.56 3.41,-9.55l0 -14.62c0,-3.99 -1.13,-7.17 -3.41,-9.55 -2.27,-2.38 -5.45,-3.57 -9.55,-3.57 -4.04,0 -7.21,1.19 -9.51,3.57 -2.3,2.38 -3.45,5.56 -3.45,9.55l0 14.62c0,3.99 1.15,7.17 3.45,9.55 2.3,2.38 5.47,3.57 9.51,3.57z"/>
   <path class="fil1" d="M3030.33 2598.09l0 -15.16 -36.73 0 0 -15.8 25.84 -43.78 24.56 0 0 47.41 12.39 0 0 12.17 -12.39 0 0 15.16 -13.67 0zm-23.7 -27.33l23.7 0 0 -38.65 -1.92 0 -21.78 36.94 0 1.71zm60.54 43.03l0 -7.26 4.17 0c3.27,0 4.91,-1.64 4.91,-4.91l0 -3.42 -1.82 0c-2.85,0 -5.21,-0.85 -7.1,-2.56 -1.89,-1.71 -2.83,-3.88 -2.83,-6.52 0,-2.85 0.94,-5.16 2.83,-6.94 1.89,-1.78 4.25,-2.67 7.1,-2.67 2.92,0 5.3,0.91 7.15,2.72 1.85,1.81 2.78,4.25 2.78,7.31l0 12.28c0,7.97 -3.99,11.96 -11.96,11.96l-5.23 0zm44.95 -15.7l0 -64.7 -1.92 0 -10.04 23.7 -14.31 0 15.27 -33.74 24.66 0 0 74.74 -13.67 0zm36.52 1.39l-8.12 -6.51 57.44 -71 8.12 6.51 -57.44 71zm45.06 -0.32c-5.41,0 -9.64,-1.44 -12.7,-4.32 -3.06,-2.88 -4.59,-6.82 -4.59,-11.8l0 -0.75c0,-5.05 1.53,-9.02 4.59,-11.9 3.06,-2.88 7.3,-4.32 12.7,-4.32 5.27,0 9.47,1.44 12.6,4.32 3.13,2.88 4.7,6.85 4.7,11.9l0 0.75c0,4.98 -1.53,8.92 -4.59,11.8 -3.06,2.88 -7.3,4.32 -12.71,4.32zm0 -8.75c2.06,0 3.68,-0.64 4.86,-1.92 1.17,-1.28 1.76,-2.95 1.76,-5.02l0 -1.71c0,-2.06 -0.59,-3.74 -1.76,-5.02 -1.17,-1.28 -2.79,-1.92 -4.86,-1.92 -2.06,0 -3.68,0.64 -4.86,1.92 -1.17,1.28 -1.76,2.95 -1.76,5.02l0 1.71c0,2.06 0.59,3.74 1.76,5.02 1.17,1.28 2.8,1.92 4.86,1.92zm-40.78 -35.02c-5.41,0 -9.65,-1.44 -12.71,-4.32 -3.06,-2.88 -4.59,-6.82 -4.59,-11.8l0 -0.75c0,-5.05 1.53,-9.02 4.59,-11.9 3.06,-2.88 7.3,-4.32 12.71,-4.32 5.27,0 9.47,1.44 12.6,4.32 3.13,2.88 4.7,6.85 4.7,11.9l0 0.75c0,4.98 -1.53,8.91 -4.59,11.8 -3.06,2.88 -7.3,4.32 -12.7,4.32zm0 -8.75c2.06,0 3.68,-0.64 4.86,-1.92 1.17,-1.28 1.76,-2.95 1.76,-5.02l0 -1.71c0,-2.06 -0.59,-3.74 -1.76,-5.02 -1.17,-1.28 -2.79,-1.92 -4.86,-1.92 -2.06,0 -3.69,0.64 -4.86,1.92 -1.17,1.28 -1.76,2.95 -1.76,5.02l0 1.71c0,2.06 0.59,3.74 1.76,5.02 1.17,1.28 2.79,1.92 4.86,1.92z"/>
  </g>
  <g id="_2523814841152" filter="url(#Elipse_22)">
   <circle id="Elipse_22-2" class="fil0" cx="3206.1" cy="1770.62" r="234.3" data-name="Elipse 22"/>
  </g>
  <path class="fil2" d="M3008.23 1755.79l0 -58.13 23.92 0c3.65,0 6.88,0.73 9.67,2.2 2.8,1.47 4.98,3.53 6.56,6.19 1.58,2.66 2.37,5.81 2.37,9.47l0 1.16c0,3.6 -0.82,6.74 -2.45,9.43 -1.63,2.69 -3.85,4.76 -6.65,6.23 -2.8,1.47 -5.97,2.2 -9.51,2.2l-12.96 0 0 21.26 -10.96 0zm10.96 -31.23l11.88 0c2.6,0 4.71,-0.72 6.31,-2.16 1.61,-1.44 2.41,-3.41 2.41,-5.9l0 -0.83c0,-2.49 -0.8,-4.46 -2.41,-5.9 -1.61,-1.44 -3.71,-2.16 -6.31,-2.16l-11.88 0 0 16.94zm39.2 31.23l0 -58.13 37.37 0 0 9.97 -26.41 0 0 13.87 24.08 0 0 9.97 -24.08 0 0 14.37 26.91 0 0 9.97 -37.87 0zm59.46 0l0 -48.17 -16.94 0 0 -9.97 44.85 0 0 9.97 -16.94 0 0 48.17 -10.96 0zm35.38 0l0 -58.13 25.25 0c3.65,0 6.84,0.64 9.55,1.91 2.71,1.27 4.82,3.07 6.31,5.4 1.49,2.32 2.24,5.07 2.24,8.22l0 1c0,3.49 -0.83,6.31 -2.49,8.47 -1.66,2.16 -3.71,3.74 -6.15,4.73l0 1.49c2.22,0.11 3.93,0.87 5.15,2.28 1.22,1.41 1.83,3.28 1.83,5.6l0 19.02 -10.96 0 0 -17.44c0,-1.33 -0.35,-2.41 -1.04,-3.24 -0.69,-0.83 -1.84,-1.25 -3.45,-1.25l-15.28 0 0 21.92 -10.96 0zm10.96 -31.89l13.12 0c2.6,0 4.64,-0.71 6.1,-2.12 1.47,-1.41 2.2,-3.28 2.2,-5.6l0 -0.83c0,-2.33 -0.72,-4.19 -2.16,-5.61 -1.44,-1.41 -3.49,-2.12 -6.15,-2.12l-13.12 0 0 16.28zm64.11 33.05c-7.31,0 -13.12,-2.01 -17.44,-6.02 -4.32,-4.01 -6.48,-9.76 -6.48,-17.23l0 -13.95c0,-7.47 2.16,-13.22 6.48,-17.23 4.32,-4.02 10.13,-6.02 17.44,-6.02 7.31,0 13.12,2.01 17.44,6.02 4.32,4.01 6.48,9.76 6.48,17.23l0 13.95c0,7.47 -2.16,13.22 -6.48,17.23 -4.32,4.01 -10.13,6.02 -17.44,6.02zm0 -9.8c4.1,0 7.28,-1.19 9.55,-3.57 2.27,-2.38 3.41,-5.56 3.41,-9.55l0 -14.62c0,-3.99 -1.13,-7.17 -3.41,-9.55 -2.27,-2.38 -5.45,-3.57 -9.55,-3.57 -4.04,0 -7.21,1.19 -9.51,3.57 -2.3,2.38 -3.45,5.56 -3.45,9.55l0 14.62c0,3.99 1.15,7.17 3.45,9.55 2.3,2.38 5.47,3.57 9.51,3.57zm-6.48 -54.31l5.81 -10.79 12.12 0 -8.64 10.79 -9.3 0zm40.03 62.95l0 -58.13 10.96 0 0 48.17 26.58 0 0 9.97 -37.54 0zm45.01 0l0 -58.13 37.37 0 0 9.97 -26.41 0 0 13.87 24.08 0 0 9.97 -24.08 0 0 14.37 26.91 0 0 9.97 -37.87 0zm68.59 1.16c-7.31,0 -13.12,-2.01 -17.44,-6.02 -4.32,-4.01 -6.48,-9.76 -6.48,-17.23l0 -13.95c0,-7.47 2.16,-13.22 6.48,-17.23 4.32,-4.02 10.13,-6.02 17.44,-6.02 7.31,0 13.12,2.01 17.44,6.02 4.32,4.01 6.48,9.76 6.48,17.23l0 13.95c0,7.47 -2.16,13.22 -6.48,17.23 -4.32,4.01 -10.13,6.02 -17.44,6.02zm0 -9.8c4.1,0 7.28,-1.19 9.55,-3.57 2.27,-2.38 3.41,-5.56 3.41,-9.55l0 -14.62c0,-3.99 -1.13,-7.17 -3.41,-9.55 -2.27,-2.38 -5.45,-3.57 -9.55,-3.57 -4.04,0 -7.21,1.19 -9.51,3.57 -2.3,2.38 -3.45,5.56 -3.45,9.55l0 14.62c0,3.99 1.15,7.17 3.45,9.55 2.3,2.38 5.47,3.57 9.51,3.57z"/>
  <path class="fil1" d="M3120.5 1862.56l0 -15.16 -36.73 0 0 -15.8 25.84 -43.78 24.56 0 0 47.41 12.39 0 0 12.17 -12.39 0 0 15.16 -13.67 0zm-23.7 -27.33l23.7 0 0 -38.65 -1.92 0 -21.78 36.94 0 1.71zm60.54 43.03l0 -7.26 4.17 0c3.27,0 4.91,-1.64 4.91,-4.91l0 -3.42 -1.82 0c-2.85,0 -5.21,-0.85 -7.1,-2.56 -1.89,-1.71 -2.83,-3.88 -2.83,-6.52 0,-2.85 0.94,-5.16 2.83,-6.94 1.89,-1.78 4.25,-2.67 7.1,-2.67 2.92,0 5.3,0.91 7.15,2.72 1.85,1.81 2.78,4.25 2.78,7.31l0 12.28c0,7.97 -3.99,11.96 -11.96,11.96l-5.23 0zm55.31 -14.2c-5.84,0 -10.87,-1.03 -15.11,-3.1 -4.23,-2.06 -7.49,-4.98 -9.77,-8.76 -2.28,-3.77 -3.42,-8.15 -3.42,-13.13l0 -1.07 13.88 0 0 0.96c0,3.56 1.19,6.6 3.58,9.13 2.39,2.53 5.93,3.79 10.62,3.79 4.7,0 8.31,-1.26 10.84,-3.79 2.53,-2.53 3.79,-5.82 3.79,-9.88l0 -1.07c0,-3.99 -1.26,-7.15 -3.79,-9.5 -2.53,-2.35 -5.68,-3.52 -9.45,-3.52 -2.06,0 -3.77,0.28 -5.13,0.85 -1.35,0.57 -2.45,1.28 -3.31,2.13 -0.85,0.85 -1.57,1.71 -2.14,2.56l-16.55 0 0 -41.85 51.03 0 0 12.39 -37.37 0 0 18.26 1.92 0c0.71,-0.93 1.67,-1.82 2.88,-2.67 1.21,-0.85 2.78,-1.56 4.7,-2.13 1.92,-0.57 4.2,-0.85 6.83,-0.85 4.41,0 8.44,0.92 12.07,2.78 3.63,1.85 6.53,4.57 8.7,8.17 2.17,3.6 3.26,8.03 3.26,13.29l0 1.28c0,5.27 -1.12,9.82 -3.36,13.67 -2.24,3.84 -5.46,6.82 -9.66,8.92 -4.2,2.1 -9.22,3.15 -15.06,3.15zm47.52 -0.11l-8.12 -6.51 57.44 -71 8.12 6.51 -57.44 71zm45.06 -0.32c-5.41,0 -9.64,-1.44 -12.7,-4.32 -3.06,-2.88 -4.59,-6.82 -4.59,-11.8l0 -0.75c0,-5.05 1.53,-9.02 4.59,-11.9 3.06,-2.88 7.3,-4.32 12.7,-4.32 5.27,0 9.47,1.44 12.6,4.32 3.13,2.88 4.7,6.85 4.7,11.9l0 0.75c0,4.98 -1.53,8.92 -4.59,11.8 -3.06,2.88 -7.3,4.32 -12.71,4.32zm0 -8.75c2.06,0 3.68,-0.64 4.86,-1.92 1.17,-1.28 1.76,-2.95 1.76,-5.02l0 -1.71c0,-2.06 -0.59,-3.74 -1.76,-5.02 -1.17,-1.28 -2.79,-1.92 -4.86,-1.92 -2.06,0 -3.68,0.64 -4.86,1.92 -1.17,1.28 -1.76,2.95 -1.76,5.02l0 1.71c0,2.06 0.59,3.74 1.76,5.02 1.17,1.28 2.8,1.92 4.86,1.92zm-40.78 -35.02c-5.41,0 -9.65,-1.44 -12.71,-4.32 -3.06,-2.88 -4.59,-6.82 -4.59,-11.8l0 -0.75c0,-5.05 1.53,-9.02 4.59,-11.9 3.06,-2.88 7.3,-4.32 12.71,-4.32 5.27,0 9.47,1.44 12.6,4.32 3.13,2.88 4.7,6.85 4.7,11.9l0 0.75c0,4.98 -1.53,8.91 -4.59,11.8 -3.06,2.88 -7.3,4.32 -12.7,4.32zm0 -8.75c2.06,0 3.68,-0.64 4.86,-1.92 1.17,-1.28 1.76,-2.95 1.76,-5.02l0 -1.71c0,-2.06 -0.59,-3.74 -1.76,-5.02 -1.17,-1.28 -2.79,-1.92 -4.86,-1.92 -2.06,0 -3.69,0.64 -4.86,1.92 -1.17,1.28 -1.76,2.95 -1.76,5.02l0 1.71c0,2.06 0.59,3.74 1.76,5.02 1.17,1.28 2.79,1.92 4.86,1.92z"/>
  <g id="_2523814841968" data-name="4,5%" filter="url(#Elipse_19)">
   <circle id="Elipse_19-2" class="fil0" cx="1423.62" cy="338.11" r="338.11" data-name="Elipse 19"/>
  </g>
  <g id="Grupo_268" data-name="Grupo 268">
   <path class="fil2" d="M1360.13 258.41c-4.56,0 -8.69,-1.03 -12.39,-3.08 -3.7,-2.06 -6.64,-5.06 -8.83,-9.02 -2.18,-3.95 -3.27,-8.78 -3.27,-14.47l0 -15.94c0,-8.54 2.4,-15.11 7.21,-19.69 4.81,-4.59 11.33,-6.88 19.55,-6.88 8.16,0 14.47,2.17 18.93,6.5 4.46,4.33 6.69,10.2 6.69,17.61l0 0.38 -12.34 0 0 -0.76c0,-2.34 -0.49,-4.46 -1.47,-6.36 -0.98,-1.9 -2.45,-3.4 -4.41,-4.51 -1.96,-1.11 -4.43,-1.66 -7.4,-1.66 -4.43,0 -7.91,1.36 -10.44,4.08 -2.53,2.72 -3.8,6.42 -3.8,11.1l0 16.32c0,4.62 1.26,8.34 3.8,11.15 2.53,2.82 6.07,4.22 10.63,4.22 4.56,0 7.88,-1.2 9.97,-3.61 2.09,-2.4 3.13,-5.44 3.13,-9.11l0 -0.95 -15.75 0 0 -10.63 28.09 0 0 33.98 -11.58 0 0 -6.36 -1.71 0c-0.44,1.07 -1.15,2.21 -2.14,3.42 -0.98,1.2 -2.45,2.21 -4.41,3.04 -1.96,0.82 -4.65,1.24 -8.07,1.24zm35.3 -1.33l17.46 -66.43 21.83 0 17.46 66.43 -12.91 0 -3.61 -14.62 -23.73 0 -3.61 14.62 -12.91 0zm19.46 -26.19l17.84 0 -8.07 -32.36 -1.71 0 -8.07 32.36zm1.52 -45.74l6.64 -12.34 13.86 0 -9.87 12.34 -10.63 0zm66.81 73.27c-5.13,0 -9.65,-0.92 -13.57,-2.75 -3.92,-1.83 -6.99,-4.46 -9.21,-7.88 -2.22,-3.42 -3.32,-7.53 -3.32,-12.34l0 -2.66 12.34 0 0 2.66c0,3.99 1.23,6.98 3.7,8.97 2.47,1.99 5.82,2.99 10.06,2.99 4.3,0 7.51,-0.85 9.63,-2.56 2.12,-1.71 3.18,-3.89 3.18,-6.55 0,-1.83 -0.52,-3.32 -1.57,-4.46 -1.04,-1.14 -2.56,-2.07 -4.56,-2.8 -1.99,-0.73 -4.41,-1.41 -7.26,-2.04l-2.18 -0.47c-4.56,-1.01 -8.46,-2.29 -11.72,-3.84 -3.26,-1.55 -5.76,-3.59 -7.5,-6.12 -1.74,-2.53 -2.61,-5.82 -2.61,-9.87 0,-4.05 0.96,-7.51 2.89,-10.39 1.93,-2.88 4.65,-5.09 8.16,-6.65 3.51,-1.55 7.64,-2.32 12.39,-2.32 4.75,0 8.97,0.81 12.67,2.42 3.7,1.61 6.61,4.02 8.73,7.21 2.12,3.19 3.18,7.2 3.18,12.01l0 2.85 -12.34 0 0 -2.85c0,-2.53 -0.49,-4.57 -1.47,-6.12 -0.98,-1.55 -2.39,-2.69 -4.22,-3.42 -1.84,-0.73 -4.02,-1.09 -6.55,-1.09 -3.8,0 -6.6,0.71 -8.4,2.13 -1.8,1.42 -2.7,3.37 -2.7,5.84 0,1.65 0.43,3.04 1.28,4.17 0.85,1.14 2.14,2.09 3.84,2.85 1.71,0.76 3.89,1.42 6.55,1.99l2.18 0.48c4.74,1.01 8.87,2.31 12.38,3.89 3.51,1.58 6.25,3.67 8.21,6.26 1.96,2.59 2.94,5.92 2.94,9.97 0,4.05 -1.03,7.61 -3.08,10.68 -2.06,3.07 -4.97,5.47 -8.73,7.21 -3.77,1.74 -8.21,2.61 -13.33,2.61zm-259.76 81.24l0 -66.43 23.82 0 13.19 57.89 1.71 0 0 -57.89 12.34 0 0 66.43 -23.82 0 -13.19 -57.89 -1.71 0 0 57.89 -12.34 0zm59.03 0l17.46 -66.43 21.83 0 17.46 66.43 -12.91 0 -3.61 -14.62 -23.73 0 -3.61 14.62 -12.91 0zm19.46 -26.19l17.84 0 -8.07 -32.36 -1.71 0 -8.07 32.36zm54.57 26.19l0 -55.05 -19.36 0 0 -11.39 51.25 0 0 11.39 -19.36 0 0 55.05 -12.53 0zm66.06 1.33c-5.44,0 -10.11,-1 -14,-2.99 -3.89,-1.99 -6.86,-4.84 -8.92,-8.54 -2.06,-3.7 -3.08,-8.08 -3.08,-13.14l0 -43.09 12.53 0 0 43.47c0,4.05 1.15,7.25 3.46,9.59 2.31,2.34 5.65,3.51 10.01,3.51 4.37,0 7.7,-1.17 10.01,-3.51 2.31,-2.34 3.46,-5.54 3.46,-9.59l0 -43.47 12.53 0 0 43.09c0,5.06 -1.03,9.44 -3.08,13.14 -2.06,3.7 -5.03,6.55 -8.92,8.54 -3.89,1.99 -8.56,2.99 -14,2.99zm38.15 -1.33l0 -66.43 28.85 0c4.18,0 7.82,0.73 10.92,2.18 3.1,1.46 5.5,3.51 7.21,6.17 1.71,2.66 2.56,5.79 2.56,9.4l0 1.14c0,3.99 -0.95,7.21 -2.85,9.68 -1.9,2.47 -4.24,4.27 -7.02,5.41l0 1.71c2.53,0.13 4.49,1 5.89,2.61 1.39,1.61 2.09,3.75 2.09,6.41l0 21.73 -12.53 0 0 -19.93c0,-1.52 -0.39,-2.75 -1.19,-3.7 -0.79,-0.95 -2.1,-1.42 -3.94,-1.42l-17.46 0 0 25.06 -12.53 0zm12.53 -36.44l15 0c2.97,0 5.3,-0.81 6.97,-2.42 1.68,-1.61 2.52,-3.75 2.52,-6.41l0 -0.95c0,-2.66 -0.82,-4.79 -2.47,-6.41 -1.65,-1.61 -3.99,-2.42 -7.02,-2.42l-15 0 0 18.6zm42.9 36.44l17.46 -66.43 21.83 0 17.46 66.43 -12.91 0 -3.61 -14.62 -23.73 0 -3.61 14.62 -12.91 0zm19.46 -26.19l17.84 0 -8.07 -32.36 -1.71 0 -8.07 32.36zm45.27 26.19l0 -66.43 12.53 0 0 55.05 30.37 0 0 11.39 -42.9 0z"/>
   <path class="fil1" d="M1320.12 484.48c-7.59,0 -14.31,-1.14 -20.14,-3.42 -5.84,-2.28 -10.39,-5.58 -13.67,-9.89 -3.28,-4.32 -4.91,-9.42 -4.91,-15.31l0 -1.71c0,-4.56 0.81,-8.33 2.42,-11.32 1.61,-2.99 3.63,-5.34 6.05,-7.05 2.42,-1.71 4.72,-2.89 6.91,-3.56l0 -2.56c-2.18,-0.76 -4.37,-1.99 -6.55,-3.7 -2.18,-1.71 -3.96,-3.99 -5.34,-6.83 -1.38,-2.85 -2.06,-6.26 -2.06,-10.25l0 -1.71c0,-5.22 1.54,-9.8 4.63,-13.74 3.08,-3.94 7.43,-7.02 13.03,-9.25 5.6,-2.23 12.15,-3.34 19.65,-3.34 7.5,0 14.05,1.11 19.65,3.34 5.6,2.23 9.94,5.32 13.03,9.25 3.08,3.94 4.63,8.52 4.63,13.74l0 1.71c0,3.99 -0.69,7.4 -2.06,10.25 -1.38,2.85 -3.13,5.13 -5.27,6.83 -2.14,1.71 -4.34,2.94 -6.62,3.7l0 2.56c2.28,0.67 4.6,1.85 6.98,3.56 2.37,1.71 4.37,4.06 5.98,7.05 1.61,2.99 2.42,6.76 2.42,11.32l0 1.71c0,5.89 -1.64,10.99 -4.91,15.31 -3.27,4.32 -7.83,7.62 -13.67,9.89 -5.84,2.28 -12.55,3.42 -20.14,3.42zm0 -16.23c6.55,0 11.6,-1.26 15.16,-3.77 3.56,-2.52 5.34,-5.86 5.34,-10.04l0 -1.14c0,-4.17 -1.73,-7.52 -5.2,-10.03 -3.46,-2.52 -8.56,-3.77 -15.3,-3.77 -6.64,0 -11.72,1.26 -15.23,3.77 -3.51,2.52 -5.27,5.86 -5.27,10.03l0 1.14c0,4.18 1.78,7.52 5.34,10.04 3.56,2.52 8.61,3.77 15.16,3.77zm0 -44.99c6.07,0 10.77,-1.09 14.09,-3.28 3.32,-2.18 4.98,-5.27 4.98,-9.25l0 -1.14c0,-3.99 -1.71,-7.07 -5.13,-9.25 -3.42,-2.18 -8.07,-3.27 -13.95,-3.27 -5.89,0 -10.53,1.09 -13.95,3.27 -3.42,2.18 -5.13,5.27 -5.13,9.25l0 1.14c0,3.99 1.66,7.07 4.98,9.25 3.32,2.18 8.02,3.28 14.09,3.28zm53.96 80.15l0 -9.68 5.55 0c4.37,0 6.55,-2.18 6.55,-6.55l0 -4.56 -2.42 0c-3.8,0 -6.95,-1.14 -9.47,-3.42 -2.52,-2.28 -3.77,-5.17 -3.77,-8.68 0,-3.8 1.26,-6.88 3.77,-9.25 2.52,-2.37 5.67,-3.56 9.47,-3.56 3.89,0 7.07,1.21 9.54,3.63 2.47,2.42 3.7,5.67 3.7,9.75l0 16.37c0,10.63 -5.32,15.94 -15.94,15.94l-6.97 0zm59.93 -20.93l0 -86.27 -2.56 0 -13.38 31.6 -19.08 0 20.36 -44.99 32.88 0 0 99.65 -18.22 0zm48.69 1.85l-10.82 -8.69 76.59 -94.67 10.82 8.69 -76.59 94.67zm60.08 -0.43c-7.21,0 -12.86,-1.92 -16.94,-5.77 -4.08,-3.84 -6.12,-9.09 -6.12,-15.73l0 -1c0,-6.74 2.04,-12.03 6.12,-15.87 4.08,-3.84 9.73,-5.77 16.94,-5.77 7.02,0 12.62,1.92 16.8,5.77 4.18,3.84 6.26,9.13 6.26,15.87l0 1c0,6.65 -2.04,11.89 -6.12,15.73 -4.08,3.84 -9.73,5.77 -16.94,5.77zm0 -11.67c2.75,0 4.91,-0.85 6.48,-2.56 1.57,-1.71 2.35,-3.94 2.35,-6.69l0 -2.28c0,-2.75 -0.78,-4.98 -2.35,-6.69 -1.56,-1.71 -3.72,-2.56 -6.48,-2.56 -2.75,0 -4.91,0.85 -6.48,2.56 -1.57,1.71 -2.35,3.94 -2.35,6.69l0 2.28c0,2.75 0.78,4.98 2.35,6.69 1.56,1.71 3.72,2.56 6.48,2.56zm-54.38 -46.69c-7.21,0 -12.86,-1.92 -16.94,-5.77 -4.08,-3.84 -6.12,-9.09 -6.12,-15.73l0 -1c0,-6.74 2.04,-12.03 6.12,-15.87 4.08,-3.84 9.73,-5.77 16.94,-5.77 7.02,0 12.62,1.92 16.8,5.77 4.18,3.84 6.26,9.13 6.26,15.87l0 1c0,6.65 -2.04,11.89 -6.12,15.73 -4.08,3.84 -9.73,5.77 -16.94,5.77zm0 -11.67c2.75,0 4.91,-0.85 6.48,-2.56 1.57,-1.71 2.35,-3.94 2.35,-6.69l0 -2.28c0,-2.75 -0.78,-4.98 -2.35,-6.69 -1.56,-1.71 -3.72,-2.56 -6.48,-2.56 -2.75,0 -4.91,0.85 -6.48,2.56 -1.57,1.71 -2.35,3.94 -2.35,6.69l0 2.28c0,2.75 0.78,4.98 2.35,6.69 1.56,1.71 3.72,2.56 6.48,2.56z"/>
  </g>
  <path class="fil2" d="M1746.91 3274.32l0 -58.13 20.84 0 11.54 50.66 1.5 0 0 -50.66 10.79 0 0 58.13 -20.84 0 -11.54 -50.66 -1.5 0 0 50.66 -10.79 0zm78.06 1.16c-4.76,0 -8.84,-0.87 -12.25,-2.62 -3.4,-1.74 -6.01,-4.23 -7.81,-7.47 -1.8,-3.24 -2.7,-7.07 -2.7,-11.5l0 -37.7 10.96 0 0 38.03c0,3.54 1.01,6.34 3.03,8.39 2.02,2.05 4.94,3.07 8.76,3.07 3.82,0 6.74,-1.02 8.76,-3.07 2.02,-2.05 3.03,-4.84 3.03,-8.39l0 -38.03 10.96 0 0 37.7c0,4.43 -0.9,8.26 -2.7,11.5 -1.8,3.24 -4.4,5.73 -7.81,7.47 -3.41,1.74 -7.49,2.62 -12.25,2.62zm55.47 0c-7.2,0 -12.9,-2.01 -17.11,-6.02 -4.21,-4.01 -6.31,-9.76 -6.31,-17.23l0 -13.95c0,-7.47 2.1,-13.22 6.31,-17.23 4.21,-4.02 9.91,-6.02 17.11,-6.02 7.14,0 12.66,1.95 16.57,5.85 3.9,3.9 5.85,9.26 5.85,16.07l0 0.5 -10.79 0 0 -0.83c0,-3.43 -0.96,-6.26 -2.87,-8.47 -1.91,-2.22 -4.83,-3.32 -8.76,-3.32 -3.88,0 -6.92,1.19 -9.14,3.57 -2.21,2.38 -3.32,5.62 -3.32,9.72l0 14.28c0,4.04 1.11,7.27 3.32,9.67 2.22,2.41 5.26,3.61 9.14,3.61 3.93,0 6.85,-1.12 8.76,-3.37 1.91,-2.24 2.87,-5.05 2.87,-8.43l0 -1.5 10.79 0 0 1.16c0,6.81 -1.95,12.17 -5.85,16.07 -3.9,3.9 -9.43,5.86 -16.57,5.86zm31.39 -1.16l0 -58.13 10.96 0 0 48.17 26.58 0 0 9.97 -37.54 0zm45.01 0l0 -58.13 37.37 0 0 9.97 -26.41 0 0 13.87 24.08 0 0 9.97 -24.08 0 0 14.37 26.91 0 0 9.97 -37.87 0zm42.02 0l15.28 -58.13 19.1 0 15.28 58.13 -11.29 0 -3.15 -12.79 -20.76 0 -3.16 12.79 -11.29 0zm17.02 -22.92l15.61 0 -7.06 -28.32 -1.5 0 -7.06 28.32zm39.61 22.92l0 -58.13 25.25 0c3.65,0 6.84,0.64 9.55,1.91 2.71,1.27 4.82,3.07 6.31,5.4 1.49,2.32 2.24,5.07 2.24,8.22l0 1c0,3.49 -0.83,6.31 -2.49,8.47 -1.66,2.16 -3.71,3.74 -6.15,4.73l0 1.49c2.22,0.11 3.93,0.87 5.15,2.28 1.22,1.41 1.83,3.28 1.83,5.6l0 19.02 -10.96 0 0 -17.44c0,-1.33 -0.35,-2.41 -1.04,-3.24 -0.69,-0.83 -1.84,-1.25 -3.45,-1.25l-15.28 0 0 21.92 -10.96 0zm10.96 -31.89l13.12 0c2.6,0 4.64,-0.71 6.1,-2.12 1.47,-1.41 2.2,-3.28 2.2,-5.6l0 -0.83c0,-2.33 -0.72,-4.19 -2.16,-5.61 -1.44,-1.41 -3.49,-2.12 -6.15,-2.12l-13.12 0 0 16.28z"/>
  <path class="fil2" d="M270.82 723.67l0 -66.43 42.71 0 0 11.39 -30.18 0 0 15.85 27.52 0 0 11.39 -27.52 0 0 16.42 30.75 0 0 11.39 -43.28 0zm78.39 1.33c-8.35,0 -15,-2.29 -19.93,-6.88 -4.94,-4.59 -7.4,-11.15 -7.4,-19.7l0 -15.94c0,-8.54 2.47,-15.11 7.4,-19.69 4.93,-4.59 11.58,-6.88 19.93,-6.88 8.35,0 14.99,2.29 19.93,6.88 4.94,4.59 7.4,11.15 7.4,19.69l0 15.94c0,8.54 -2.47,15.11 -7.4,19.7 -4.93,4.59 -11.58,6.88 -19.93,6.88zm0 -11.2c4.68,0 8.32,-1.36 10.91,-4.08 2.59,-2.72 3.89,-6.36 3.89,-10.91l0 -16.7c0,-4.56 -1.3,-8.19 -3.89,-10.91 -2.59,-2.72 -6.23,-4.08 -10.91,-4.08 -4.62,0 -8.24,1.36 -10.87,4.08 -2.63,2.72 -3.94,6.36 -3.94,10.91l0 16.7c0,4.56 1.31,8.19 3.94,10.91 2.63,2.72 6.25,4.08 10.87,4.08zm-7.4 -62.07l6.64 -12.34 13.86 0 -9.87 12.34 -10.63 0zm45.74 71.94l0 -66.43 12.53 0 0 55.05 30.37 0 0 11.39 -42.9 0zm51.44 0l0 -66.43 12.53 0 0 66.43 -12.53 0zm50.3 1.33c-8.23,0 -14.74,-2.29 -19.55,-6.88 -4.81,-4.59 -7.21,-11.15 -7.21,-19.7l0 -15.94c0,-8.54 2.4,-15.11 7.21,-19.69 4.81,-4.59 11.33,-6.88 19.55,-6.88 8.16,0 14.47,2.23 18.93,6.69 4.46,4.46 6.69,10.58 6.69,18.36l0 0.57 -12.34 0 0 -0.95c0,-3.92 -1.09,-7.15 -3.27,-9.68 -2.18,-2.53 -5.52,-3.8 -10.01,-3.8 -4.43,0 -7.91,1.36 -10.44,4.08 -2.53,2.72 -3.8,6.42 -3.8,11.1l0 16.32c0,4.62 1.26,8.3 3.8,11.06 2.53,2.75 6.01,4.13 10.44,4.13 4.49,0 7.83,-1.28 10.01,-3.84 2.18,-2.56 3.27,-5.77 3.27,-9.63l0 -1.71 12.34 0 0 1.33c0,7.78 -2.23,13.9 -6.69,18.36 -4.46,4.46 -10.77,6.69 -18.93,6.69zm30.56 -1.33l17.46 -66.43 21.83 0 17.46 66.43 -12.91 0 -3.61 -14.62 -23.73 0 -3.61 14.62 -12.91 0zm19.46 -26.19l17.84 0 -8.07 -32.36 -1.71 0 -8.07 32.36z"/>
  <path class="fil2" d="M1470.66 1838.84l0 -83.05 15.66 0 0 34.29 30.84 0 0 -34.29 15.66 0 0 83.05 -15.66 0 0 -34.52 -30.84 0 0 34.52 -15.66 0zm77.83 0l0 -83.05 15.66 0 0 83.05 -15.66 0zm-1.42 -89.93l8.3 -15.42 17.32 0 -12.34 15.42 -13.29 0zm30.37 89.93l0 -13.76 10.92 0 0 -55.52 -10.92 0 0 -13.76 34.17 0c11.15,0 19.63,2.83 25.45,8.48 5.81,5.65 8.72,14.06 8.72,25.21l0 15.66c0,11.15 -2.91,19.55 -8.72,25.21 -5.81,5.66 -14.3,8.48 -25.45,8.48l-34.17 0zm26.58 -14.24l7.83 0c6.33,0 10.95,-1.66 13.88,-4.98 2.93,-3.32 4.39,-7.99 4.39,-14l0 -16.61c0,-6.09 -1.46,-10.78 -4.39,-14.06 -2.93,-3.28 -7.55,-4.92 -13.88,-4.92l-7.83 0 0 54.57zm54.81 14.24l0 -83.05 36.06 0c5.22,0 9.77,0.91 13.64,2.73 3.87,1.82 6.88,4.39 9.01,7.71 2.14,3.32 3.2,7.24 3.2,11.75l0 1.42c0,4.98 -1.19,9.01 -3.56,12.1 -2.37,3.08 -5.3,5.34 -8.78,6.76l0 2.14c3.16,0.16 5.62,1.25 7.36,3.26 1.74,2.02 2.61,4.69 2.61,8.01l0 27.17 -15.66 0 0 -24.91c0,-1.9 -0.5,-3.44 -1.48,-4.63 -0.99,-1.19 -2.63,-1.78 -4.92,-1.78l-21.83 0 0 31.32 -15.66 0zm15.66 -45.56l18.74 0c3.72,0 6.62,-1.01 8.72,-3.03 2.1,-2.02 3.14,-4.69 3.14,-8.01l0 -1.19c0,-3.32 -1.03,-5.99 -3.08,-8.01 -2.06,-2.02 -4.98,-3.03 -8.78,-3.03l-18.74 0 0 23.25zm59.32 45.56l0 -83.05 15.66 0 0 83.05 -15.66 0zm62.87 1.66c-10.28,0 -18.43,-2.87 -24.44,-8.6 -6.01,-5.73 -9.02,-13.94 -9.02,-24.62l0 -19.93c0,-10.68 3,-18.88 9.02,-24.62 6.01,-5.73 14.16,-8.6 24.44,-8.6 10.2,0 18.09,2.79 23.67,8.36 5.58,5.58 8.36,13.23 8.36,22.95l0 0.71 -15.42 0 0 -1.19c0,-4.91 -1.37,-8.94 -4.09,-12.1 -2.73,-3.16 -6.9,-4.75 -12.52,-4.75 -5.54,0 -9.88,1.7 -13.05,5.1 -3.17,3.4 -4.75,8.03 -4.75,13.88l0 20.41c0,5.77 1.58,10.38 4.75,13.82 3.16,3.44 7.51,5.16 13.05,5.16 5.62,0 9.79,-1.6 12.52,-4.81 2.73,-3.2 4.09,-7.22 4.09,-12.04l0 -2.13 15.42 0 0 1.66c0,9.73 -2.79,17.38 -8.36,22.95 -5.58,5.58 -13.46,8.36 -23.67,8.36zm38.2 -1.66l21.83 -83.05 27.29 0 21.83 83.05 -16.14 0 -4.51 -18.27 -29.66 0 -4.51 18.27 -16.13 0zm24.32 -32.74l22.3 0 -10.08 -40.46 -2.14 0 -10.08 40.46z"/>
  <path class="fil1" d="M268.54 866.03l0 -86.27 -2.56 0 -13.38 31.6 -19.08 0 20.36 -44.99 32.88 0 0 99.65 -18.22 0zm73.74 1.99c-11.77,0 -21.21,-3.25 -28.33,-9.75 -7.12,-6.5 -10.68,-16.35 -10.68,-29.54l0 -25.06c0,-12.81 3.56,-22.56 10.68,-29.25 7.12,-6.69 16.56,-10.04 28.33,-10.04 11.86,0 21.33,3.34 28.4,10.04 7.07,6.69 10.61,16.44 10.61,29.25l0 25.06c0,13.19 -3.54,23.04 -10.61,29.54 -7.07,6.5 -16.54,9.75 -28.4,9.75zm0 -16.23c7.12,0 12.36,-1.95 15.73,-5.84 3.37,-3.89 5.05,-9.44 5.05,-16.66l0 -26.48c0,-7.31 -1.87,-12.84 -5.62,-16.59 -3.75,-3.75 -8.8,-5.62 -15.16,-5.62 -6.55,0 -11.65,1.95 -15.3,5.84 -3.65,3.89 -5.48,9.35 -5.48,16.37l0 26.48c0,7.5 1.73,13.12 5.2,16.87 3.46,3.75 8.66,5.62 15.59,5.62zm55.66 35.16l0 -9.68 5.55 0c4.37,0 6.55,-2.18 6.55,-6.55l0 -4.56 -2.42 0c-3.8,0 -6.95,-1.14 -9.47,-3.42 -2.52,-2.28 -3.77,-5.17 -3.77,-8.68 0,-3.8 1.26,-6.88 3.77,-9.25 2.52,-2.37 5.67,-3.56 9.47,-3.56 3.89,0 7.07,1.21 9.54,3.63 2.47,2.42 3.7,5.67 3.7,9.75l0 16.37c0,10.63 -5.32,15.94 -15.94,15.94l-6.97 0zm44.42 -20.93l0 -3.7c0,-3.7 0.28,-6.86 0.85,-9.47 0.57,-2.61 1.8,-5.58 3.7,-8.9l33.45 -59.08 0 -2.28 -52.96 0 0 -16.23 71.75 0 0 21.64 -35.31 63.07c-1.23,2.18 -2.09,4.13 -2.56,5.84 -0.48,1.71 -0.71,3.8 -0.71,6.26l0 2.85 -18.22 0zm81.29 1.85l-10.82 -8.69 76.59 -94.67 10.82 8.69 -76.59 94.67zm60.08 -0.43c-7.21,0 -12.86,-1.92 -16.94,-5.77 -4.08,-3.84 -6.12,-9.09 -6.12,-15.73l0 -1c0,-6.74 2.04,-12.03 6.12,-15.87 4.08,-3.84 9.73,-5.77 16.94,-5.77 7.02,0 12.62,1.92 16.8,5.77 4.18,3.84 6.26,9.13 6.26,15.87l0 1c0,6.65 -2.04,11.89 -6.12,15.73 -4.08,3.84 -9.73,5.77 -16.94,5.77zm0 -11.67c2.75,0 4.91,-0.85 6.48,-2.56 1.57,-1.71 2.35,-3.94 2.35,-6.69l0 -2.28c0,-2.75 -0.78,-4.98 -2.35,-6.69 -1.56,-1.71 -3.72,-2.56 -6.48,-2.56 -2.75,0 -4.91,0.85 -6.48,2.56 -1.57,1.71 -2.35,3.94 -2.35,6.69l0 2.28c0,2.75 0.78,4.98 2.35,6.69 1.56,1.71 3.72,2.56 6.48,2.56zm-54.38 -46.69c-7.21,0 -12.86,-1.92 -16.94,-5.77 -4.08,-3.84 -6.12,-9.09 -6.12,-15.73l0 -1c0,-6.74 2.04,-12.03 6.12,-15.87 4.08,-3.84 9.73,-5.77 16.94,-5.77 7.02,0 12.62,1.92 16.8,5.77 4.18,3.84 6.26,9.13 6.26,15.87l0 1c0,6.65 -2.04,11.89 -6.12,15.73 -4.08,3.84 -9.73,5.77 -16.94,5.77zm0 -11.67c2.75,0 4.91,-0.85 6.48,-2.56 1.57,-1.71 2.35,-3.94 2.35,-6.69l0 -2.28c0,-2.75 -0.78,-4.98 -2.35,-6.69 -1.56,-1.71 -3.72,-2.56 -6.48,-2.56 -2.75,0 -4.91,0.85 -6.48,2.56 -1.57,1.71 -2.35,3.94 -2.35,6.69l0 2.28c0,2.75 0.78,4.98 2.35,6.69 1.56,1.71 3.72,2.56 6.48,2.56z"/>
  <path class="fil1" d="M1480.86 2013.35c-9.73,0 -18.12,-1.72 -25.18,-5.16 -7.06,-3.44 -12.49,-8.3 -16.28,-14.59 -3.8,-6.29 -5.69,-13.58 -5.69,-21.89l0 -1.78 23.13 0 0 1.6c0,5.93 1.99,11 5.96,15.22 3.97,4.21 9.88,6.32 17.71,6.32 7.83,0 13.85,-2.11 18.06,-6.32 4.21,-4.21 6.32,-9.7 6.32,-16.46l0 -1.78c0,-6.65 -2.11,-11.92 -6.32,-15.84 -4.21,-3.91 -9.46,-5.87 -15.75,-5.87 -3.44,0 -6.29,0.48 -8.54,1.42 -2.26,0.95 -4.09,2.13 -5.52,3.56 -1.42,1.42 -2.61,2.85 -3.56,4.27l-27.58 0 0 -69.76 85.06 0 0 20.64 -62.28 0 0 30.43 3.2 0c1.19,-1.54 2.79,-3.02 4.8,-4.45 2.02,-1.42 4.63,-2.61 7.83,-3.56 3.2,-0.95 7,-1.42 11.39,-1.42 7.36,0 14.06,1.54 20.11,4.63 6.05,3.08 10.88,7.62 14.5,13.61 3.62,5.99 5.43,13.38 5.43,22.15l0 2.14c0,8.78 -1.87,16.37 -5.6,22.78 -3.74,6.41 -9.1,11.36 -16.1,14.86 -7,3.5 -15.36,5.25 -25.09,5.25zm118.69 -2.49l0 -25.27 -61.22 0 0 -26.34 43.06 -72.96 40.93 0 0 79.01 20.64 0 0 20.29 -20.64 0 0 25.27 -22.78 0zm-39.5 -45.56l39.5 0 0 -64.42 -3.2 0 -36.3 61.57 0 2.85zm100.9 71.71l0 -12.1 6.94 0c5.46,0 8.19,-2.73 8.19,-8.19l0 -5.69 -3.03 0c-4.75,0 -8.69,-1.42 -11.83,-4.27 -3.15,-2.85 -4.72,-6.47 -4.72,-10.86 0,-4.74 1.57,-8.6 4.72,-11.57 3.14,-2.97 7.09,-4.45 11.83,-4.45 4.86,0 8.84,1.51 11.92,4.54 3.08,3.02 4.63,7.09 4.63,12.19l0 20.46c0,13.29 -6.64,19.93 -19.93,19.93l-8.72 0zm92.36 -23.67c-9.37,0 -17.68,-1.66 -24.91,-4.98 -7.24,-3.32 -12.9,-8.1 -17,-14.33 -4.09,-6.23 -6.14,-13.61 -6.14,-22.15l0 -3.2 22.78 0 0 2.49c0,6.65 2.31,11.95 6.94,15.93 4.63,3.97 10.74,5.96 18.33,5.96 7.71,0 13.67,-1.84 17.88,-5.52 4.21,-3.68 6.32,-8.3 6.32,-13.88l0 -1.78c0,-3.8 -0.95,-6.88 -2.85,-9.25 -1.9,-2.37 -4.45,-4.12 -7.65,-5.25 -3.2,-1.13 -6.82,-1.69 -10.86,-1.69l-24.91 0 0 -24.91 40.22 -21.35 0 -2.85 -62.99 0 0 -20.29 88.26 0 0 30.25 -37.55 19.93 0 2.85 6.58 0c5.58,0 11,1.13 16.28,3.38 5.28,2.26 9.64,5.73 13.08,10.41 3.44,4.69 5.16,10.77 5.16,18.24l0 2.13c0,8.07 -1.96,15.1 -5.87,21.09 -3.92,5.99 -9.4,10.62 -16.46,13.88 -7.06,3.26 -15.27,4.89 -24.65,4.89zm80.44 -0.18l-13.53 -10.86 95.74 -118.34 13.52 10.85 -95.74 118.34zm75.1 -0.53c-9.02,0 -16.07,-2.4 -21.18,-7.21 -5.1,-4.8 -7.65,-11.36 -7.65,-19.66l0 -1.25c0,-8.42 2.55,-15.04 7.65,-19.84 5.1,-4.8 12.16,-7.21 21.18,-7.21 8.78,0 15.78,2.4 21,7.21 5.22,4.8 7.83,11.42 7.83,19.84l0 1.25c0,8.3 -2.55,14.86 -7.65,19.66 -5.1,4.8 -12.16,7.21 -21.17,7.21zm0 -14.59c3.44,0 6.14,-1.07 8.1,-3.2 1.96,-2.13 2.94,-4.92 2.94,-8.36l0 -2.85c0,-3.44 -0.98,-6.23 -2.94,-8.36 -1.96,-2.14 -4.66,-3.2 -8.1,-3.2 -3.44,0 -6.14,1.07 -8.1,3.2 -1.96,2.13 -2.93,4.92 -2.93,8.36l0 2.85c0,3.44 0.98,6.23 2.93,8.36 1.96,2.14 4.66,3.2 8.1,3.2zm-67.98 -58.37c-9.02,0 -16.08,-2.4 -21.18,-7.21 -5.1,-4.8 -7.65,-11.36 -7.65,-19.66l0 -1.24c0,-8.42 2.55,-15.04 7.65,-19.84 5.1,-4.8 12.16,-7.21 21.18,-7.21 8.78,0 15.78,2.4 21,7.21 5.22,4.81 7.83,11.42 7.83,19.84l0 1.24c0,8.31 -2.55,14.86 -7.65,19.66 -5.1,4.8 -12.16,7.21 -21.17,7.21zm0 -14.59c3.44,0 6.14,-1.07 8.1,-3.2 1.96,-2.13 2.94,-4.92 2.94,-8.36l0 -2.85c0,-3.44 -0.98,-6.23 -2.94,-8.36 -1.96,-2.13 -4.66,-3.2 -8.1,-3.2 -3.44,0 -6.14,1.07 -8.1,3.2 -1.96,2.14 -2.94,4.92 -2.94,8.36l0 2.85c0,3.44 0.98,6.23 2.94,8.36 1.96,2.14 4.66,3.2 8.1,3.2z"/>
 </g>
</svg>
