<svg xmlns="http://www.w3.org/2000/svg" width="178.143" height="46.83" viewBox="0 0 178.143 46.83">
  <g id="Grupo_361" data-name="Grupo 361" transform="translate(-70 -83.451)">
    <path id="Caminho_684" data-name="Caminho 684" d="M594.952,62.9h26.185V36.712H594.952Zm9.561-3.77a6.55,6.55,0,0,0-5.789-5.8V50.485a9.377,9.377,0,0,1,8.641,8.643Zm-5.789-10.005V46.287a6.554,6.554,0,0,0,5.791-5.8h2.849a9.375,9.375,0,0,1-8.641,8.639m18.644,4.2a6.549,6.549,0,0,0-5.8,5.8h-2.837a9.377,9.377,0,0,1,8.641-8.643Zm0-4.2a9.375,9.375,0,0,1-8.641-8.639h2.837a6.549,6.549,0,0,0,5.8,5.8Z" transform="translate(-524.952 57.061)" fill="#fff"/>
    <path id="Caminho_685" data-name="Caminho 685" d="M623.976,36.76c4.4,0,7.6,2.1,8.792,4.588h.145a23.893,23.893,0,0,1-.1-2.437V37.526h4.73V62.182h-4.73V60.414c0-1.1.048-1.817.1-2.484h-.145c-1.29,2.914-4.682,5.016-8.982,5.016-7.455,0-12.425-5.494-12.425-13.092s5.257-13.094,12.616-13.094m8.649,13.046c0-4.969-3.346-8.506-8.028-8.506-4.588,0-8.028,3.537-8.028,8.506,0,4.921,3.44,8.506,8.028,8.506,4.682,0,8.028-3.585,8.028-8.506" transform="translate(-508.388 57.108)" fill="#fff"/>
    <path id="Caminho_686" data-name="Caminho 686" d="M661.744,62.18h-5.161V46.028A4.53,4.53,0,0,0,651.9,41.3a4.481,4.481,0,0,0-4.588,4.73V62.18h-5.16V46.028a4.612,4.612,0,1,0-9.222,0V62.18h-5.162v-16.1c0-5.5,4.206-9.318,9.7-9.318a8.615,8.615,0,0,1,7.359,3.585,8.737,8.737,0,0,1,7.359-3.585c5.59,0,9.557,3.82,9.557,9.318Z" transform="translate(-491.825 57.108)" fill="#fff"/>
    <path id="Caminho_687" data-name="Caminho 687" d="M661.769,62.946c-3.92,0-7.315-1.672-8.556-4.158h-.143a12.579,12.579,0,0,1,.143,2.389V73.172h-5.16V37.526h4.779v1.433c0,1.1-.048,1.72-.094,2.389h.143c1.575-2.628,4.873-4.588,9.127-4.588,7.12,0,12.28,5.448,12.28,13.094s-5.257,13.092-12.517,13.092m-8.745-13.14c0,4.969,3.344,8.506,8.028,8.506,4.586,0,8.028-3.537,8.028-8.506s-3.442-8.506-8.028-8.506c-4.684,0-8.028,3.537-8.028,8.506" transform="translate(-471.349 57.108)" fill="#fff"/>
    <path id="Caminho_688" data-name="Caminho 688" d="M676.031,62.946a12.716,12.716,0,0,1-13.14-13.094A12.638,12.638,0,0,1,675.936,36.76c7.214,0,12.137,5.542,12.137,13.092a11.261,11.261,0,0,1-.145,1.865H668.29a7.456,7.456,0,0,0,7.789,6.593,8.294,8.294,0,0,0,7.025-3.344l3.01,3.107a12.006,12.006,0,0,1-10.084,4.873m-7.74-14.957H682.96a6.986,6.986,0,0,0-7.12-6.69c-4.061,0-6.88,2.628-7.55,6.69" transform="translate(-456.368 57.108)" fill="#fff"/>
    <path id="Caminho_689" data-name="Caminho 689" d="M677.967,31.576h5.16v31.3h6.165v4.539H677.967Z" transform="translate(-441.149 51.875)" fill="#fff"/>
  </g>
</svg>
